<svg xmlns="http://www.w3.org/2000/svg" xmlns:xlink="http://www.w3.org/1999/xlink" width="500" zoomAndPan="magnify" viewBox="0 0 375 374.999991" height="500" preserveAspectRatio="xMidYMid meet" version="1.0"><defs><g/><clipPath id="7ee1ec9eec"><rect x="0" width="115" y="0" height="21"/></clipPath><clipPath id="ffc5631ccc"><path d="M 108.804688 108 L 266.304688 108 L 266.304688 215.246094 L 108.804688 215.246094 Z M 108.804688 108 " clip-rule="nonzero"/></clipPath></defs><g fill="#020202" fill-opacity="1"><g transform="translate(53.571556, 248.587952)"><g><path d="M 3.125 0.09375 L 2.515625 -0.296875 L 2.1875 -0.9375 L 2.21875 -7.5625 L 2.15625 -8.125 L 2.25 -11.15625 L 2.1875 -11.765625 L 2.21875 -16.5625 L 2.15625 -17.09375 L 2.25 -18.265625 L 2.15625 -20.09375 L 2.484375 -20.734375 L 3.15625 -21.03125 L 3.984375 -20.796875 L 4.6875 -20.28125 L 5.453125 -19.46875 L 5.9375 -19.046875 L 6.71875 -18.125 L 7.140625 -17.765625 L 9.875 -14.734375 L 10.53125 -14.125 L 11.0625 -13.4375 L 11.484375 -13.015625 L 11.84375 -12.515625 L 12.484375 -12.265625 L 13.015625 -12.625 L 14.84375 -14.484375 L 15.234375 -15 L 17.875 -17.703125 L 18.296875 -18.234375 L 18.65625 -18.5625 L 19.046875 -19.046875 L 20.3125 -20.375 L 20.9375 -20.765625 L 21.8125 -21.03125 L 22.4375 -20.703125 L 22.796875 -20.0625 L 22.734375 -19.5 L 22.765625 -18.265625 L 22.734375 -17.765625 L 22.796875 -16.46875 L 22.765625 -15.90625 L 22.796875 -12.9375 L 22.734375 -12.265625 L 22.796875 -3.265625 L 22.734375 -2.671875 L 22.828125 -1.109375 L 22.46875 -0.234375 L 21.84375 0.09375 L 18.203125 -0.03125 L 17.578125 -0.203125 L 17.34375 -0.90625 L 17.34375 -1.34375 L 17.28125 -2.703125 L 17.34375 -3.234375 L 17.28125 -4.34375 L 17.34375 -5.515625 L 17.25 -6.71875 L 17.3125 -8.375 L 17.0625 -8.8125 L 16.6875 -8.640625 L 15.453125 -7.375 L 15.03125 -7.078125 L 14.1875 -6.09375 L 13.828125 -5.734375 L 13.40625 -5.28125 L 12.8125 -4.828125 L 12.15625 -4.859375 L 11.515625 -5.3125 L 10.703125 -6.09375 L 10.3125 -6.5625 L 9.09375 -7.796875 L 8.734375 -8.25 L 8.25 -8.640625 L 7.953125 -8.765625 L 7.6875 -8.484375 L 7.6875 -7.3125 L 7.734375 -6.65625 L 7.6875 -5.578125 L 7.703125 -4.953125 L 7.625 -4.015625 L 7.703125 -0.875 L 7.34375 -0.328125 L 6.515625 0.03125 L 5.546875 -0.03125 L 4.890625 0.0625 L 3.71875 0 Z M 3.125 0.09375 "/></g></g></g><g fill="#020202" fill-opacity="1"><g transform="translate(83.081804, 248.587952)"><g><path d="M 6.875 -0.90625 L 6.90625 -2.046875 L 6.84375 -2.609375 L 6.90625 -4.921875 L 6.84375 -5.515625 L 6.875 -7.890625 L 6.71875 -8.703125 L 6.421875 -9.546875 L 4.109375 -13.203125 L 3.875 -13.734375 L 3.15625 -14.703125 L 1.921875 -16.828125 L 1.59375 -17.25 L 0.296875 -19.375 L 0 -20.0625 L 0.09375 -20.734375 L 0.6875 -21.03125 L 2.0625 -20.9375 L 3.59375 -21.0625 L 4.109375 -20.9375 L 4.734375 -20.96875 L 5.4375 -20.703125 L 6.0625 -20.125 L 7.46875 -17.484375 L 7.796875 -16.984375 L 8.703125 -15.296875 L 9.03125 -14.8125 L 9.359375 -14.25 L 9.6875 -14.25 L 10.078125 -14.765625 L 10.59375 -15.90625 L 10.890625 -16.40625 L 11.1875 -17.046875 L 11.84375 -18 L 12.203125 -18.90625 L 12.984375 -20.1875 L 13.53125 -20.703125 L 14.34375 -21 L 14.84375 -20.96875 L 16.015625 -21 L 16.625 -20.90625 L 17.25 -20.96875 L 18.421875 -20.9375 L 18.953125 -20.8125 L 19.078125 -20.15625 L 18.75 -19.40625 L 16.828125 -16.234375 L 16.46875 -15.8125 L 12.65625 -9.546875 L 12.359375 -8.765625 L 12.1875 -7.890625 L 12.203125 -6.15625 L 12.125 -5.609375 L 12.125 -5.015625 L 12.1875 -4.40625 L 12.09375 -0.9375 L 11.84375 -0.296875 L 11.25 0.03125 L 10.65625 -0.03125 L 9.8125 0.03125 L 8.875 -0.03125 L 8.34375 0.03125 L 7.734375 0 L 7.109375 -0.234375 Z M 6.875 -0.90625 "/></g></g></g><g fill="#020202" fill-opacity="1"><g transform="translate(106.594376, 248.587952)"><g><path d="M 8.0625 0.265625 L 6.84375 0.0625 L 5.671875 -0.359375 L 5.0625 -0.546875 L 4.5 -0.8125 L 4.078125 -1.265625 L 3.03125 -1.921875 L 2.640625 -2.375 L 2.21875 -2.765625 L 1.65625 -3.875 L 1.46875 -4.40625 L 1.34375 -5.015625 L 1.265625 -5.609375 L 1.5 -6.234375 L 2.046875 -6.484375 L 4.34375 -6.59375 L 4.921875 -6.515625 L 5.453125 -6.5625 L 6.0625 -6.328125 L 7.046875 -5.25 L 7.5625 -4.921875 L 8.0625 -4.65625 L 9.59375 -4.5 L 10.140625 -4.59375 L 11.0625 -4.65625 L 12.09375 -5.09375 L 12.484375 -5.546875 L 12.71875 -6.296875 L 12.546875 -7.046875 L 12.15625 -7.40625 L 11.0625 -7.921875 L 6.359375 -8.453125 L 5.28125 -8.8125 L 3.234375 -9.9375 L 2.125 -11.3125 L 1.65625 -12.359375 L 1.4375 -13.5625 L 1.40625 -14.484375 L 1.5 -15.953125 L 2.046875 -17.609375 L 3.09375 -19.015625 L 4.53125 -20.015625 L 5.546875 -20.609375 L 6.6875 -20.96875 L 7.234375 -21.0625 L 7.828125 -21.09375 L 8.484375 -21.265625 L 10.796875 -21.203125 L 11.96875 -20.96875 L 13.65625 -20.40625 L 15.625 -19.015625 L 16.296875 -18.125 L 17.125 -16.5625 L 17.1875 -15.984375 L 17.3125 -15.421875 L 17.0625 -14.90625 L 16.5 -14.484375 L 15.953125 -14.546875 L 15.359375 -14.546875 L 14.546875 -14.609375 L 13.140625 -14.484375 L 12.484375 -14.875 L 12.03125 -15.484375 L 11.515625 -15.90625 L 10.984375 -16.265625 L 10.4375 -16.40625 L 9.484375 -16.53125 L 8.515625 -16.5 L 7.984375 -16.375 L 7.5 -16.109375 L 7.046875 -15.78125 L 6.6875 -15.390625 L 6.546875 -14.578125 L 6.65625 -13.6875 L 7.109375 -13.265625 L 8.21875 -12.71875 L 9.8125 -12.390625 L 10.6875 -12.390625 L 11.3125 -12.265625 L 11.90625 -12.234375 L 12.515625 -12.15625 L 14.84375 -11.4375 L 15.390625 -11.09375 L 15.875 -10.859375 L 16.40625 -10.375 L 17.1875 -9.484375 L 17.515625 -9 L 17.96875 -7.265625 L 18.03125 -6.296875 L 17.84375 -4.796875 L 17.671875 -4.296875 L 17.484375 -3.75 L 17.15625 -3.09375 L 16.859375 -2.671875 L 15.984375 -1.765625 L 13.953125 -0.546875 L 13.375 -0.265625 L 12.84375 -0.203125 L 12.234375 0.03125 L 11.640625 0.125 L 11.046875 0.265625 L 10.4375 0.328125 Z M 8.0625 0.265625 "/></g></g></g><g fill="#020202" fill-opacity="1"><g transform="translate(130.166926, 248.587952)"><g><path d="M 7.828125 0.0625 L 6.90625 0.03125 L 6.03125 -0.265625 L 5.640625 -0.9375 L 5.703125 -1.5 L 5.734375 -3.234375 L 5.671875 -3.875 L 5.703125 -6.296875 L 5.765625 -6.90625 L 5.671875 -11.375 L 5.734375 -12.203125 L 5.703125 -12.8125 L 5.734375 -13.46875 L 5.671875 -14.3125 L 5.734375 -15.265625 L 5.40625 -15.875 L 4.828125 -16.171875 L 1.984375 -16.234375 L 1.375 -16.171875 L 0.84375 -16.46875 L 0.5625 -17.015625 L 0.515625 -17.9375 L 0.5625 -19.4375 L 0.546875 -20.046875 L 0.90625 -20.734375 L 1.46875 -21.03125 L 3.5625 -20.90625 L 4.5 -21 L 6.265625 -20.90625 L 6.8125 -21.03125 L 7.46875 -20.96875 L 8.09375 -21.0625 L 8.671875 -21.03125 L 9.265625 -20.90625 L 11.703125 -21.03125 L 12.265625 -20.96875 L 12.90625 -21.0625 L 13.46875 -21 L 15.328125 -21 L 15.90625 -20.609375 L 16.234375 -20.015625 L 16.203125 -17.15625 L 15.84375 -16.5 L 15.328125 -16.171875 L 14.796875 -16.203125 L 14.15625 -16.109375 L 13.046875 -16.265625 L 11.875 -16.203125 L 11.3125 -15.84375 L 11.0625 -14.9375 L 10.984375 -12.328125 L 11.0625 -11.703125 L 11.015625 -6.875 L 11.09375 -6.203125 L 11.046875 -5.671875 L 11.0625 -4.46875 L 11.015625 -3.84375 L 11.09375 -2.703125 L 11.015625 -1.140625 L 10.703125 -0.296875 L 9.84375 0 Z M 7.828125 0.0625 "/></g></g></g><g fill="#020202" fill-opacity="1"><g transform="translate(151.370401, 248.587952)"><g><path d="M 10.046875 0.125 L 9.453125 -0.03125 L 7.984375 -0.03125 L 7.078125 0.09375 L 5.875 -0.03125 L 5.28125 0.03125 L 4.34375 0.0625 L 3.484375 -0.0625 L 2.90625 0 L 2.34375 0 L 1.734375 -0.265625 L 1.4375 -1.078125 L 1.53125 -3.84375 L 1.859375 -4.375 L 3.84375 -4.984375 L 4.171875 -5.875 L 4.078125 -15.09375 L 3.8125 -15.90625 L 3.234375 -16.265625 L 2.640625 -16.265625 L 1.984375 -16.59375 L 1.65625 -17.1875 L 1.703125 -17.765625 L 1.625 -19.984375 L 1.921875 -20.703125 L 2.515625 -21 L 3.203125 -21 L 3.78125 -20.90625 L 6.234375 -20.90625 L 6.84375 -21.03125 L 7.375 -20.96875 L 11.015625 -20.96875 L 11.546875 -20.640625 L 11.90625 -20.0625 L 11.875 -17.09375 L 11.578125 -16.625 L 10.953125 -16.375 L 10.34375 -16.296875 L 9.6875 -16.015625 L 9.484375 -15.328125 L 9.359375 -12.296875 L 9.484375 -10.140625 L 9.421875 -9.484375 L 9.453125 -6.1875 L 9.359375 -5.609375 L 9.71875 -4.921875 L 10.4375 -4.6875 L 11.0625 -4.6875 L 11.734375 -4.34375 L 12.09375 -3.78125 L 12.09375 -0.8125 L 11.796875 -0.234375 L 11.25 0.0625 Z M 10.046875 0.125 "/></g></g></g><g fill="#020202" fill-opacity="1"><g transform="translate(169.425102, 248.587952)"><g><path d="M 10.4375 0.234375 L 9.875 0.203125 L 9.328125 0.09375 L 8.734375 -0.125 L 8.1875 -0.234375 L 6.84375 -0.8125 L 5.546875 -1.5 L 4.203125 -2.671875 L 2.96875 -3.984375 L 1.6875 -6.59375 L 1.265625 -8.3125 L 1.078125 -10.5 L 1.375 -13.078125 L 1.6875 -14.3125 L 2.4375 -15.984375 L 3 -16.859375 L 3.8125 -17.875 L 5.09375 -19.046875 L 5.96875 -19.703125 L 8.1875 -20.765625 L 11.09375 -21.328125 L 12.953125 -21.296875 L 13.5625 -21.203125 L 14.125 -21.1875 L 17.015625 -20.21875 L 19.046875 -18.9375 L 19.890625 -18.0625 L 20.21875 -17.484375 L 20.640625 -16.984375 L 20.90625 -16.5 L 21.234375 -16.015625 L 21.421875 -15.390625 L 21.625 -14.84375 L 21.8125 -14.1875 L 21.59375 -13.59375 L 21.09375 -13.34375 L 20.1875 -13.265625 L 19.34375 -13.34375 L 18.75 -13.3125 L 18.125 -13.34375 L 17.578125 -13.296875 L 16.890625 -13.625 L 16.3125 -14.1875 L 15.984375 -14.640625 L 15.125 -15.515625 L 14.703125 -15.84375 L 14.15625 -16.046875 L 13.234375 -16.3125 L 11.9375 -16.375 L 9.9375 -16.109375 L 9.125 -15.65625 L 8.40625 -15.09375 L 7.6875 -14.25 L 7.375 -13.6875 L 6.9375 -12.59375 L 6.71875 -11.40625 L 6.71875 -9.5625 L 6.8125 -8.90625 L 6.953125 -8.375 L 7.171875 -7.953125 L 7.375 -7.34375 L 8.046875 -6.296875 L 8.90625 -5.515625 L 9.953125 -4.984375 L 11.046875 -4.59375 L 11.90625 -4.5 L 13.5 -4.59375 L 14.546875 -5.15625 L 15 -5.34375 L 15.484375 -5.765625 L 16.171875 -6.546875 L 16.46875 -7.109375 L 16.953125 -7.59375 L 17.640625 -7.953125 L 18.234375 -7.921875 L 18.84375 -7.953125 L 19.4375 -7.859375 L 21.125 -7.984375 L 21.71875 -7.59375 L 21.90625 -7.046875 L 21.125 -4.765625 L 20.484375 -3.6875 L 19.796875 -2.796875 L 18.953125 -1.953125 L 17.484375 -0.90625 L 16.984375 -0.65625 L 16.34375 -0.453125 L 15.8125 -0.15625 L 14.046875 0.203125 L 11.9375 0.359375 Z M 10.4375 0.234375 "/></g></g></g><g fill="#020202" fill-opacity="1"><g transform="translate(196.746199, 248.587952)"><g><path d="M 7.34375 -0.65625 L 7.171875 -1.171875 L 6.90625 -1.734375 L 4.46875 -8.546875 L 4.203125 -9.03125 L 3.359375 -11.28125 L 3.1875 -11.9375 L 1.953125 -15.296875 L 1.6875 -15.8125 L 0.421875 -19.234375 L 0.265625 -20.046875 L 0.390625 -20.734375 L 1.015625 -20.90625 L 1.65625 -20.9375 L 2.1875 -21.03125 L 2.734375 -20.90625 L 5.125 -20.875 L 5.703125 -20.609375 L 6.234375 -20.125 L 6.484375 -19.53125 L 6.59375 -18.9375 L 6.953125 -17.765625 L 7.203125 -17.25 L 9.125 -10.703125 L 9.234375 -9.984375 L 9.484375 -10.015625 L 9.9375 -11.15625 L 10.046875 -11.796875 L 10.34375 -12.234375 L 11.4375 -15.71875 L 11.875 -16.796875 L 12.875 -19.765625 L 13.375 -20.375 L 13.984375 -20.671875 L 14.640625 -20.671875 L 15.265625 -20.3125 L 15.6875 -19.703125 L 15.9375 -19.171875 L 16.171875 -18.65625 L 16.53125 -17.453125 L 16.765625 -16.890625 L 17.0625 -15.75 L 18.359375 -12.359375 L 18.515625 -11.765625 L 19.109375 -10.046875 L 19.40625 -10.015625 L 19.59375 -10.59375 L 19.796875 -11.84375 L 20.1875 -13.109375 L 20.3125 -13.703125 L 21.953125 -18.984375 L 22.234375 -19.5 L 22.375 -20.0625 L 22.890625 -20.703125 L 23.515625 -21 L 24.09375 -20.90625 L 24.71875 -20.96875 L 25.921875 -20.90625 L 26.96875 -20.96875 L 27.5625 -20.875 L 28.171875 -20.734375 L 28.34375 -20.015625 L 27.78125 -18.1875 L 27.484375 -17.640625 L 27.328125 -16.984375 L 25.40625 -11.875 L 25.296875 -11.375 L 25.015625 -10.828125 L 24.78125 -9.984375 L 23.796875 -7.4375 L 23.515625 -6.9375 L 21.71875 -1.703125 L 21.453125 -1.171875 L 21.265625 -0.59375 L 20.8125 -0.0625 L 20.09375 0.1875 L 19.59375 0.265625 L 19.015625 0.296875 L 18.328125 -0.0625 L 17.765625 -0.6875 L 17.578125 -1.265625 L 17.125 -2.25 L 15.421875 -6.875 L 14.90625 -7.890625 L 14.734375 -8.515625 L 14.4375 -9.03125 L 14.125 -9.125 L 13.734375 -7.953125 L 13.203125 -6.8125 L 13.015625 -6.1875 L 12.09375 -3.953125 L 11.9375 -3.484375 L 11.671875 -2.84375 L 11.515625 -2.34375 L 11.21875 -1.796875 L 11.046875 -1.140625 L 10.765625 -0.625 L 10.296875 0 L 9.625 0.234375 L 8.484375 0.265625 L 7.828125 -0.125 Z M 7.34375 -0.65625 "/></g></g></g><g fill="#020202" fill-opacity="1"><g transform="translate(229.795063, 248.587952)"><g><path d="M 17.703125 0.0625 L 17.0625 0 L 16.375 -0.296875 L 15.78125 -0.75 L 15.59375 -1.296875 L 15.328125 -1.859375 L 14.765625 -2.34375 L 14.09375 -2.671875 L 13.4375 -2.578125 L 12.90625 -2.640625 L 9.953125 -2.609375 L 9.421875 -2.703125 L 8.15625 -2.578125 L 7.59375 -2.671875 L 6.953125 -2.34375 L 6.390625 -1.765625 L 5.84375 -0.78125 L 5.28125 -0.234375 L 4.59375 -0.03125 L 2.90625 0.03125 L 2.3125 -0.03125 L 1.140625 0.03125 L 0.546875 -0.15625 L 0.390625 -0.90625 L 0.5625 -1.5 L 1.171875 -2.703125 L 1.3125 -3.234375 L 1.65625 -3.65625 L 2.09375 -4.859375 L 2.640625 -5.8125 L 2.84375 -6.421875 L 3.15625 -6.875 L 3.328125 -7.53125 L 6.390625 -13.953125 L 6.5625 -14.484375 L 6.90625 -15.0625 L 7.046875 -15.65625 L 7.375 -16.109375 L 8.578125 -18.875 L 8.84375 -19.296875 L 9.0625 -19.890625 L 9.328125 -20.40625 L 9.875 -20.90625 L 10.828125 -21.234375 L 11.8125 -20.9375 L 12.328125 -20.40625 L 12.90625 -19.34375 L 13.078125 -18.8125 L 13.40625 -18.265625 L 13.59375 -17.671875 L 15.5625 -13.5 L 15.78125 -12.875 L 16.40625 -11.765625 L 16.59375 -11.28125 L 16.859375 -10.828125 L 17.046875 -10.171875 L 17.34375 -9.59375 L 17.640625 -9.15625 L 18.78125 -6.421875 L 19.375 -5.34375 L 19.796875 -4.234375 L 20.609375 -2.671875 L 21.0625 -1.5625 L 21.265625 -0.875 L 21.1875 -0.15625 L 20.34375 0 L 19.40625 0.03125 L 18.84375 -0.03125 Z M 10.890625 -7.40625 L 12.09375 -7.4375 L 12.546875 -7.6875 L 12.65625 -8.21875 L 11.25 -11.515625 L 10.828125 -11.765625 L 10.5 -11.484375 L 9.09375 -8.25 L 9.125 -7.6875 L 9.59375 -7.46875 L 10.296875 -7.53125 Z M 10.890625 -7.40625 "/></g></g></g><g fill="#020202" fill-opacity="1"><g transform="translate(256.006586, 248.587952)"><g><path d="M 10.3125 0.265625 L 9.75 0.1875 L 9.09375 -0.0625 L 8.484375 -0.5625 L 8.21875 -1.015625 L 7.015625 -3.875 L 6.875 -4.46875 L 6.546875 -5.015625 L 6.03125 -6.03125 L 5.8125 -6.65625 L 5.0625 -8.21875 L 4.890625 -8.8125 L 2.1875 -14.875 L 1.984375 -15.515625 L 1.65625 -15.953125 L 1.40625 -16.5625 L 1.265625 -17.125 L 0.953125 -17.578125 L 0 -20.125 L 0.234375 -20.734375 L 0.71875 -20.9375 L 1.859375 -20.9375 L 2.453125 -21.03125 L 4.171875 -20.96875 L 4.859375 -20.671875 L 5.375 -20.15625 L 6.203125 -17.875 L 6.984375 -16.296875 L 8.484375 -12.390625 L 9 -11.375 L 9.125 -10.796875 L 9.875 -9.1875 L 10.203125 -9.125 L 10.5 -9.65625 L 11.09375 -11.34375 L 11.40625 -11.875 L 11.515625 -12.421875 L 11.796875 -12.9375 L 11.96875 -13.5625 L 14.765625 -20.15625 L 15.265625 -20.671875 L 15.9375 -21.0625 L 17.0625 -20.9375 L 17.671875 -20.96875 L 18.234375 -21.03125 L 18.78125 -20.9375 L 19.40625 -20.875 L 19.953125 -20.765625 L 20.09375 -20.125 L 19.890625 -19.3125 L 19.3125 -18.265625 L 19.171875 -17.703125 L 18.65625 -16.625 L 18.359375 -16.078125 L 15.75 -9.90625 L 15.203125 -8.9375 L 15 -8.28125 L 13.828125 -5.546875 L 13.5 -5.015625 L 13.3125 -4.5 L 13.015625 -3.875 L 12.84375 -3.265625 L 12.265625 -2.3125 L 12.09375 -1.6875 L 11.703125 -0.84375 L 11.046875 0.03125 Z M 10.3125 0.265625 "/></g></g></g><g fill="#020202" fill-opacity="1"><g transform="translate(280.658715, 248.587952)"><g><path d="M 10.4375 0.09375 L 9.84375 0.03125 L 9.234375 0.09375 L 8.546875 0.0625 L 7.984375 -0.0625 L 6.75 0.03125 L 6.203125 0 L 5.546875 0.0625 L 3.390625 0.03125 L 2.484375 -0.359375 L 2.25 -1.171875 L 2.1875 -1.828125 L 2.28125 -3.90625 L 2.1875 -4.5 L 2.25 -5.0625 L 2.28125 -9.9375 L 2.1875 -10.46875 L 2.21875 -12.9375 L 2.28125 -13.5 L 2.1875 -14.125 L 2.25 -17.0625 L 2.15625 -17.734375 L 2.25 -18.953125 L 2.1875 -20.09375 L 2.515625 -20.734375 L 3.15625 -20.96875 L 3.75 -20.9375 L 4.34375 -21 L 4.890625 -20.9375 L 5.453125 -21.0625 L 6.0625 -20.96875 L 8.515625 -21.03125 L 9.125 -20.96875 L 9.625 -21 L 10.234375 -20.9375 L 10.890625 -21 L 13.3125 -21.03125 L 13.859375 -20.90625 L 14.484375 -20.90625 L 15.09375 -20.671875 L 15.359375 -20.09375 L 15.421875 -18.296875 L 15.390625 -17.703125 L 15.421875 -17.09375 L 15.125 -16.5625 L 14.484375 -16.203125 L 13.921875 -16.171875 L 9.625 -16.234375 L 9.0625 -16.109375 L 8.484375 -16.140625 L 7.828125 -15.90625 L 7.5625 -15.328125 L 7.5625 -14.40625 L 7.796875 -13.46875 L 8.4375 -13.203125 L 10.171875 -13.265625 L 11.4375 -13.171875 L 12.0625 -13.234375 L 13.828125 -13.234375 L 14.515625 -12.84375 L 14.8125 -12 L 14.734375 -9.296875 L 14.515625 -8.703125 L 13.921875 -8.453125 L 13.234375 -8.484375 L 12.625 -8.4375 L 11.40625 -8.453125 L 10.265625 -8.40625 L 9.296875 -8.484375 L 8.40625 -8.453125 L 7.859375 -8.125 L 7.59375 -7.5 L 7.59375 -5.609375 L 7.828125 -5.0625 L 8.453125 -4.765625 L 9.125 -4.828125 L 9.6875 -4.734375 L 10.34375 -4.765625 L 10.953125 -4.703125 L 11.9375 -4.828125 L 13.46875 -4.796875 L 14.046875 -4.703125 L 14.734375 -4.765625 L 15.359375 -4.5 L 15.6875 -3.90625 L 15.6875 -0.875 L 15.359375 -0.234375 L 14.734375 0.03125 Z M 10.4375 0.09375 "/></g></g></g><g fill="#020202" fill-opacity="1"><g transform="translate(302.282027, 248.587952)"><g><path d="M 8.0625 0.265625 L 6.84375 0.0625 L 5.671875 -0.359375 L 5.0625 -0.546875 L 4.5 -0.8125 L 4.078125 -1.265625 L 3.03125 -1.921875 L 2.640625 -2.375 L 2.21875 -2.765625 L 1.65625 -3.875 L 1.46875 -4.40625 L 1.34375 -5.015625 L 1.265625 -5.609375 L 1.5 -6.234375 L 2.046875 -6.484375 L 4.34375 -6.59375 L 4.921875 -6.515625 L 5.453125 -6.5625 L 6.0625 -6.328125 L 7.046875 -5.25 L 7.5625 -4.921875 L 8.0625 -4.65625 L 9.59375 -4.5 L 10.140625 -4.59375 L 11.0625 -4.65625 L 12.09375 -5.09375 L 12.484375 -5.546875 L 12.71875 -6.296875 L 12.546875 -7.046875 L 12.15625 -7.40625 L 11.0625 -7.921875 L 6.359375 -8.453125 L 5.28125 -8.8125 L 3.234375 -9.9375 L 2.125 -11.3125 L 1.65625 -12.359375 L 1.4375 -13.5625 L 1.40625 -14.484375 L 1.5 -15.953125 L 2.046875 -17.609375 L 3.09375 -19.015625 L 4.53125 -20.015625 L 5.546875 -20.609375 L 6.6875 -20.96875 L 7.234375 -21.0625 L 7.828125 -21.09375 L 8.484375 -21.265625 L 10.796875 -21.203125 L 11.96875 -20.96875 L 13.65625 -20.40625 L 15.625 -19.015625 L 16.296875 -18.125 L 17.125 -16.5625 L 17.1875 -15.984375 L 17.3125 -15.421875 L 17.0625 -14.90625 L 16.5 -14.484375 L 15.953125 -14.546875 L 15.359375 -14.546875 L 14.546875 -14.609375 L 13.140625 -14.484375 L 12.484375 -14.875 L 12.03125 -15.484375 L 11.515625 -15.90625 L 10.984375 -16.265625 L 10.4375 -16.40625 L 9.484375 -16.53125 L 8.515625 -16.5 L 7.984375 -16.375 L 7.5 -16.109375 L 7.046875 -15.78125 L 6.6875 -15.390625 L 6.546875 -14.578125 L 6.65625 -13.6875 L 7.109375 -13.265625 L 8.21875 -12.71875 L 9.8125 -12.390625 L 10.6875 -12.390625 L 11.3125 -12.265625 L 11.90625 -12.234375 L 12.515625 -12.15625 L 14.84375 -11.4375 L 15.390625 -11.09375 L 15.875 -10.859375 L 16.40625 -10.375 L 17.1875 -9.484375 L 17.515625 -9 L 17.96875 -7.265625 L 18.03125 -6.296875 L 17.84375 -4.796875 L 17.671875 -4.296875 L 17.484375 -3.75 L 17.15625 -3.09375 L 16.859375 -2.671875 L 15.984375 -1.765625 L 13.953125 -0.546875 L 13.375 -0.265625 L 12.84375 -0.203125 L 12.234375 0.03125 L 11.640625 0.125 L 11.046875 0.265625 L 10.4375 0.328125 Z M 8.0625 0.265625 "/></g></g></g><g transform="matrix(1, 0, 0, 1, 130, 253)"><g clip-path="url(#7ee1ec9eec)"><g fill="#020202" fill-opacity="1"><g transform="translate(1.13892, 15.973318)"><g><path d="M 7.6875 -8.8125 L 4.78125 -8.8125 L 4.78125 0 L 3.5625 0 L 3.5625 -8.8125 L 0.640625 -8.8125 L 0.640625 -9.921875 L 7.6875 -9.921875 Z M 7.6875 -8.8125 "/></g></g></g><g fill="#020202" fill-opacity="1"><g transform="translate(9.490741, 15.973318)"><g><path d="M 1 -7.46875 L 2.21875 -7.46875 L 2.21875 -6.28125 L 2.3125 -6.28125 C 2.4375 -6.613281 2.65625 -6.894531 2.96875 -7.125 C 3.28125 -7.351562 3.679688 -7.46875 4.171875 -7.46875 C 4.316406 -7.46875 4.429688 -7.457031 4.515625 -7.4375 C 4.609375 -7.425781 4.710938 -7.40625 4.828125 -7.375 L 4.796875 -6.171875 C 4.640625 -6.222656 4.503906 -6.257812 4.390625 -6.28125 C 4.285156 -6.300781 4.148438 -6.3125 3.984375 -6.3125 C 2.804688 -6.3125 2.21875 -5.613281 2.21875 -4.21875 L 2.21875 0 L 1 0 Z M 1 -7.46875 "/></g></g></g><g fill="#020202" fill-opacity="1"><g transform="translate(14.49615, 15.973318)"><g><path d="M 3.796875 0.09375 C 3.140625 0.09375 2.578125 -0.0703125 2.109375 -0.40625 C 1.640625 -0.75 1.28125 -1.210938 1.03125 -1.796875 C 0.789062 -2.378906 0.671875 -3.039062 0.671875 -3.78125 C 0.671875 -4.519531 0.796875 -5.179688 1.046875 -5.765625 C 1.296875 -6.359375 1.65625 -6.820312 2.125 -7.15625 C 2.601562 -7.5 3.175781 -7.671875 3.84375 -7.671875 C 4.5 -7.671875 5.03125 -7.515625 5.4375 -7.203125 C 5.84375 -6.890625 6.148438 -6.515625 6.359375 -6.078125 L 6.46875 -6.078125 L 6.46875 -7.46875 L 7.6875 -7.46875 L 7.6875 0 L 6.46875 0 L 6.46875 -1.53125 L 6.359375 -1.53125 C 6.128906 -1.082031 5.804688 -0.695312 5.390625 -0.375 C 4.984375 -0.0625 4.453125 0.09375 3.796875 0.09375 Z M 4.1875 -0.953125 C 4.90625 -0.953125 5.457031 -1.222656 5.84375 -1.765625 C 6.238281 -2.304688 6.4375 -2.976562 6.4375 -3.78125 C 6.4375 -4.582031 6.238281 -5.253906 5.84375 -5.796875 C 5.457031 -6.347656 4.90625 -6.625 4.1875 -6.625 C 3.4375 -6.625 2.867188 -6.351562 2.484375 -5.8125 C 2.097656 -5.269531 1.90625 -4.597656 1.90625 -3.796875 C 1.90625 -2.984375 2.097656 -2.304688 2.484375 -1.765625 C 2.867188 -1.222656 3.4375 -0.953125 4.1875 -0.953125 Z M 4.1875 -0.953125 "/></g></g></g><g fill="#020202" fill-opacity="1"><g transform="translate(23.28753, 15.973318)"><g><path d="M 0.453125 -7.46875 L 1.640625 -7.46875 L 3.890625 -1.296875 L 3.953125 -1.296875 L 6.1875 -7.46875 L 7.390625 -7.46875 L 4.65625 0 L 3.15625 0 Z M 0.453125 -7.46875 "/></g></g></g><g fill="#020202" fill-opacity="1"><g transform="translate(31.128878, 15.973318)"><g><path d="M 4.203125 0.09375 C 3.441406 0.09375 2.796875 -0.0859375 2.265625 -0.453125 C 1.742188 -0.816406 1.351562 -1.296875 1.09375 -1.890625 C 0.84375 -2.492188 0.71875 -3.125 0.71875 -3.78125 C 0.71875 -4.457031 0.84375 -5.085938 1.09375 -5.671875 C 1.351562 -6.265625 1.75 -6.742188 2.28125 -7.109375 C 2.8125 -7.484375 3.457031 -7.671875 4.21875 -7.671875 C 5.21875 -7.671875 6.019531 -7.332031 6.625 -6.65625 C 7.226562 -5.988281 7.53125 -5.023438 7.53125 -3.765625 L 7.53125 -3.421875 L 1.9375 -3.421875 L 1.9375 -3.328125 C 1.9375 -2.910156 2.03125 -2.515625 2.21875 -2.140625 C 2.414062 -1.773438 2.679688 -1.476562 3.015625 -1.25 C 3.359375 -1.03125 3.75 -0.921875 4.1875 -0.921875 C 4.675781 -0.921875 5.09375 -1.039062 5.4375 -1.28125 C 5.789062 -1.53125 6.050781 -1.863281 6.21875 -2.28125 L 7.421875 -2.28125 C 7.222656 -1.601562 6.851562 -1.035156 6.3125 -0.578125 C 5.769531 -0.128906 5.066406 0.09375 4.203125 0.09375 Z M 6.328125 -4.296875 C 6.285156 -5.140625 6.070312 -5.75 5.6875 -6.125 C 5.3125 -6.507812 4.816406 -6.703125 4.203125 -6.703125 C 3.535156 -6.703125 3.003906 -6.476562 2.609375 -6.03125 C 2.210938 -5.59375 2 -5.015625 1.96875 -4.296875 Z M 6.328125 -4.296875 "/></g></g></g><g fill="#020202" fill-opacity="1"><g transform="translate(39.395615, 15.973318)"><g><path d="M 2.96875 0.0625 C 2.414062 0.0625 2 -0.0234375 1.71875 -0.203125 C 1.445312 -0.390625 1.273438 -0.625 1.203125 -0.90625 C 1.140625 -1.195312 1.109375 -1.578125 1.109375 -2.046875 L 1.125 -10.625 L 2.34375 -10.625 L 2.34375 -2.21875 C 2.34375 -1.863281 2.359375 -1.597656 2.390625 -1.421875 C 2.421875 -1.242188 2.507812 -1.101562 2.65625 -1 C 2.800781 -0.894531 3.035156 -0.84375 3.359375 -0.84375 C 3.554688 -0.84375 3.734375 -0.859375 3.890625 -0.890625 L 3.890625 -0.015625 C 3.628906 0.0351562 3.320312 0.0625 2.96875 0.0625 Z M 2.96875 0.0625 "/></g></g></g><g fill="#020202" fill-opacity="1"><g transform="translate(43.848019, 15.973318)"><g/></g></g><g fill="#020202" fill-opacity="1"><g transform="translate(47.109345, 15.973318)"><g><path d="M 9.34375 0 L 7.9375 0 L 6.453125 -1.6875 L 6.375 -1.6875 L 6.296875 -1.5625 C 6.046875 -1.15625 5.691406 -0.773438 5.234375 -0.421875 C 4.773438 -0.078125 4.1875 0.09375 3.46875 0.09375 C 2.96875 0.09375 2.515625 -0.00390625 2.109375 -0.203125 C 1.703125 -0.410156 1.378906 -0.707031 1.140625 -1.09375 C 0.910156 -1.476562 0.796875 -1.9375 0.796875 -2.46875 C 0.796875 -3.113281 0.96875 -3.648438 1.3125 -4.078125 C 1.664062 -4.515625 2.144531 -4.847656 2.75 -5.078125 L 3.28125 -5.25 L 3.28125 -5.3125 L 3.21875 -5.390625 C 2.925781 -5.691406 2.671875 -6.023438 2.453125 -6.390625 C 2.242188 -6.753906 2.140625 -7.1875 2.140625 -7.6875 C 2.140625 -8.195312 2.265625 -8.632812 2.515625 -9 C 2.765625 -9.363281 3.09375 -9.640625 3.5 -9.828125 C 3.90625 -10.015625 4.34375 -10.109375 4.8125 -10.109375 C 5.3125 -10.109375 5.773438 -10.003906 6.203125 -9.796875 C 6.628906 -9.597656 6.972656 -9.296875 7.234375 -8.890625 C 7.492188 -8.492188 7.625 -8.007812 7.625 -7.4375 L 7.625 -7.140625 L 6.359375 -7.140625 L 6.359375 -7.375 C 6.359375 -7.894531 6.207031 -8.300781 5.90625 -8.59375 C 5.613281 -8.882812 5.25 -9.03125 4.8125 -9.03125 C 4.40625 -9.03125 4.054688 -8.910156 3.765625 -8.671875 C 3.484375 -8.429688 3.34375 -8.082031 3.34375 -7.625 C 3.34375 -7.363281 3.390625 -7.125 3.484375 -6.90625 C 3.578125 -6.6875 3.691406 -6.488281 3.828125 -6.3125 C 3.960938 -6.132812 4.1875 -5.878906 4.5 -5.546875 L 6.28125 -3.515625 L 7.21875 -5.15625 L 8.453125 -5.15625 L 6.984375 -2.6875 Z M 5.75 -2.5 L 3.921875 -4.5625 L 3.296875 -4.34375 C 2.867188 -4.195312 2.539062 -3.96875 2.3125 -3.65625 C 2.082031 -3.351562 1.96875 -3 1.96875 -2.59375 C 1.96875 -2.101562 2.117188 -1.710938 2.421875 -1.421875 C 2.734375 -1.128906 3.140625 -0.984375 3.640625 -0.984375 C 4.148438 -0.984375 4.554688 -1.113281 4.859375 -1.375 C 5.171875 -1.644531 5.4375 -1.96875 5.65625 -2.34375 Z M 5.75 -2.5 "/></g></g></g><g fill="#020202" fill-opacity="1"><g transform="translate(56.099238, 15.973318)"><g/></g></g><g fill="#020202" fill-opacity="1"><g transform="translate(59.360565, 15.973318)"><g><path d="M 7.6875 -8.8125 L 4.78125 -8.8125 L 4.78125 0 L 3.5625 0 L 3.5625 -8.8125 L 0.640625 -8.8125 L 0.640625 -9.921875 L 7.6875 -9.921875 Z M 7.6875 -8.8125 "/></g></g></g><g fill="#020202" fill-opacity="1"><g transform="translate(67.712385, 15.973318)"><g><path d="M 4.21875 0.09375 C 3.46875 0.09375 2.828125 -0.0820312 2.296875 -0.4375 C 1.773438 -0.800781 1.378906 -1.28125 1.109375 -1.875 C 0.847656 -2.46875 0.71875 -3.101562 0.71875 -3.78125 C 0.71875 -4.457031 0.847656 -5.09375 1.109375 -5.6875 C 1.378906 -6.28125 1.773438 -6.757812 2.296875 -7.125 C 2.828125 -7.488281 3.46875 -7.671875 4.21875 -7.671875 C 4.976562 -7.671875 5.617188 -7.488281 6.140625 -7.125 C 6.671875 -6.757812 7.0625 -6.28125 7.3125 -5.6875 C 7.570312 -5.09375 7.703125 -4.457031 7.703125 -3.78125 C 7.703125 -3.113281 7.570312 -2.476562 7.3125 -1.875 C 7.050781 -1.28125 6.65625 -0.800781 6.125 -0.4375 C 5.601562 -0.0820312 4.96875 0.09375 4.21875 0.09375 Z M 4.21875 -0.953125 C 4.6875 -0.953125 5.09375 -1.078125 5.4375 -1.328125 C 5.78125 -1.585938 6.039062 -1.929688 6.21875 -2.359375 C 6.394531 -2.785156 6.484375 -3.265625 6.484375 -3.796875 C 6.484375 -4.609375 6.28125 -5.28125 5.875 -5.8125 C 5.46875 -6.351562 4.914062 -6.625 4.21875 -6.625 C 3.75 -6.625 3.34375 -6.492188 3 -6.234375 C 2.65625 -5.984375 2.390625 -5.644531 2.203125 -5.21875 C 2.023438 -4.789062 1.9375 -4.316406 1.9375 -3.796875 C 1.9375 -2.984375 2.140625 -2.304688 2.546875 -1.765625 C 2.953125 -1.222656 3.507812 -0.953125 4.21875 -0.953125 Z M 4.21875 -0.953125 "/></g></g></g><g fill="#020202" fill-opacity="1"><g transform="translate(76.149273, 15.973318)"><g><path d="M 7.5625 0 L 6.328125 0 L 6.328125 -1.421875 L 6.25 -1.421875 C 6.050781 -0.984375 5.742188 -0.613281 5.328125 -0.3125 C 4.921875 -0.0195312 4.421875 0.125 3.828125 0.125 C 3.203125 0.125 2.679688 -0.0234375 2.265625 -0.328125 C 1.847656 -0.628906 1.539062 -1.019531 1.34375 -1.5 C 1.15625 -1.976562 1.0625 -2.503906 1.0625 -3.078125 L 1.0625 -7.46875 L 2.28125 -7.46875 L 2.28125 -3.234375 C 2.28125 -2.503906 2.460938 -1.941406 2.828125 -1.546875 C 3.203125 -1.160156 3.6875 -0.96875 4.28125 -0.96875 C 4.90625 -0.96875 5.398438 -1.175781 5.765625 -1.59375 C 6.140625 -2.007812 6.328125 -2.554688 6.328125 -3.234375 L 6.328125 -7.46875 L 7.5625 -7.46875 Z M 7.5625 0 "/></g></g></g><g fill="#020202" fill-opacity="1"><g transform="translate(84.685417, 15.973318)"><g><path d="M 1 -7.46875 L 2.21875 -7.46875 L 2.21875 -6.28125 L 2.3125 -6.28125 C 2.4375 -6.613281 2.65625 -6.894531 2.96875 -7.125 C 3.28125 -7.351562 3.679688 -7.46875 4.171875 -7.46875 C 4.316406 -7.46875 4.429688 -7.457031 4.515625 -7.4375 C 4.609375 -7.425781 4.710938 -7.40625 4.828125 -7.375 L 4.796875 -6.171875 C 4.640625 -6.222656 4.503906 -6.257812 4.390625 -6.28125 C 4.285156 -6.300781 4.148438 -6.3125 3.984375 -6.3125 C 2.804688 -6.3125 2.21875 -5.613281 2.21875 -4.21875 L 2.21875 0 L 1 0 Z M 1 -7.46875 "/></g></g></g><g fill="#020202" fill-opacity="1"><g transform="translate(89.690826, 15.973318)"><g><path d="M 1.15625 -7.46875 L 2.375 -7.46875 L 2.375 0 L 1.15625 0 Z M 1.765625 -8.859375 C 1.535156 -8.859375 1.34375 -8.9375 1.1875 -9.09375 C 1.039062 -9.25 0.96875 -9.4375 0.96875 -9.65625 C 0.96875 -9.875 1.039062 -10.054688 1.1875 -10.203125 C 1.34375 -10.359375 1.535156 -10.4375 1.765625 -10.4375 C 1.984375 -10.4375 2.171875 -10.359375 2.328125 -10.203125 C 2.484375 -10.054688 2.5625 -9.875 2.5625 -9.65625 C 2.5625 -9.4375 2.484375 -9.25 2.328125 -9.09375 C 2.171875 -8.9375 1.984375 -8.859375 1.765625 -8.859375 Z M 1.765625 -8.859375 "/></g></g></g><g fill="#020202" fill-opacity="1"><g transform="translate(93.235732, 15.973318)"><g><path d="M 3.609375 0.09375 C 3.003906 0.09375 2.476562 -0.0234375 2.03125 -0.265625 C 1.59375 -0.503906 1.257812 -0.8125 1.03125 -1.1875 C 0.800781 -1.5625 0.6875 -1.957031 0.6875 -2.375 L 0.6875 -2.453125 L 1.90625 -2.453125 L 1.90625 -2.390625 C 1.90625 -2.160156 1.96875 -1.925781 2.09375 -1.6875 C 2.226562 -1.457031 2.425781 -1.269531 2.6875 -1.125 C 2.957031 -0.976562 3.28125 -0.90625 3.65625 -0.90625 C 4.113281 -0.90625 4.488281 -1.015625 4.78125 -1.234375 C 5.082031 -1.460938 5.234375 -1.769531 5.234375 -2.15625 C 5.234375 -2.476562 5.113281 -2.734375 4.875 -2.921875 C 4.644531 -3.109375 4.359375 -3.226562 4.015625 -3.28125 L 3.03125 -3.421875 C 2.414062 -3.523438 1.898438 -3.738281 1.484375 -4.0625 C 1.066406 -4.382812 0.859375 -4.859375 0.859375 -5.484375 C 0.859375 -6.171875 1.109375 -6.707031 1.609375 -7.09375 C 2.109375 -7.476562 2.742188 -7.671875 3.515625 -7.671875 C 4.085938 -7.671875 4.578125 -7.5625 4.984375 -7.34375 C 5.398438 -7.132812 5.71875 -6.859375 5.9375 -6.515625 C 6.15625 -6.171875 6.265625 -5.796875 6.265625 -5.390625 L 6.265625 -5.328125 L 5.046875 -5.328125 L 5.046875 -5.359375 C 5.046875 -5.546875 4.992188 -5.742188 4.890625 -5.953125 C 4.796875 -6.160156 4.628906 -6.335938 4.390625 -6.484375 C 4.148438 -6.640625 3.847656 -6.71875 3.484375 -6.71875 C 3.035156 -6.71875 2.671875 -6.601562 2.390625 -6.375 C 2.117188 -6.15625 1.984375 -5.867188 1.984375 -5.515625 C 1.984375 -5.222656 2.09375 -4.976562 2.3125 -4.78125 C 2.53125 -4.59375 2.800781 -4.472656 3.125 -4.421875 L 4.1875 -4.25 C 4.8125 -4.144531 5.335938 -3.929688 5.765625 -3.609375 C 6.191406 -3.285156 6.40625 -2.804688 6.40625 -2.171875 C 6.40625 -1.710938 6.285156 -1.3125 6.046875 -0.96875 C 5.804688 -0.632812 5.472656 -0.375 5.046875 -0.1875 C 4.617188 0 4.140625 0.09375 3.609375 0.09375 Z M 3.609375 0.09375 "/></g></g></g><g fill="#020202" fill-opacity="1"><g transform="translate(100.26884, 15.973318)"><g><path d="M 1.0625 -7.46875 L 2.265625 -7.46875 L 2.265625 -6.09375 L 2.375 -6.09375 C 2.394531 -6.1875 2.488281 -6.359375 2.65625 -6.609375 C 2.832031 -6.859375 3.09375 -7.097656 3.4375 -7.328125 C 3.789062 -7.554688 4.226562 -7.671875 4.75 -7.671875 C 5.289062 -7.671875 5.742188 -7.539062 6.109375 -7.28125 C 6.472656 -7.03125 6.742188 -6.753906 6.921875 -6.453125 C 7.109375 -6.160156 7.203125 -5.976562 7.203125 -5.90625 L 7.3125 -5.90625 C 7.445312 -6.238281 7.707031 -6.613281 8.09375 -7.03125 C 8.488281 -7.457031 9.09375 -7.671875 9.90625 -7.671875 C 10.507812 -7.671875 11.015625 -7.515625 11.421875 -7.203125 C 11.828125 -6.898438 12.125 -6.503906 12.3125 -6.015625 C 12.507812 -5.535156 12.609375 -5.023438 12.609375 -4.484375 L 12.609375 0 L 11.40625 0 L 11.40625 -4.359375 C 11.40625 -5.078125 11.21875 -5.617188 10.84375 -5.984375 C 10.46875 -6.359375 10.007812 -6.546875 9.46875 -6.546875 C 8.894531 -6.546875 8.410156 -6.351562 8.015625 -5.96875 C 7.628906 -5.59375 7.4375 -5.054688 7.4375 -4.359375 L 7.4375 0 L 6.234375 0 L 6.234375 -4.359375 C 6.234375 -5.078125 6.046875 -5.617188 5.671875 -5.984375 C 5.296875 -6.359375 4.835938 -6.546875 4.296875 -6.546875 C 3.722656 -6.546875 3.238281 -6.351562 2.84375 -5.96875 C 2.457031 -5.59375 2.265625 -5.054688 2.265625 -4.359375 L 2.265625 0 L 1.0625 0 Z M 1.0625 -7.46875 "/></g></g></g></g></g><g clip-path="url(#ffc5631ccc)"><path fill="#000000" d="M 259.09375 116.335938 L 266.28125 121.980469 C 259.472656 121.640625 254.097656 124.09375 250.207031 126.964844 C 246.4375 129.75 243.425781 133.425781 241.375 137.636719 L 213.164062 195.464844 C 207.261719 207.5625 194.972656 215.214844 181.5 215.214844 L 163.886719 215.214844 L 206.671875 128.238281 C 207.796875 125.945312 209.136719 123.867188 210.652344 121.957031 C 204.101562 121.773438 198.910156 124.171875 195.121094 126.960938 C 191.351562 129.746094 188.34375 133.425781 186.292969 137.636719 L 158.082031 195.460938 C 152.179688 207.558594 139.886719 215.210938 126.417969 215.210938 L 108.804688 215.210938 L 151.585938 128.242188 C 161.289062 108.515625 186.71875 102.75 204.011719 116.335938 L 210.851562 121.710938 C 222.421875 107.421875 243.898438 104.402344 259.09375 116.335938 Z M 236.675781 178.296875 L 218.058594 215.238281 L 266.292969 215.25 L 246.988281 178.222656 C 244.808594 174.042969 238.800781 174.085938 236.675781 178.296875 Z M 236.675781 178.296875 " fill-opacity="1" fill-rule="nonzero"/></g></svg>