<svg xmlns="http://www.w3.org/2000/svg" xmlns:xlink="http://www.w3.org/1999/xlink" width="500" zoomAndPan="magnify" viewBox="0 0 375 374.999991" height="500" preserveAspectRatio="xMidYMid meet" version="1.0"><defs><g/><clipPath id="8241820589"><path d="M 57.570312 106.121094 L 207.570312 106.121094 L 207.570312 208.871094 L 57.570312 208.871094 Z M 57.570312 106.121094 " clip-rule="nonzero"/></clipPath><clipPath id="7dc6e4e855"><path d="M 0.570312 20 L 150.570312 20 L 150.570312 91 L 0.570312 91 Z M 0.570312 20 " clip-rule="nonzero"/></clipPath><clipPath id="4f53225519"><path d="M 21 79 L 34 79 L 34 102.496094 L 21 102.496094 Z M 21 79 " clip-rule="nonzero"/></clipPath><clipPath id="f9a1302153"><path d="M 92 0.121094 L 104 0.121094 L 104 21 L 92 21 Z M 92 0.121094 " clip-rule="nonzero"/></clipPath><clipPath id="384bf8ee3f"><rect x="0" width="151" y="0" height="103"/></clipPath><clipPath id="9f0841b859"><path d="M 231.898438 179.820312 L 246.148438 179.820312 L 246.148438 201.570312 L 231.898438 201.570312 Z M 231.898438 179.820312 " clip-rule="nonzero"/></clipPath></defs><g clip-path="url(#8241820589)"><g transform="matrix(1, 0, 0, 1, 57, 106)"><g clip-path="url(#384bf8ee3f)"><g clip-path="url(#7dc6e4e855)"><path fill="#7c1531" d="M 75.574219 82.203125 C 56.59375 88.054688 39.261719 90.925781 26.054688 90.925781 C 19.128906 90.925781 13.335938 90.132812 9.03125 88.570312 C 4.710938 86.992188 1.886719 84.636719 0.921875 81.507812 C 0.679688 80.714844 0.554688 79.878906 0.554688 78.992188 C 0.554688 71.722656 8.953125 62.558594 22.539062 53.621094 C 36.09375 44.695312 54.828125 35.992188 75.515625 29.613281 C 94.496094 23.761719 111.832031 20.890625 125.035156 20.890625 C 131.960938 20.890625 137.753906 21.683594 142.058594 23.246094 C 146.378906 24.820312 149.203125 27.179688 150.171875 30.308594 C 150.410156 31.101562 150.535156 31.9375 150.535156 32.824219 C 150.535156 40.09375 142.132812 49.257812 128.554688 58.191406 C 114.996094 67.117188 96.261719 75.828125 75.574219 82.203125 Z M 26.054688 90.722656 C 39.242188 90.722656 56.558594 87.847656 75.515625 82.003906 C 96.1875 75.632812 114.898438 66.933594 128.441406 58.023438 C 141.964844 49.125 150.332031 40.023438 150.332031 32.824219 C 150.332031 31.957031 150.207031 31.140625 149.972656 30.371094 C 149.027344 27.308594 146.25 24.992188 141.988281 23.441406 C 137.710938 21.882812 131.9375 21.097656 125.035156 21.097656 C 111.847656 21.097656 94.535156 23.96875 75.574219 29.8125 C 54.90625 36.183594 36.191406 44.882812 22.644531 53.792969 C 9.125 62.691406 0.761719 71.792969 0.761719 78.992188 C 0.761719 79.855469 0.878906 80.675781 1.117188 81.449219 C 2.0625 84.507812 4.84375 86.824219 9.101562 88.375 C 13.382812 89.933594 19.152344 90.722656 26.054688 90.722656 " fill-opacity="1" fill-rule="nonzero"/></g><g clip-path="url(#4f53225519)"><path fill="#7c1531" d="M 27.601562 102.070312 L 27.515625 102.070312 C 27.515625 91.488281 26.632812 90.730469 21.683594 90.777344 L 21.683594 90.601562 C 26.632812 90.550781 27.515625 89.773438 27.515625 79.195312 L 27.558594 79.191406 L 27.601562 79.191406 C 27.601562 89.773438 28.484375 90.535156 33.433594 90.488281 L 33.433594 90.664062 C 28.484375 90.714844 27.601562 91.488281 27.601562 102.070312 " fill-opacity="1" fill-rule="evenodd"/></g><path fill="#7c1531" d="M 110.96875 44.171875 L 110.898438 44.175781 L 110.832031 44.175781 C 110.832031 28.320312 109.511719 27.179688 102.09375 27.25 L 102.09375 26.984375 C 109.511719 26.917969 110.832031 25.753906 110.832031 9.894531 L 110.96875 9.894531 C 110.96875 25.75 112.289062 26.890625 119.703125 26.816406 L 119.703125 27.082031 C 112.289062 27.15625 110.96875 28.320312 110.96875 44.171875 " fill-opacity="1" fill-rule="evenodd"/><g clip-path="url(#f9a1302153)"><path fill="#7c1531" d="M 98.238281 20.882812 L 98.15625 20.882812 C 98.15625 11.414062 97.367188 10.734375 92.9375 10.777344 L 92.9375 10.621094 C 97.367188 10.578125 98.15625 9.878906 98.15625 0.410156 L 98.238281 0.410156 C 98.238281 9.878906 99.027344 10.558594 103.457031 10.515625 L 103.457031 10.675781 C 99.027344 10.71875 98.238281 11.414062 98.238281 20.882812 " fill-opacity="1" fill-rule="evenodd"/></g><path fill="#7c1531" d="M 75.574219 81.148438 C 57.355469 86.765625 40.714844 89.519531 28.042969 89.519531 C 21.394531 89.519531 15.832031 88.761719 11.699219 87.261719 C 7.550781 85.75 4.839844 83.484375 3.914062 80.480469 C 3.679688 79.722656 3.5625 78.917969 3.5625 78.0625 C 3.5625 71.089844 11.625 62.292969 24.660156 53.710938 C 37.675781 45.148438 55.660156 36.789062 75.515625 30.667969 C 93.734375 25.050781 110.375 22.296875 123.054688 22.296875 C 129.699219 22.296875 135.257812 23.050781 139.390625 24.554688 C 143.539062 26.066406 146.25 28.332031 147.175781 31.335938 C 147.410156 32.09375 147.53125 32.898438 147.53125 33.75 C 147.53125 40.726562 139.464844 49.523438 126.429688 58.105469 C 113.414062 66.667969 95.433594 75.027344 75.574219 81.148438 Z M 28.042969 89.324219 C 40.695312 89.324219 57.316406 86.566406 75.515625 80.957031 C 95.355469 74.84375 113.320312 66.496094 126.320312 57.9375 C 139.300781 49.394531 147.332031 40.660156 147.332031 33.75 C 147.332031 32.917969 147.214844 32.132812 146.988281 31.394531 C 146.078125 28.453125 143.410156 26.230469 139.324219 24.742188 C 135.214844 23.246094 129.679688 22.492188 123.054688 22.492188 C 110.390625 22.492188 93.777344 25.25 75.574219 30.859375 C 55.730469 36.972656 37.769531 45.320312 24.769531 53.875 C 11.789062 62.421875 3.757812 71.15625 3.757812 78.0625 C 3.757812 78.898438 3.875 79.683594 4.105469 80.425781 C 5.011719 83.363281 7.679688 85.582031 11.765625 87.074219 C 15.875 88.570312 21.414062 89.324219 28.042969 89.324219 " fill-opacity="1" fill-rule="nonzero"/></g></g></g><g fill="#fffdf8" fill-opacity="1"><g transform="translate(102.89274, 209.359073)"><g><path d="M 6.15625 7.480469 L -9.484375 7.480469 L 13.53125 -56.839844 L 20.578125 -54.320312 L 13.746094 -51.269531 L 7.84375 -64.480469 L 29.25 -64.480469 L 61.347656 7.480469 L 39.957031 7.480469 L 33.8125 -6.234375 C 33.523438 -6.894531 33.078125 -7.507812 32.488281 -8.066406 C 31.660156 -8.847656 30.714844 -9.515625 29.652344 -10.070312 C 28.492188 -10.675781 27.304688 -11.136719 26.078125 -11.449219 C 24.902344 -11.75 23.828125 -11.898438 22.855469 -11.898438 C 21.816406 -11.898438 20.789062 -11.734375 19.765625 -11.40625 C 18.757812 -11.078125 17.738281 -10.542969 16.710938 -9.796875 C 16.960938 -9.980469 17.128906 -10.128906 17.214844 -10.230469 C 17.152344 -10.15625 17.066406 -10.023438 16.953125 -9.832031 C 16.652344 -9.3125 16.453125 -8.890625 16.359375 -8.5625 L 11.8125 7.480469 Z M 6.15625 -7.480469 L 6.15625 0 L -1.042969 -2.039062 L 1.996094 -12.753906 C 2.429688 -14.25 3.105469 -15.785156 4.023438 -17.355469 C 5.136719 -19.277344 6.433594 -20.789062 7.910156 -21.894531 C 10.226562 -23.582031 12.648438 -24.832031 15.171875 -25.644531 C 17.6875 -26.457031 20.25 -26.859375 22.855469 -26.859375 C 25.078125 -26.859375 27.386719 -26.554688 29.78125 -25.945312 C 32.128906 -25.34375 34.394531 -24.472656 36.582031 -23.332031 C 38.863281 -22.136719 40.921875 -20.679688 42.753906 -18.953125 C 44.820312 -17.003906 46.390625 -14.800781 47.46875 -12.347656 L 51.628906 -3.058594 L 44.800781 0 L 44.800781 -7.480469 L 49.816406 -7.480469 L 49.816406 0 L 42.984375 3.046875 L 17.5625 -53.953125 L 24.394531 -57 L 24.394531 -49.519531 L 19.378906 -49.519531 L 19.378906 -57 L 26.210938 -60.050781 L 28.632812 -54.628906 L 8.183594 2.519531 L 1.140625 0 L 1.140625 -7.480469 Z M 19.609375 -19.726562 C 19.632812 -19.816406 19.65625 -19.941406 19.671875 -20.105469 C 19.734375 -20.644531 19.707031 -21.214844 19.597656 -21.8125 C 19.320312 -23.300781 18.613281 -24.578125 17.476562 -25.636719 C 16.75 -26.316406 15.914062 -26.820312 14.976562 -27.148438 C 14.21875 -27.414062 13.445312 -27.546875 12.652344 -27.546875 C 11.890625 -27.546875 11.199219 -27.433594 10.582031 -27.207031 C 10.523438 -27.1875 10.480469 -27.171875 10.449219 -27.15625 C 10.472656 -27.167969 10.511719 -27.1875 10.5625 -27.210938 L 13.90625 -20.519531 L 10.21875 -27.027344 C 11.984375 -28.027344 13.820312 -28.75 15.734375 -29.199219 C 17.511719 -29.617188 19.316406 -29.824219 21.148438 -29.824219 C 24.882812 -29.824219 28.535156 -29.046875 32.109375 -27.496094 C 35.375 -26.074219 38.359375 -24.25 41.070312 -22.015625 C 41.078125 -22.007812 41.082031 -22.003906 41.085938 -22.003906 C 41.066406 -22.015625 41.042969 -22.035156 41.011719 -22.054688 C 40.832031 -22.179688 40.621094 -22.300781 40.382812 -22.417969 C 39.714844 -22.746094 38.992188 -22.953125 38.214844 -23.042969 C 37.433594 -23.132812 36.652344 -23.09375 35.875 -22.925781 C 34.796875 -22.691406 33.816406 -22.234375 32.941406 -21.550781 C 32.078125 -20.882812 31.402344 -20.058594 30.910156 -19.085938 C 30.558594 -18.390625 30.328125 -17.660156 30.214844 -16.898438 C 30.101562 -16.132812 30.113281 -15.390625 30.25 -14.675781 C 30.300781 -14.414062 30.363281 -14.183594 30.433594 -13.976562 C 30.445312 -13.941406 30.457031 -13.914062 30.464844 -13.890625 C 30.464844 -13.894531 30.460938 -13.902344 30.457031 -13.914062 L 15.742188 -46.882812 C 15.867188 -46.585938 16.121094 -46.226562 16.496094 -45.808594 C 16.984375 -45.273438 17.558594 -44.824219 18.222656 -44.46875 C 19.238281 -43.921875 20.328125 -43.648438 21.488281 -43.648438 C 22.835938 -43.648438 24.074219 -44.003906 25.207031 -44.71875 C 25.890625 -45.152344 26.46875 -45.679688 26.933594 -46.296875 C 27.246094 -46.71875 27.457031 -47.082031 27.558594 -47.394531 L 20.464844 -49.761719 L 27.652344 -47.695312 L 19.558594 -19.535156 L 12.367188 -21.601562 Z M 5.152344 -23.574219 L 13.316406 -51.976562 L 13.367188 -52.125 C 13.773438 -53.351562 14.304688 -54.398438 14.960938 -55.277344 C 15.597656 -56.125 16.351562 -56.820312 17.214844 -57.367188 C 18.527344 -58.195312 19.949219 -58.609375 21.488281 -58.609375 C 22.839844 -58.609375 24.117188 -58.289062 25.316406 -57.640625 C 26.167969 -57.183594 26.925781 -56.585938 27.59375 -55.847656 C 28.332031 -55.03125 28.933594 -54.078125 29.402344 -52.980469 L 44.101562 -20.054688 C 44.511719 -19.140625 44.792969 -18.285156 44.945312 -17.488281 C 45.125 -16.546875 45.148438 -15.621094 45.015625 -14.714844 C 44.890625 -13.875 44.640625 -13.082031 44.261719 -12.335938 C 43.746094 -11.308594 43.03125 -10.445312 42.128906 -9.742188 C 41.210938 -9.027344 40.179688 -8.546875 39.042969 -8.300781 C 38.207031 -8.121094 37.363281 -8.078125 36.507812 -8.175781 C 35.585938 -8.28125 34.6875 -8.546875 33.816406 -8.972656 C 33.085938 -9.332031 32.328125 -9.832031 31.550781 -10.472656 C 29.925781 -11.8125 28.121094 -12.914062 26.144531 -13.773438 C 24.472656 -14.5 22.808594 -14.863281 21.148438 -14.863281 C 20.46875 -14.863281 19.804688 -14.785156 19.148438 -14.632812 C 18.628906 -14.511719 18.113281 -14.304688 17.597656 -14.011719 L 17.425781 -13.914062 L 17.253906 -13.828125 C 16.691406 -13.546875 16.171875 -13.320312 15.695312 -13.148438 C 14.660156 -12.769531 13.648438 -12.582031 12.652344 -12.582031 C 11.746094 -12.582031 10.871094 -12.730469 10.023438 -13.027344 C 8.992188 -13.390625 8.078125 -13.941406 7.28125 -14.683594 C 6.007812 -15.871094 5.207031 -17.339844 4.882812 -19.085938 C 4.636719 -20.429688 4.714844 -21.894531 5.128906 -23.480469 Z M 5.152344 -23.574219 "/></g></g></g><g fill="#fffdf8" fill-opacity="1"><g transform="translate(152.311724, 209.359073)"><g><path d="M -3.492188 -64.480469 L 16.03125 -64.480469 L 16.03125 7.480469 L -3.492188 7.480469 Z M -3.492188 -64.480469 "/></g></g></g><g fill="#fffdf8" fill-opacity="1"><g transform="translate(164.281728, 209.359073)"><g><path d="M -3.492188 -64.480469 L 16.03125 -64.480469 L 16.03125 7.480469 L -3.492188 7.480469 Z M -3.492188 -64.480469 "/></g></g></g><g fill="#fffdf8" fill-opacity="1"><g transform="translate(176.251733, 209.359073)"><g><path d="M -4.460938 -9.121094 C -4.460938 -13.207031 -3.53125 -16.742188 -1.675781 -19.71875 C 0.0429688 -22.472656 2.296875 -24.714844 5.085938 -26.449219 C 7.4375 -27.90625 9.992188 -29.0625 12.75 -29.917969 C 15.152344 -30.664062 17.5625 -31.269531 19.972656 -31.738281 C 22.035156 -32.140625 23.925781 -32.539062 25.644531 -32.9375 C 26.773438 -33.199219 27.582031 -33.464844 28.078125 -33.738281 C 27.574219 -33.460938 27.125 -33.03125 26.730469 -32.441406 C 26.152344 -31.585938 25.863281 -30.652344 25.863281 -29.640625 C 25.863281 -30.144531 25.828125 -30.539062 25.753906 -30.832031 C 25.742188 -30.878906 25.734375 -30.910156 25.726562 -30.921875 C 25.75 -30.875 25.78125 -30.820312 25.824219 -30.757812 C 25.679688 -30.96875 25.558594 -31.097656 25.460938 -31.144531 C 24.832031 -31.449219 24.226562 -31.648438 23.644531 -31.742188 C 22.726562 -31.890625 22.0625 -31.960938 21.660156 -31.960938 C 21.03125 -31.960938 20.511719 -31.925781 20.109375 -31.847656 C 19.996094 -31.824219 19.90625 -31.804688 19.839844 -31.78125 L 19.832031 -31.78125 C 19.855469 -31.789062 19.878906 -31.800781 19.910156 -31.816406 C 19.726562 -31.71875 19.585938 -31.632812 19.480469 -31.546875 C 19.460938 -31.53125 19.445312 -31.515625 19.433594 -31.503906 C 19.4375 -31.507812 19.445312 -31.515625 19.449219 -31.527344 C 19.027344 -30.957031 18.695312 -30.417969 18.453125 -29.902344 C 17.746094 -28.402344 16.945312 -27.089844 16.042969 -25.964844 C 15.042969 -24.710938 13.824219 -23.753906 12.390625 -23.09375 C 11.039062 -22.46875 9.585938 -22.160156 8.035156 -22.160156 C 6.574219 -22.160156 5.203125 -22.480469 3.921875 -23.121094 C 2.640625 -23.761719 1.5625 -24.664062 0.683594 -25.835938 C -0.65625 -27.621094 -1.324219 -29.667969 -1.324219 -31.976562 C -1.324219 -34.964844 -0.308594 -37.675781 1.726562 -40.109375 C 3.199219 -41.867188 5.042969 -43.363281 7.261719 -44.589844 C 9.207031 -45.667969 11.328125 -46.515625 13.632812 -47.128906 C 15.976562 -47.753906 18.289062 -48.066406 20.578125 -48.066406 C 25.460938 -48.066406 29.71875 -47.171875 33.34375 -45.386719 C 37.191406 -43.488281 40.15625 -40.890625 42.238281 -37.59375 C 44.335938 -34.265625 45.386719 -30.644531 45.386719 -26.734375 L 45.386719 7.480469 L 25.863281 7.480469 L 25.863281 -5.128906 C 25.863281 -4.957031 25.882812 -4.757812 25.921875 -4.527344 C 26.019531 -3.960938 26.214844 -3.398438 26.503906 -2.839844 C 27.050781 -1.789062 27.832031 -0.933594 28.851562 -0.28125 C 29.984375 0.449219 31.214844 0.8125 32.546875 0.8125 C 33.46875 0.8125 34.332031 0.621094 35.132812 0.238281 C 35.585938 0.0195312 35.972656 -0.234375 36.292969 -0.527344 L 36.167969 -0.414062 L 36.039062 -0.308594 C 34.425781 1.046875 32.675781 2.347656 30.796875 3.601562 C 28.679688 5.015625 26.4375 6.171875 24.070312 7.074219 C 21.367188 8.105469 18.550781 8.621094 15.617188 8.621094 C 12.019531 8.621094 8.773438 7.957031 5.878906 6.625 C 2.703125 5.164062 0.203125 3.074219 -1.625 0.347656 C -3.515625 -2.46875 -4.460938 -5.625 -4.460938 -9.121094 Z M 10.503906 -9.121094 C 10.503906 -8.660156 10.601562 -8.285156 10.800781 -7.984375 C 11.066406 -7.59375 11.507812 -7.253906 12.132812 -6.96875 C 13.039062 -6.550781 14.203125 -6.339844 15.617188 -6.339844 C 16.714844 -6.339844 17.753906 -6.527344 18.738281 -6.90625 C 20.058594 -7.40625 21.308594 -8.054688 22.496094 -8.847656 C 23.921875 -9.796875 25.234375 -10.773438 26.429688 -11.777344 L 31.234375 -6.042969 L 26.179688 -11.558594 C 26.957031 -12.269531 27.789062 -12.835938 28.679688 -13.261719 C 29.917969 -13.855469 31.207031 -14.148438 32.546875 -14.148438 C 34.144531 -14.148438 35.609375 -13.722656 36.941406 -12.867188 C 38.160156 -12.082031 39.109375 -11.035156 39.785156 -9.726562 C 40.480469 -8.390625 40.828125 -6.859375 40.828125 -5.128906 L 40.828125 0 L 33.34375 0 L 33.34375 -7.480469 L 37.90625 -7.480469 L 37.90625 0 L 30.421875 0 L 30.421875 -26.734375 C 30.421875 -27.761719 30.144531 -28.722656 29.582031 -29.609375 C 29.003906 -30.527344 28.054688 -31.3125 26.734375 -31.964844 C 25.191406 -32.722656 23.140625 -33.101562 20.578125 -33.101562 C 19.597656 -33.101562 18.566406 -32.957031 17.488281 -32.671875 C 16.371094 -32.375 15.378906 -31.984375 14.511719 -31.503906 C 13.917969 -31.175781 13.484375 -30.84375 13.207031 -30.511719 C 13.289062 -30.609375 13.367188 -30.757812 13.445312 -30.957031 C 13.574219 -31.28125 13.636719 -31.621094 13.636719 -31.976562 C 13.636719 -32.992188 13.308594 -33.9375 12.652344 -34.8125 C 12.117188 -35.527344 11.4375 -36.089844 10.613281 -36.503906 C 9.789062 -36.914062 8.929688 -37.121094 8.035156 -37.121094 C 7.398438 -37.121094 6.765625 -36.976562 6.132812 -36.683594 C 5.421875 -36.359375 4.832031 -35.898438 4.359375 -35.3125 C 4.527344 -35.515625 4.710938 -35.835938 4.914062 -36.273438 C 5.585938 -37.695312 6.429688 -39.09375 7.453125 -40.464844 C 8.855469 -42.347656 10.699219 -43.886719 12.980469 -45.078125 C 15.339844 -46.308594 18.230469 -46.925781 21.660156 -46.925781 C 22.851562 -46.925781 24.300781 -46.789062 26 -46.519531 C 28.039062 -46.191406 30.039062 -45.554688 31.996094 -44.605469 C 34.480469 -43.398438 36.546875 -41.589844 38.1875 -39.179688 C 39.945312 -36.601562 40.828125 -33.417969 40.828125 -29.640625 C 40.828125 -27.601562 40.261719 -25.746094 39.132812 -24.074219 C 38.1875 -22.667969 36.910156 -21.523438 35.304688 -20.636719 C 33.597656 -19.695312 31.5 -18.9375 29.019531 -18.363281 C 27.128906 -17.921875 25.066406 -17.488281 22.832031 -17.050781 C 20.949219 -16.6875 19.066406 -16.210938 17.175781 -15.625 C 15.640625 -15.148438 14.242188 -14.519531 12.980469 -13.738281 C 12.164062 -13.230469 11.507812 -12.582031 11.023438 -11.800781 C 10.675781 -11.246094 10.503906 -10.351562 10.503906 -9.121094 Z M 22.089844 -15.941406 C 20.691406 -15.699219 19.457031 -15.230469 18.382812 -14.542969 C 17.4375 -13.933594 16.710938 -13.210938 16.207031 -12.375 C 15.824219 -11.742188 15.632812 -11 15.632812 -10.144531 C 15.632812 -9.753906 15.660156 -9.445312 15.722656 -9.222656 C 15.730469 -9.1875 15.738281 -9.164062 15.742188 -9.15625 C 15.730469 -9.179688 15.714844 -9.210938 15.6875 -9.246094 C 15.800781 -9.085938 15.9375 -8.96875 16.101562 -8.894531 C 16.605469 -8.675781 17.125 -8.5625 17.671875 -8.5625 C 18.660156 -8.5625 19.582031 -8.726562 20.441406 -9.050781 C 21.523438 -9.460938 22.523438 -10 23.445312 -10.667969 C 24.457031 -11.402344 25.308594 -12.167969 26.003906 -12.964844 L 26.082031 -13.054688 L 26.164062 -13.140625 C 26.007812 -12.972656 25.882812 -12.804688 25.792969 -12.640625 C 25.773438 -12.605469 25.757812 -12.574219 25.746094 -12.550781 C 25.75 -12.558594 25.757812 -12.574219 25.765625 -12.597656 C 25.832031 -12.804688 25.863281 -12.996094 25.863281 -13.167969 L 25.863281 -23.371094 C 25.863281 -22.820312 25.984375 -22.242188 26.226562 -21.640625 C 26.648438 -20.597656 27.328125 -19.738281 28.261719 -19.066406 C 29.136719 -18.433594 30.097656 -18.074219 31.136719 -17.984375 C 31.695312 -17.933594 32.195312 -17.96875 32.632812 -18.089844 C 30.957031 -17.617188 29.203125 -17.21875 27.363281 -16.890625 L 22.125 -15.949219 Z M 19.484375 -30.675781 L 24.734375 -31.617188 C 26.089844 -31.859375 27.410156 -32.164062 28.699219 -32.527344 C 29.972656 -32.875 31.21875 -32.996094 32.433594 -32.890625 C 34.128906 -32.742188 35.652344 -32.179688 37.003906 -31.207031 C 38.414062 -30.195312 39.445312 -28.871094 40.105469 -27.238281 C 40.585938 -26.042969 40.828125 -24.753906 40.828125 -23.371094 L 40.828125 -13.167969 C 40.828125 -11.4375 40.554688 -9.726562 40.015625 -8.035156 C 39.371094 -6.023438 38.398438 -4.320312 37.105469 -2.933594 L 31.636719 -8.035156 L 37.265625 -3.109375 C 35.832031 -1.472656 34.160156 0.0390625 32.246094 1.433594 C 30.238281 2.890625 28.066406 4.0625 25.730469 4.945312 C 23.167969 5.914062 20.480469 6.398438 17.671875 6.398438 C 15.023438 6.398438 12.484375 5.863281 10.058594 4.792969 C 7.300781 3.574219 5.0625 1.714844 3.347656 -0.785156 C 1.5625 -3.390625 0.667969 -6.511719 0.667969 -10.144531 C 0.667969 -13.777344 1.578125 -17.101562 3.402344 -20.113281 C 5.101562 -22.925781 7.394531 -25.265625 10.285156 -27.125 C 13.054688 -28.90625 16.132812 -30.089844 19.519531 -30.683594 Z M 19.484375 -30.675781 "/></g></g></g><g fill="#fffdf8" fill-opacity="1"><g transform="translate(217.576723, 209.359073)"><g><path d="M -3.492188 0 L -3.492188 -46.925781 L 16.03125 -46.925781 L 16.03125 -35.226562 C 16.03125 -35.285156 16.023438 -35.375 16.011719 -35.492188 C 15.964844 -35.878906 15.867188 -36.277344 15.71875 -36.691406 C 15.347656 -37.714844 14.75 -38.613281 13.921875 -39.378906 C 13.269531 -39.984375 12.53125 -40.449219 11.703125 -40.777344 C 10.851562 -41.113281 9.972656 -41.28125 9.0625 -41.28125 C 8.132812 -41.28125 7.253906 -41.109375 6.421875 -40.769531 C 6.09375 -40.632812 5.796875 -40.480469 5.53125 -40.3125 C 5.4375 -40.253906 5.359375 -40.199219 5.304688 -40.15625 C 5.316406 -40.167969 5.347656 -40.191406 5.390625 -40.230469 L 10.316406 -34.597656 L 5.128906 -39.988281 C 7.828125 -42.585938 10.75 -44.570312 13.890625 -45.933594 C 17.160156 -47.355469 20.792969 -48.066406 24.796875 -48.066406 C 28.886719 -48.066406 32.5625 -47.230469 35.820312 -45.558594 C 39.226562 -43.808594 41.914062 -41.363281 43.878906 -38.222656 C 45.871094 -35.03125 46.867188 -31.429688 46.867188 -27.417969 L 46.867188 7.480469 L 27.347656 7.480469 L 27.347656 -27.304688 C 27.347656 -28.671875 27.164062 -29.671875 26.800781 -30.300781 C 26.476562 -30.867188 26.09375 -31.269531 25.660156 -31.507812 C 25.101562 -31.8125 24.511719 -31.960938 23.882812 -31.960938 C 22.933594 -31.960938 21.988281 -31.777344 21.050781 -31.40625 C 19.984375 -30.984375 19.03125 -30.417969 18.191406 -29.707031 C 17.417969 -29.058594 16.816406 -28.34375 16.386719 -27.574219 C 16.148438 -27.15625 16.03125 -26.757812 16.03125 -26.390625 L 16.03125 7.480469 L -3.492188 7.480469 Z M 11.472656 0 L 3.988281 0 L 3.988281 -7.480469 L 8.550781 -7.480469 L 8.550781 0 L 1.070312 0 L 1.070312 -26.390625 C 1.070312 -29.367188 1.824219 -32.203125 3.335938 -34.894531 C 4.652344 -37.242188 6.386719 -39.324219 8.539062 -41.140625 C 10.625 -42.902344 12.960938 -44.296875 15.542969 -45.316406 C 18.253906 -46.390625 21.03125 -46.925781 23.882812 -46.925781 C 27.054688 -46.925781 30.035156 -46.164062 32.824219 -44.644531 C 35.730469 -43.058594 38.046875 -40.761719 39.773438 -37.753906 C 41.464844 -34.816406 42.308594 -31.332031 42.308594 -27.304688 L 42.308594 0 L 34.828125 0 L 34.828125 -7.480469 L 39.386719 -7.480469 L 39.386719 0 L 31.90625 0 L 31.90625 -27.417969 C 31.90625 -28.570312 31.667969 -29.527344 31.191406 -30.292969 C 30.683594 -31.101562 29.949219 -31.753906 28.988281 -32.246094 C 27.875 -32.816406 26.476562 -33.101562 24.796875 -33.101562 C 22.867188 -33.101562 21.21875 -32.804688 19.851562 -32.210938 C 18.359375 -31.5625 16.910156 -30.5625 15.507812 -29.210938 L 15.378906 -29.085938 L 15.242188 -28.96875 C 14.652344 -28.453125 14.09375 -28.027344 13.5625 -27.6875 C 12.128906 -26.777344 10.628906 -26.320312 9.0625 -26.320312 C 8.066406 -26.320312 7.105469 -26.503906 6.183594 -26.871094 C 5.28125 -27.226562 4.472656 -27.738281 3.753906 -28.402344 C 2.800781 -29.285156 2.09375 -30.359375 1.640625 -31.625 C 1.257812 -32.679688 1.070312 -33.878906 1.070312 -35.226562 L 1.070312 -39.445312 L 8.550781 -39.445312 L 8.550781 -31.960938 L 3.988281 -31.960938 L 3.988281 -39.445312 L 11.472656 -39.445312 Z M 11.472656 0 "/></g></g></g><g fill="#fffdf8" fill-opacity="1"><g transform="translate(260.383712, 209.359073)"><g><path d="M -4.460938 -9.121094 C -4.460938 -13.207031 -3.53125 -16.742188 -1.675781 -19.71875 C 0.0429688 -22.472656 2.296875 -24.714844 5.085938 -26.449219 C 7.4375 -27.90625 9.992188 -29.0625 12.75 -29.917969 C 15.152344 -30.664062 17.5625 -31.269531 19.972656 -31.738281 C 22.035156 -32.140625 23.925781 -32.539062 25.644531 -32.9375 C 26.773438 -33.199219 27.582031 -33.464844 28.078125 -33.738281 C 27.574219 -33.460938 27.125 -33.03125 26.730469 -32.441406 C 26.152344 -31.585938 25.863281 -30.652344 25.863281 -29.640625 C 25.863281 -30.144531 25.828125 -30.539062 25.753906 -30.832031 C 25.742188 -30.878906 25.734375 -30.910156 25.726562 -30.921875 C 25.75 -30.875 25.78125 -30.820312 25.824219 -30.757812 C 25.679688 -30.96875 25.558594 -31.097656 25.460938 -31.144531 C 24.832031 -31.449219 24.226562 -31.648438 23.644531 -31.742188 C 22.726562 -31.890625 22.0625 -31.960938 21.660156 -31.960938 C 21.03125 -31.960938 20.511719 -31.925781 20.109375 -31.847656 C 19.996094 -31.824219 19.90625 -31.804688 19.839844 -31.78125 L 19.832031 -31.78125 C 19.855469 -31.789062 19.878906 -31.800781 19.910156 -31.816406 C 19.726562 -31.71875 19.585938 -31.632812 19.480469 -31.546875 C 19.460938 -31.53125 19.445312 -31.515625 19.433594 -31.503906 C 19.4375 -31.507812 19.445312 -31.515625 19.449219 -31.527344 C 19.027344 -30.957031 18.695312 -30.417969 18.453125 -29.902344 C 17.746094 -28.402344 16.945312 -27.089844 16.042969 -25.964844 C 15.042969 -24.710938 13.824219 -23.753906 12.390625 -23.09375 C 11.039062 -22.46875 9.585938 -22.160156 8.035156 -22.160156 C 6.574219 -22.160156 5.203125 -22.480469 3.921875 -23.121094 C 2.640625 -23.761719 1.5625 -24.664062 0.683594 -25.835938 C -0.65625 -27.621094 -1.324219 -29.667969 -1.324219 -31.976562 C -1.324219 -34.964844 -0.308594 -37.675781 1.726562 -40.109375 C 3.199219 -41.867188 5.042969 -43.363281 7.261719 -44.589844 C 9.207031 -45.667969 11.328125 -46.515625 13.632812 -47.128906 C 15.976562 -47.753906 18.289062 -48.066406 20.578125 -48.066406 C 25.460938 -48.066406 29.71875 -47.171875 33.34375 -45.386719 C 37.191406 -43.488281 40.15625 -40.890625 42.238281 -37.59375 C 44.335938 -34.265625 45.386719 -30.644531 45.386719 -26.734375 L 45.386719 7.480469 L 25.863281 7.480469 L 25.863281 -5.128906 C 25.863281 -4.957031 25.882812 -4.757812 25.921875 -4.527344 C 26.019531 -3.960938 26.214844 -3.398438 26.503906 -2.839844 C 27.050781 -1.789062 27.832031 -0.933594 28.851562 -0.28125 C 29.984375 0.449219 31.214844 0.8125 32.546875 0.8125 C 33.46875 0.8125 34.332031 0.621094 35.132812 0.238281 C 35.585938 0.0195312 35.972656 -0.234375 36.292969 -0.527344 L 36.167969 -0.414062 L 36.039062 -0.308594 C 34.425781 1.046875 32.675781 2.347656 30.796875 3.601562 C 28.679688 5.015625 26.4375 6.171875 24.070312 7.074219 C 21.367188 8.105469 18.550781 8.621094 15.617188 8.621094 C 12.019531 8.621094 8.773438 7.957031 5.878906 6.625 C 2.703125 5.164062 0.203125 3.074219 -1.625 0.347656 C -3.515625 -2.46875 -4.460938 -5.625 -4.460938 -9.121094 Z M 10.503906 -9.121094 C 10.503906 -8.660156 10.601562 -8.285156 10.800781 -7.984375 C 11.066406 -7.59375 11.507812 -7.253906 12.132812 -6.96875 C 13.039062 -6.550781 14.203125 -6.339844 15.617188 -6.339844 C 16.714844 -6.339844 17.753906 -6.527344 18.738281 -6.90625 C 20.058594 -7.40625 21.308594 -8.054688 22.496094 -8.847656 C 23.921875 -9.796875 25.234375 -10.773438 26.429688 -11.777344 L 31.234375 -6.042969 L 26.179688 -11.558594 C 26.957031 -12.269531 27.789062 -12.835938 28.679688 -13.261719 C 29.917969 -13.855469 31.207031 -14.148438 32.546875 -14.148438 C 34.144531 -14.148438 35.609375 -13.722656 36.941406 -12.867188 C 38.160156 -12.082031 39.109375 -11.035156 39.785156 -9.726562 C 40.480469 -8.390625 40.828125 -6.859375 40.828125 -5.128906 L 40.828125 0 L 33.34375 0 L 33.34375 -7.480469 L 37.90625 -7.480469 L 37.90625 0 L 30.421875 0 L 30.421875 -26.734375 C 30.421875 -27.761719 30.144531 -28.722656 29.582031 -29.609375 C 29.003906 -30.527344 28.054688 -31.3125 26.734375 -31.964844 C 25.191406 -32.722656 23.140625 -33.101562 20.578125 -33.101562 C 19.597656 -33.101562 18.566406 -32.957031 17.488281 -32.671875 C 16.371094 -32.375 15.378906 -31.984375 14.511719 -31.503906 C 13.917969 -31.175781 13.484375 -30.84375 13.207031 -30.511719 C 13.289062 -30.609375 13.367188 -30.757812 13.445312 -30.957031 C 13.574219 -31.28125 13.636719 -31.621094 13.636719 -31.976562 C 13.636719 -32.992188 13.308594 -33.9375 12.652344 -34.8125 C 12.117188 -35.527344 11.4375 -36.089844 10.613281 -36.503906 C 9.789062 -36.914062 8.929688 -37.121094 8.035156 -37.121094 C 7.398438 -37.121094 6.765625 -36.976562 6.132812 -36.683594 C 5.421875 -36.359375 4.832031 -35.898438 4.359375 -35.3125 C 4.527344 -35.515625 4.710938 -35.835938 4.914062 -36.273438 C 5.585938 -37.695312 6.429688 -39.09375 7.453125 -40.464844 C 8.855469 -42.347656 10.699219 -43.886719 12.980469 -45.078125 C 15.339844 -46.308594 18.230469 -46.925781 21.660156 -46.925781 C 22.851562 -46.925781 24.300781 -46.789062 26 -46.519531 C 28.039062 -46.191406 30.039062 -45.554688 31.996094 -44.605469 C 34.480469 -43.398438 36.546875 -41.589844 38.1875 -39.179688 C 39.945312 -36.601562 40.828125 -33.417969 40.828125 -29.640625 C 40.828125 -27.601562 40.261719 -25.746094 39.132812 -24.074219 C 38.1875 -22.667969 36.910156 -21.523438 35.304688 -20.636719 C 33.597656 -19.695312 31.5 -18.9375 29.019531 -18.363281 C 27.128906 -17.921875 25.066406 -17.488281 22.832031 -17.050781 C 20.949219 -16.6875 19.066406 -16.210938 17.175781 -15.625 C 15.640625 -15.148438 14.242188 -14.519531 12.980469 -13.738281 C 12.164062 -13.230469 11.507812 -12.582031 11.023438 -11.800781 C 10.675781 -11.246094 10.503906 -10.351562 10.503906 -9.121094 Z M 22.089844 -15.941406 C 20.691406 -15.699219 19.457031 -15.230469 18.382812 -14.542969 C 17.4375 -13.933594 16.710938 -13.210938 16.207031 -12.375 C 15.824219 -11.742188 15.632812 -11 15.632812 -10.144531 C 15.632812 -9.753906 15.660156 -9.445312 15.722656 -9.222656 C 15.730469 -9.1875 15.738281 -9.164062 15.742188 -9.15625 C 15.730469 -9.179688 15.714844 -9.210938 15.6875 -9.246094 C 15.800781 -9.085938 15.9375 -8.96875 16.101562 -8.894531 C 16.605469 -8.675781 17.125 -8.5625 17.671875 -8.5625 C 18.660156 -8.5625 19.582031 -8.726562 20.441406 -9.050781 C 21.523438 -9.460938 22.523438 -10 23.445312 -10.667969 C 24.457031 -11.402344 25.308594 -12.167969 26.003906 -12.964844 L 26.082031 -13.054688 L 26.164062 -13.140625 C 26.007812 -12.972656 25.882812 -12.804688 25.792969 -12.640625 C 25.773438 -12.605469 25.757812 -12.574219 25.746094 -12.550781 C 25.75 -12.558594 25.757812 -12.574219 25.765625 -12.597656 C 25.832031 -12.804688 25.863281 -12.996094 25.863281 -13.167969 L 25.863281 -23.371094 C 25.863281 -22.820312 25.984375 -22.242188 26.226562 -21.640625 C 26.648438 -20.597656 27.328125 -19.738281 28.261719 -19.066406 C 29.136719 -18.433594 30.097656 -18.074219 31.136719 -17.984375 C 31.695312 -17.933594 32.195312 -17.96875 32.632812 -18.089844 C 30.957031 -17.617188 29.203125 -17.21875 27.363281 -16.890625 L 22.125 -15.949219 Z M 19.484375 -30.675781 L 24.734375 -31.617188 C 26.089844 -31.859375 27.410156 -32.164062 28.699219 -32.527344 C 29.972656 -32.875 31.21875 -32.996094 32.433594 -32.890625 C 34.128906 -32.742188 35.652344 -32.179688 37.003906 -31.207031 C 38.414062 -30.195312 39.445312 -28.871094 40.105469 -27.238281 C 40.585938 -26.042969 40.828125 -24.753906 40.828125 -23.371094 L 40.828125 -13.167969 C 40.828125 -11.4375 40.554688 -9.726562 40.015625 -8.035156 C 39.371094 -6.023438 38.398438 -4.320312 37.105469 -2.933594 L 31.636719 -8.035156 L 37.265625 -3.109375 C 35.832031 -1.472656 34.160156 0.0390625 32.246094 1.433594 C 30.238281 2.890625 28.066406 4.0625 25.730469 4.945312 C 23.167969 5.914062 20.480469 6.398438 17.671875 6.398438 C 15.023438 6.398438 12.484375 5.863281 10.058594 4.792969 C 7.300781 3.574219 5.0625 1.714844 3.347656 -0.785156 C 1.5625 -3.390625 0.667969 -6.511719 0.667969 -10.144531 C 0.667969 -13.777344 1.578125 -17.101562 3.402344 -20.113281 C 5.101562 -22.925781 7.394531 -25.265625 10.285156 -27.125 C 13.054688 -28.90625 16.132812 -30.089844 19.519531 -30.683594 Z M 19.484375 -30.675781 "/></g></g></g><g fill="#7c1531" fill-opacity="1"><g transform="translate(102.89274, 209.359073)"><g><path d="M 6.15625 0 L 1.140625 0 L 20.578125 -54.328125 L 19.375 -57 L 24.390625 -57 L 49.8125 0 L 44.796875 0 L 40.640625 -9.296875 C 39.953125 -10.847656 38.941406 -12.25 37.609375 -13.5 C 36.285156 -14.757812 34.785156 -15.828125 33.109375 -16.703125 C 31.441406 -17.578125 29.710938 -18.238281 27.921875 -18.6875 C 26.140625 -19.144531 24.453125 -19.375 22.859375 -19.375 C 21.035156 -19.375 19.238281 -19.085938 17.46875 -18.515625 C 15.695312 -17.953125 13.976562 -17.0625 12.3125 -15.84375 C 11.707031 -15.382812 11.097656 -14.632812 10.484375 -13.59375 C 9.878906 -12.550781 9.441406 -11.570312 9.171875 -10.65625 Z M 12.375 -21.609375 C 12.101562 -20.578125 12.195312 -20.0625 12.65625 -20.0625 C 12.882812 -20.0625 13.300781 -20.210938 13.90625 -20.515625 C 15.050781 -21.160156 16.226562 -21.625 17.4375 -21.90625 C 18.65625 -22.195312 19.890625 -22.34375 21.140625 -22.34375 C 23.835938 -22.34375 26.5 -21.769531 29.125 -20.625 C 31.75 -19.488281 34.144531 -18.03125 36.3125 -16.25 C 36.957031 -15.71875 37.363281 -15.515625 37.53125 -15.640625 C 37.707031 -15.773438 37.625 -16.222656 37.28125 -16.984375 L 22.578125 -49.9375 C 22.234375 -50.726562 21.867188 -51.125 21.484375 -51.125 C 21.109375 -51.125 20.769531 -50.671875 20.46875 -49.765625 Z M 12.375 -21.609375 "/></g></g></g><g fill="#7c1531" fill-opacity="1"><g transform="translate(152.311724, 209.359073)"><g><path d="M 8.546875 0 L 3.984375 0 L 3.984375 -57 L 8.546875 -57 Z M 8.546875 0 "/></g></g></g><g fill="#7c1531" fill-opacity="1"><g transform="translate(164.281728, 209.359073)"><g><path d="M 8.546875 0 L 3.984375 0 L 3.984375 -57 L 8.546875 -57 Z M 8.546875 0 "/></g></g></g><g fill="#7c1531" fill-opacity="1"><g transform="translate(176.251733, 209.359073)"><g><path d="M 3.015625 -9.125 C 3.015625 -11.78125 3.566406 -13.988281 4.671875 -15.75 C 5.773438 -17.519531 7.226562 -18.96875 9.03125 -20.09375 C 10.832031 -21.21875 12.804688 -22.109375 14.953125 -22.765625 C 17.109375 -23.429688 19.257812 -23.972656 21.40625 -24.390625 C 23.550781 -24.804688 25.523438 -25.222656 27.328125 -25.640625 C 29.128906 -26.066406 30.582031 -26.582031 31.6875 -27.1875 C 32.789062 -27.789062 33.34375 -28.609375 33.34375 -29.640625 C 33.34375 -31.878906 32.894531 -33.65625 32 -34.96875 C 31.113281 -36.28125 30.023438 -37.25 28.734375 -37.875 C 27.441406 -38.5 26.140625 -38.914062 24.828125 -39.125 C 23.515625 -39.332031 22.457031 -39.4375 21.65625 -39.4375 C 19.457031 -39.4375 17.71875 -39.101562 16.4375 -38.4375 C 15.164062 -37.78125 14.171875 -36.96875 13.453125 -36 C 12.734375 -35.03125 12.144531 -34.0625 11.6875 -33.09375 C 11.226562 -32.125 10.734375 -31.304688 10.203125 -30.640625 C 9.671875 -29.972656 8.945312 -29.640625 8.03125 -29.640625 C 7.46875 -29.640625 7.015625 -29.867188 6.671875 -30.328125 C 6.328125 -30.785156 6.15625 -31.335938 6.15625 -31.984375 C 6.15625 -33.160156 6.59375 -34.269531 7.46875 -35.3125 C 8.34375 -36.351562 9.484375 -37.265625 10.890625 -38.046875 C 12.296875 -38.828125 13.851562 -39.441406 15.5625 -39.890625 C 17.269531 -40.347656 18.941406 -40.578125 20.578125 -40.578125 C 24.296875 -40.578125 27.445312 -39.941406 30.03125 -38.671875 C 32.625 -37.398438 34.582031 -35.707031 35.90625 -33.59375 C 37.238281 -31.488281 37.90625 -29.203125 37.90625 -26.734375 L 37.90625 0 L 33.34375 0 L 33.34375 -5.125 C 33.34375 -6.15625 33.078125 -6.671875 32.546875 -6.671875 C 32.128906 -6.671875 31.691406 -6.460938 31.234375 -6.046875 C 29.828125 -4.867188 28.296875 -3.726562 26.640625 -2.625 C 24.992188 -1.519531 23.25 -0.617188 21.40625 0.078125 C 19.5625 0.785156 17.632812 1.140625 15.625 1.140625 C 13.113281 1.140625 10.90625 0.703125 9 -0.171875 C 7.101562 -1.046875 5.628906 -2.257812 4.578125 -3.8125 C 3.535156 -5.375 3.015625 -7.144531 3.015625 -9.125 Z M 20.8125 -23.3125 C 18.414062 -22.894531 16.253906 -22.066406 14.328125 -20.828125 C 12.410156 -19.597656 10.898438 -18.070312 9.796875 -16.25 C 8.703125 -14.425781 8.15625 -12.390625 8.15625 -10.140625 C 8.15625 -8.054688 8.609375 -6.347656 9.515625 -5.015625 C 10.429688 -3.679688 11.617188 -2.691406 13.078125 -2.046875 C 14.546875 -1.398438 16.078125 -1.078125 17.671875 -1.078125 C 19.566406 -1.078125 21.367188 -1.398438 23.078125 -2.046875 C 24.796875 -2.691406 26.382812 -3.546875 27.84375 -4.609375 C 29.300781 -5.679688 30.566406 -6.820312 31.640625 -8.03125 C 32.171875 -8.601562 32.585938 -9.363281 32.890625 -10.3125 C 33.191406 -11.257812 33.34375 -12.210938 33.34375 -13.171875 L 33.34375 -23.375 C 33.34375 -24.207031 33.101562 -24.796875 32.625 -25.140625 C 32.15625 -25.484375 31.503906 -25.539062 30.671875 -25.3125 C 29.179688 -24.894531 27.640625 -24.539062 26.046875 -24.25 C 24.453125 -23.96875 22.707031 -23.65625 20.8125 -23.3125 Z M 20.8125 -23.3125 "/></g></g></g><g fill="#7c1531" fill-opacity="1"><g transform="translate(217.576723, 209.359073)"><g><path d="M 3.984375 0 L 3.984375 -39.4375 L 8.546875 -39.4375 L 8.546875 -35.21875 C 8.546875 -34.269531 8.71875 -33.796875 9.0625 -33.796875 C 9.289062 -33.796875 9.707031 -34.0625 10.3125 -34.59375 C 12.363281 -36.570312 14.546875 -38.0625 16.859375 -39.0625 C 19.179688 -40.070312 21.828125 -40.578125 24.796875 -40.578125 C 27.679688 -40.578125 30.21875 -40.015625 32.40625 -38.890625 C 34.59375 -37.773438 36.300781 -36.226562 37.53125 -34.25 C 38.769531 -32.28125 39.390625 -30.003906 39.390625 -27.421875 L 39.390625 0 L 34.828125 0 L 34.828125 -27.296875 C 34.828125 -29.992188 34.3125 -32.234375 33.28125 -34.015625 C 32.257812 -35.804688 30.910156 -37.15625 29.234375 -38.0625 C 27.566406 -38.976562 25.785156 -39.4375 23.890625 -39.4375 C 21.984375 -39.4375 20.117188 -39.078125 18.296875 -38.359375 C 16.472656 -37.640625 14.828125 -36.660156 13.359375 -35.421875 C 11.898438 -34.191406 10.734375 -32.796875 9.859375 -31.234375 C 8.984375 -29.679688 8.546875 -28.066406 8.546875 -26.390625 L 8.546875 0 Z M 3.984375 0 "/></g></g></g><g fill="#7c1531" fill-opacity="1"><g transform="translate(260.383712, 209.359073)"><g><path d="M 3.015625 -9.125 C 3.015625 -11.78125 3.566406 -13.988281 4.671875 -15.75 C 5.773438 -17.519531 7.226562 -18.96875 9.03125 -20.09375 C 10.832031 -21.21875 12.804688 -22.109375 14.953125 -22.765625 C 17.109375 -23.429688 19.257812 -23.972656 21.40625 -24.390625 C 23.550781 -24.804688 25.523438 -25.222656 27.328125 -25.640625 C 29.128906 -26.066406 30.582031 -26.582031 31.6875 -27.1875 C 32.789062 -27.789062 33.34375 -28.609375 33.34375 -29.640625 C 33.34375 -31.878906 32.894531 -33.65625 32 -34.96875 C 31.113281 -36.28125 30.023438 -37.25 28.734375 -37.875 C 27.441406 -38.5 26.140625 -38.914062 24.828125 -39.125 C 23.515625 -39.332031 22.457031 -39.4375 21.65625 -39.4375 C 19.457031 -39.4375 17.71875 -39.101562 16.4375 -38.4375 C 15.164062 -37.78125 14.171875 -36.96875 13.453125 -36 C 12.734375 -35.03125 12.144531 -34.0625 11.6875 -33.09375 C 11.226562 -32.125 10.734375 -31.304688 10.203125 -30.640625 C 9.671875 -29.972656 8.945312 -29.640625 8.03125 -29.640625 C 7.46875 -29.640625 7.015625 -29.867188 6.671875 -30.328125 C 6.328125 -30.785156 6.15625 -31.335938 6.15625 -31.984375 C 6.15625 -33.160156 6.59375 -34.269531 7.46875 -35.3125 C 8.34375 -36.351562 9.484375 -37.265625 10.890625 -38.046875 C 12.296875 -38.828125 13.851562 -39.441406 15.5625 -39.890625 C 17.269531 -40.347656 18.941406 -40.578125 20.578125 -40.578125 C 24.296875 -40.578125 27.445312 -39.941406 30.03125 -38.671875 C 32.625 -37.398438 34.582031 -35.707031 35.90625 -33.59375 C 37.238281 -31.488281 37.90625 -29.203125 37.90625 -26.734375 L 37.90625 0 L 33.34375 0 L 33.34375 -5.125 C 33.34375 -6.15625 33.078125 -6.671875 32.546875 -6.671875 C 32.128906 -6.671875 31.691406 -6.460938 31.234375 -6.046875 C 29.828125 -4.867188 28.296875 -3.726562 26.640625 -2.625 C 24.992188 -1.519531 23.25 -0.617188 21.40625 0.078125 C 19.5625 0.785156 17.632812 1.140625 15.625 1.140625 C 13.113281 1.140625 10.90625 0.703125 9 -0.171875 C 7.101562 -1.046875 5.628906 -2.257812 4.578125 -3.8125 C 3.535156 -5.375 3.015625 -7.144531 3.015625 -9.125 Z M 20.8125 -23.3125 C 18.414062 -22.894531 16.253906 -22.066406 14.328125 -20.828125 C 12.410156 -19.597656 10.898438 -18.070312 9.796875 -16.25 C 8.703125 -14.425781 8.15625 -12.390625 8.15625 -10.140625 C 8.15625 -8.054688 8.609375 -6.347656 9.515625 -5.015625 C 10.429688 -3.679688 11.617188 -2.691406 13.078125 -2.046875 C 14.546875 -1.398438 16.078125 -1.078125 17.671875 -1.078125 C 19.566406 -1.078125 21.367188 -1.398438 23.078125 -2.046875 C 24.796875 -2.691406 26.382812 -3.546875 27.84375 -4.609375 C 29.300781 -5.679688 30.566406 -6.820312 31.640625 -8.03125 C 32.171875 -8.601562 32.585938 -9.363281 32.890625 -10.3125 C 33.191406 -11.257812 33.34375 -12.210938 33.34375 -13.171875 L 33.34375 -23.375 C 33.34375 -24.207031 33.101562 -24.796875 32.625 -25.140625 C 32.15625 -25.484375 31.503906 -25.539062 30.671875 -25.3125 C 29.179688 -24.894531 27.640625 -24.539062 26.046875 -24.25 C 24.453125 -23.96875 22.707031 -23.65625 20.8125 -23.3125 Z M 20.8125 -23.3125 "/></g></g></g><g fill="#000000" fill-opacity="1"><g transform="translate(121.663494, 226.247856)"><g><path d="M 5.03125 0.15625 C 4.207031 0.15625 3.472656 -0.0234375 2.828125 -0.390625 C 2.191406 -0.765625 1.6875 -1.28125 1.3125 -1.9375 C 0.945312 -2.59375 0.765625 -3.347656 0.765625 -4.203125 C 0.765625 -5.054688 0.945312 -5.804688 1.3125 -6.453125 C 1.6875 -7.109375 2.191406 -7.625 2.828125 -8 C 3.472656 -8.375 4.207031 -8.5625 5.03125 -8.5625 C 5.664062 -8.5625 6.253906 -8.441406 6.796875 -8.203125 C 7.347656 -7.960938 7.816406 -7.628906 8.203125 -7.203125 C 8.597656 -6.773438 8.890625 -6.265625 9.078125 -5.671875 L 8.296875 -5.671875 C 8.054688 -6.335938 7.644531 -6.863281 7.0625 -7.25 C 6.476562 -7.632812 5.804688 -7.828125 5.046875 -7.828125 C 4.359375 -7.828125 3.75 -7.671875 3.21875 -7.359375 C 2.6875 -7.054688 2.269531 -6.632812 1.96875 -6.09375 C 1.664062 -5.550781 1.515625 -4.921875 1.515625 -4.203125 C 1.515625 -3.484375 1.664062 -2.847656 1.96875 -2.296875 C 2.269531 -1.753906 2.6875 -1.332031 3.21875 -1.03125 C 3.75 -0.726562 4.359375 -0.578125 5.046875 -0.578125 C 5.828125 -0.578125 6.519531 -0.773438 7.125 -1.171875 C 7.726562 -1.578125 8.144531 -2.125 8.375 -2.8125 L 9.140625 -2.8125 C 8.972656 -2.21875 8.6875 -1.695312 8.28125 -1.25 C 7.882812 -0.800781 7.410156 -0.453125 6.859375 -0.203125 C 6.304688 0.0351562 5.695312 0.15625 5.03125 0.15625 Z M 5.03125 0.15625 "/></g></g></g><g fill="#000000" fill-opacity="1"><g transform="translate(135.727527, 226.247856)"><g><path d="M 1.359375 0 L 1.359375 -8.40625 L 2.09375 -8.40625 L 2.09375 -0.703125 L 6.34375 -0.703125 L 6.34375 0 Z M 1.359375 0 "/></g></g></g><g fill="#000000" fill-opacity="1"><g transform="translate(145.951552, 226.247856)"><g><path d="M 5.09375 0.15625 C 4.25 0.15625 3.5 -0.0234375 2.84375 -0.390625 C 2.195312 -0.765625 1.6875 -1.28125 1.3125 -1.9375 C 0.945312 -2.59375 0.765625 -3.347656 0.765625 -4.203125 C 0.765625 -5.054688 0.945312 -5.8125 1.3125 -6.46875 C 1.6875 -7.125 2.195312 -7.632812 2.84375 -8 C 3.5 -8.375 4.25 -8.5625 5.09375 -8.5625 C 5.957031 -8.5625 6.710938 -8.375 7.359375 -8 C 8.015625 -7.632812 8.523438 -7.125 8.890625 -6.46875 C 9.253906 -5.8125 9.4375 -5.054688 9.4375 -4.203125 C 9.4375 -3.347656 9.253906 -2.59375 8.890625 -1.9375 C 8.523438 -1.28125 8.015625 -0.765625 7.359375 -0.390625 C 6.710938 -0.0234375 5.957031 0.15625 5.09375 0.15625 Z M 1.515625 -4.203125 C 1.515625 -3.484375 1.664062 -2.847656 1.96875 -2.296875 C 2.269531 -1.753906 2.691406 -1.332031 3.234375 -1.03125 C 3.773438 -0.726562 4.394531 -0.578125 5.09375 -0.578125 C 5.8125 -0.578125 6.4375 -0.726562 6.96875 -1.03125 C 7.507812 -1.332031 7.929688 -1.753906 8.234375 -2.296875 C 8.546875 -2.847656 8.703125 -3.484375 8.703125 -4.203125 C 8.703125 -4.921875 8.546875 -5.550781 8.234375 -6.09375 C 7.929688 -6.632812 7.507812 -7.054688 6.96875 -7.359375 C 6.4375 -7.671875 5.8125 -7.828125 5.09375 -7.828125 C 4.394531 -7.828125 3.773438 -7.671875 3.234375 -7.359375 C 2.691406 -7.054688 2.269531 -6.632812 1.96875 -6.09375 C 1.664062 -5.550781 1.515625 -4.921875 1.515625 -4.203125 Z M 1.515625 -4.203125 "/></g></g></g><g fill="#000000" fill-opacity="1"><g transform="translate(159.739587, 226.247856)"><g><path d="M 3.34375 0 L 3.34375 -7.703125 L 0.453125 -7.703125 L 0.453125 -8.40625 L 6.96875 -8.40625 L 6.96875 -7.703125 L 4.0625 -7.703125 L 4.0625 0 Z M 3.34375 0 "/></g></g></g><g fill="#000000" fill-opacity="1"><g transform="translate(171.367619, 226.247856)"><g><path d="M 7.015625 0 L 7.015625 -3.9375 L 2.09375 -3.9375 L 2.09375 0 L 1.359375 0 L 1.359375 -8.40625 L 2.09375 -8.40625 L 2.09375 -4.625 L 7.015625 -4.625 L 7.015625 -8.40625 L 7.734375 -8.40625 L 7.734375 0 Z M 7.015625 0 "/></g></g></g><g fill="#000000" fill-opacity="1"><g transform="translate(184.66365, 226.247856)"><g><path d="M 1.359375 0 L 1.359375 -8.40625 L 2.09375 -8.40625 L 2.09375 0 Z M 1.359375 0 "/></g></g></g><g fill="#000000" fill-opacity="1"><g transform="translate(192.307674, 226.247856)"><g><path d="M 1.359375 0 L 1.359375 -8.40625 L 2.046875 -8.40625 L 7.15625 -1.265625 L 7.15625 -8.40625 L 7.875 -8.40625 L 7.875 0 L 7.1875 0 L 2.078125 -7.15625 L 2.078125 0 Z M 1.359375 0 "/></g></g></g><g fill="#000000" fill-opacity="1"><g transform="translate(205.735713, 226.247856)"><g><path d="M 5.015625 0.15625 C 4.191406 0.15625 3.457031 -0.0234375 2.8125 -0.390625 C 2.175781 -0.765625 1.675781 -1.28125 1.3125 -1.9375 C 0.945312 -2.59375 0.765625 -3.347656 0.765625 -4.203125 C 0.765625 -5.046875 0.945312 -5.796875 1.3125 -6.453125 C 1.675781 -7.109375 2.175781 -7.625 2.8125 -8 C 3.445312 -8.375 4.171875 -8.5625 4.984375 -8.5625 C 5.640625 -8.5625 6.234375 -8.441406 6.765625 -8.203125 C 7.304688 -7.972656 7.769531 -7.648438 8.15625 -7.234375 C 8.539062 -6.828125 8.820312 -6.351562 9 -5.8125 L 8.203125 -5.8125 C 7.941406 -6.4375 7.535156 -6.925781 6.984375 -7.28125 C 6.429688 -7.644531 5.78125 -7.828125 5.03125 -7.828125 C 4.332031 -7.828125 3.71875 -7.671875 3.1875 -7.359375 C 2.664062 -7.054688 2.253906 -6.632812 1.953125 -6.09375 C 1.660156 -5.550781 1.515625 -4.921875 1.515625 -4.203125 C 1.515625 -3.484375 1.660156 -2.847656 1.953125 -2.296875 C 2.253906 -1.753906 2.671875 -1.332031 3.203125 -1.03125 C 3.734375 -0.726562 4.34375 -0.578125 5.03125 -0.578125 C 5.6875 -0.578125 6.257812 -0.707031 6.75 -0.96875 C 7.25 -1.238281 7.648438 -1.613281 7.953125 -2.09375 C 8.253906 -2.570312 8.425781 -3.113281 8.46875 -3.71875 L 4.75 -3.71875 L 4.75 -4.421875 L 9.25 -4.421875 C 9.257812 -3.523438 9.085938 -2.734375 8.734375 -2.046875 C 8.378906 -1.359375 7.882812 -0.816406 7.25 -0.421875 C 6.613281 -0.0351562 5.867188 0.15625 5.015625 0.15625 Z M 5.015625 0.15625 "/></g></g></g><g fill="#000000" fill-opacity="1"><g transform="translate(219.583749, 226.247856)"><g/></g></g><g fill="#000000" fill-opacity="1"><g transform="translate(226.79577, 226.247856)"><g><path d="M 4.0625 0.15625 C 3.414062 0.15625 2.851562 0.0507812 2.375 -0.15625 C 1.90625 -0.375 1.535156 -0.679688 1.265625 -1.078125 C 1.003906 -1.484375 0.863281 -1.957031 0.84375 -2.5 L 1.5625 -2.5 C 1.601562 -1.882812 1.847656 -1.40625 2.296875 -1.0625 C 2.742188 -0.71875 3.332031 -0.546875 4.0625 -0.546875 C 4.75 -0.546875 5.289062 -0.6875 5.6875 -0.96875 C 6.082031 -1.25 6.28125 -1.632812 6.28125 -2.125 C 6.28125 -2.5625 6.097656 -2.914062 5.734375 -3.1875 C 5.367188 -3.46875 4.757812 -3.703125 3.90625 -3.890625 C 2.875 -4.128906 2.125 -4.4375 1.65625 -4.8125 C 1.195312 -5.1875 0.96875 -5.691406 0.96875 -6.328125 C 0.96875 -6.992188 1.222656 -7.53125 1.734375 -7.9375 C 2.253906 -8.351562 2.960938 -8.5625 3.859375 -8.5625 C 4.785156 -8.5625 5.515625 -8.335938 6.046875 -7.890625 C 6.578125 -7.441406 6.859375 -6.8125 6.890625 -6 L 6.171875 -6 C 6.140625 -6.59375 5.921875 -7.050781 5.515625 -7.375 C 5.109375 -7.695312 4.554688 -7.859375 3.859375 -7.859375 C 3.171875 -7.859375 2.640625 -7.71875 2.265625 -7.4375 C 1.890625 -7.15625 1.703125 -6.785156 1.703125 -6.328125 C 1.703125 -5.910156 1.878906 -5.5625 2.234375 -5.28125 C 2.585938 -5.007812 3.207031 -4.773438 4.09375 -4.578125 C 5.15625 -4.328125 5.910156 -4.003906 6.359375 -3.609375 C 6.804688 -3.222656 7.03125 -2.734375 7.03125 -2.140625 C 7.03125 -1.429688 6.757812 -0.867188 6.21875 -0.453125 C 5.6875 -0.046875 4.96875 0.15625 4.0625 0.15625 Z M 4.0625 0.15625 "/></g></g></g><g fill="#000000" fill-opacity="1"><g transform="translate(238.375805, 226.247856)"><g><path d="M 3.34375 0 L 3.34375 -7.703125 L 0.453125 -7.703125 L 0.453125 -8.40625 L 6.96875 -8.40625 L 6.96875 -7.703125 L 4.0625 -7.703125 L 4.0625 0 Z M 3.34375 0 "/></g></g></g><g fill="#000000" fill-opacity="1"><g transform="translate(249.391841, 226.247856)"><g><path d="M 5.09375 0.15625 C 4.25 0.15625 3.5 -0.0234375 2.84375 -0.390625 C 2.195312 -0.765625 1.6875 -1.28125 1.3125 -1.9375 C 0.945312 -2.59375 0.765625 -3.347656 0.765625 -4.203125 C 0.765625 -5.054688 0.945312 -5.8125 1.3125 -6.46875 C 1.6875 -7.125 2.195312 -7.632812 2.84375 -8 C 3.5 -8.375 4.25 -8.5625 5.09375 -8.5625 C 5.957031 -8.5625 6.710938 -8.375 7.359375 -8 C 8.015625 -7.632812 8.523438 -7.125 8.890625 -6.46875 C 9.253906 -5.8125 9.4375 -5.054688 9.4375 -4.203125 C 9.4375 -3.347656 9.253906 -2.59375 8.890625 -1.9375 C 8.523438 -1.28125 8.015625 -0.765625 7.359375 -0.390625 C 6.710938 -0.0234375 5.957031 0.15625 5.09375 0.15625 Z M 1.515625 -4.203125 C 1.515625 -3.484375 1.664062 -2.847656 1.96875 -2.296875 C 2.269531 -1.753906 2.691406 -1.332031 3.234375 -1.03125 C 3.773438 -0.726562 4.394531 -0.578125 5.09375 -0.578125 C 5.8125 -0.578125 6.4375 -0.726562 6.96875 -1.03125 C 7.507812 -1.332031 7.929688 -1.753906 8.234375 -2.296875 C 8.546875 -2.847656 8.703125 -3.484375 8.703125 -4.203125 C 8.703125 -4.921875 8.546875 -5.550781 8.234375 -6.09375 C 7.929688 -6.632812 7.507812 -7.054688 6.96875 -7.359375 C 6.4375 -7.671875 5.8125 -7.828125 5.09375 -7.828125 C 4.394531 -7.828125 3.773438 -7.671875 3.234375 -7.359375 C 2.691406 -7.054688 2.269531 -6.632812 1.96875 -6.09375 C 1.664062 -5.550781 1.515625 -4.921875 1.515625 -4.203125 Z M 1.515625 -4.203125 "/></g></g></g><g fill="#000000" fill-opacity="1"><g transform="translate(263.791873, 226.247856)"><g><path d="M 1.359375 0 L 1.359375 -8.40625 L 4.46875 -8.40625 C 5.03125 -8.40625 5.519531 -8.296875 5.9375 -8.078125 C 6.351562 -7.859375 6.675781 -7.554688 6.90625 -7.171875 C 7.144531 -6.785156 7.265625 -6.320312 7.265625 -5.78125 C 7.265625 -5.082031 7.070312 -4.507812 6.6875 -4.0625 C 6.300781 -3.613281 5.773438 -3.332031 5.109375 -3.21875 L 7.390625 0 L 6.515625 0 L 4.265625 -3.15625 L 2.09375 -3.15625 L 2.09375 0 Z M 2.09375 -3.859375 L 4.390625 -3.859375 C 5.054688 -3.859375 5.578125 -4.03125 5.953125 -4.375 C 6.328125 -4.71875 6.515625 -5.1875 6.515625 -5.78125 C 6.515625 -6.375 6.328125 -6.84375 5.953125 -7.1875 C 5.578125 -7.53125 5.054688 -7.703125 4.390625 -7.703125 L 2.09375 -7.703125 Z M 2.09375 -3.859375 "/></g></g></g><g fill="#000000" fill-opacity="1"><g transform="translate(276.199899, 226.247856)"><g><path d="M 1.359375 0 L 1.359375 -8.40625 L 6.296875 -8.40625 L 6.296875 -7.71875 L 2.09375 -7.71875 L 2.09375 -4.625 L 5.984375 -4.625 L 5.984375 -3.953125 L 2.09375 -3.953125 L 2.09375 -0.6875 L 6.4375 -0.6875 L 6.4375 0 Z M 1.359375 0 "/></g></g></g><g clip-path="url(#9f0841b859)"><path fill="#7c1531" d="M 246.203125 190.535156 C 240.875 190.535156 239.214844 189.082031 239.214844 180 C 239.214844 179.9375 239.167969 179.886719 239.105469 179.886719 C 239.042969 179.886719 238.996094 179.9375 238.996094 180 C 238.996094 188.03125 238.03125 190.535156 232.007812 190.535156 C 231.945312 190.535156 231.898438 190.582031 231.898438 190.644531 C 231.898438 190.707031 231.945312 190.753906 232.007812 190.753906 C 237.335938 190.753906 238.996094 192.207031 238.996094 201.289062 C 238.996094 201.351562 239.042969 201.402344 239.105469 201.402344 C 239.167969 201.402344 239.214844 201.351562 239.214844 201.289062 C 239.214844 193.257812 240.179688 190.753906 246.203125 190.753906 C 246.265625 190.753906 246.3125 190.707031 246.3125 190.644531 C 246.3125 190.582031 246.265625 190.535156 246.203125 190.535156 Z M 246.203125 190.535156 " fill-opacity="1" fill-rule="nonzero"/></g></svg>