<svg xmlns="http://www.w3.org/2000/svg" xmlns:xlink="http://www.w3.org/1999/xlink" width="500" zoomAndPan="magnify" viewBox="0 0 375 374.999991" height="500" preserveAspectRatio="xMidYMid meet" version="1.0"><defs><g/><clipPath id="9d3bc20ddc"><rect x="0" width="211" y="0" height="128"/></clipPath><clipPath id="89cd830354"><path d="M 182.695312 103.898438 L 280.839844 103.898438 L 280.839844 153.203125 L 182.695312 153.203125 Z M 182.695312 103.898438 " clip-rule="nonzero"/></clipPath><clipPath id="8b30065e4b"><rect x="0" width="102" y="0" height="23"/></clipPath></defs><g transform="matrix(1, 0, 0, 1, 82, 132)"><g clip-path="url(#9d3bc20ddc)"><g fill="#004aad" fill-opacity="1"><g transform="translate(1.455797, 97.599934)"><g><path d="M 40.34375 -89.0625 C 47.34375 -89.0625 53.691406 -87.5625 59.390625 -84.5625 C 65.097656 -81.5625 69.65625 -76.726562 73.0625 -70.0625 C 76.476562 -63.40625 78.1875 -54.625 78.1875 -43.71875 C 78.1875 -35.394531 77.207031 -28.359375 75.25 -22.609375 C 73.300781 -16.859375 70.597656 -12.210938 67.140625 -8.671875 C 63.679688 -5.140625 59.660156 -2.582031 55.078125 -1 C 50.503906 0.582031 45.59375 1.375 40.34375 1.375 C 35.007812 1.375 30.050781 0.582031 25.46875 -1 C 20.894531 -2.582031 16.878906 -5.140625 13.421875 -8.671875 C 9.972656 -12.210938 7.269531 -16.859375 5.3125 -22.609375 C 3.351562 -28.359375 2.375 -35.394531 2.375 -43.71875 C 2.375 -54.789062 4.078125 -63.65625 7.484375 -70.3125 C 10.898438 -76.976562 15.460938 -81.769531 21.171875 -84.6875 C 26.878906 -87.601562 33.269531 -89.0625 40.34375 -89.0625 Z M 63.703125 -22.109375 C 63.703125 -25.359375 63.703125 -29.207031 63.703125 -33.65625 C 63.703125 -38.113281 63.203125 -42.132812 62.203125 -45.71875 C 60.953125 -50.375 59.535156 -54.578125 57.953125 -58.328125 C 56.367188 -62.078125 54.222656 -65.304688 51.515625 -68.015625 C 48.816406 -70.722656 45.21875 -72.800781 40.71875 -74.25 C 36.21875 -75.707031 30.472656 -76.4375 23.484375 -76.4375 C 17.984375 -76.4375 15.316406 -71.648438 15.484375 -62.078125 C 15.484375 -58.992188 15.773438 -55.578125 16.359375 -51.828125 C 16.941406 -48.085938 17.773438 -44.175781 18.859375 -40.09375 C 20.023438 -35.84375 21.441406 -31.820312 23.109375 -28.03125 C 24.773438 -24.25 26.914062 -20.878906 29.53125 -17.921875 C 32.15625 -14.960938 35.425781 -12.628906 39.34375 -10.921875 C 43.257812 -9.222656 48.046875 -8.375 53.703125 -8.375 C 57.453125 -8.375 60.054688 -9.679688 61.515625 -12.296875 C 62.972656 -14.921875 63.703125 -18.191406 63.703125 -22.109375 Z M 63.703125 -22.109375 "/></g></g></g><g fill="#004aad" fill-opacity="1"><g transform="translate(82.141508, 97.599934)"><g><path d="M 62.828125 0 L 40.21875 0 C 42.46875 -5.582031 43.800781 -9.390625 44.21875 -11.421875 C 44.632812 -13.460938 44.84375 -14.609375 44.84375 -14.859375 C 44.84375 -19.441406 44.84375 -24 44.84375 -28.53125 C 44.84375 -33.070312 44.84375 -37.632812 44.84375 -42.21875 C 44.84375 -42.21875 44.757812 -42.695312 44.59375 -43.65625 C 44.425781 -44.613281 43.945312 -45.738281 43.15625 -47.03125 C 42.363281 -48.320312 41.03125 -49.46875 39.15625 -50.46875 C 37.28125 -51.46875 34.640625 -51.96875 31.234375 -51.96875 C 29.816406 -51.96875 28.253906 -51.78125 26.546875 -51.40625 C 24.835938 -51.03125 22.941406 -50.382812 20.859375 -49.46875 L 21.109375 -14.859375 C 21.109375 -14.609375 21.171875 -13.773438 21.296875 -12.359375 C 21.421875 -10.953125 21.816406 -9.164062 22.484375 -7 C 23.148438 -4.832031 24.273438 -2.5 25.859375 0 L 1.75 0 C 3.25 -1.832031 4.332031 -3.75 5 -5.75 C 5.664062 -7.75 6.082031 -9.554688 6.25 -11.171875 C 6.414062 -12.796875 6.5 -13.898438 6.5 -14.484375 C 6.5 -19.484375 6.5 -24.519531 6.5 -29.59375 C 6.5 -34.675781 6.5 -39.71875 6.5 -44.71875 C 6.5 -44.71875 6.4375 -45.363281 6.3125 -46.65625 C 6.1875 -47.945312 5.789062 -49.460938 5.125 -51.203125 C 4.457031 -52.953125 3.332031 -54.535156 1.75 -55.953125 C 1.75 -55.953125 2.394531 -56.265625 3.6875 -56.890625 C 4.976562 -57.515625 6.554688 -58.242188 8.421875 -59.078125 C 10.296875 -59.910156 12.171875 -60.765625 14.046875 -61.640625 C 15.921875 -62.515625 17.503906 -63.242188 18.796875 -63.828125 C 20.085938 -64.410156 20.734375 -64.703125 20.734375 -64.703125 L 20.734375 -52.828125 C 21.316406 -53.410156 22.441406 -54.347656 24.109375 -55.640625 C 25.773438 -56.929688 27.707031 -58.265625 29.90625 -59.640625 C 32.113281 -61.015625 34.40625 -62.203125 36.78125 -63.203125 C 39.15625 -64.203125 41.425781 -64.703125 43.59375 -64.703125 C 47.84375 -64.703125 51.316406 -63.410156 54.015625 -60.828125 C 56.722656 -58.242188 58.078125 -54.125 58.078125 -48.46875 C 58.078125 -42.800781 58.097656 -37.132812 58.140625 -31.46875 C 58.179688 -25.8125 58.203125 -20.148438 58.203125 -14.484375 C 58.203125 -13.734375 58.453125 -12.171875 58.953125 -9.796875 C 59.453125 -7.429688 60.742188 -4.164062 62.828125 0 Z M 62.828125 0 "/></g></g></g><g fill="#004aad" fill-opacity="1"><g transform="translate(146.465246, 97.599934)"><g><path d="M 61.703125 -56.203125 C 57.117188 -58.535156 52.332031 -58.828125 47.34375 -57.078125 C 49.425781 -54.992188 51.046875 -52.660156 52.203125 -50.078125 C 53.367188 -47.503906 53.953125 -44.71875 53.953125 -41.71875 C 53.867188 -36.550781 52.679688 -32.425781 50.390625 -29.34375 C 48.109375 -26.269531 45.03125 -24.085938 41.15625 -22.796875 C 37.28125 -21.503906 32.972656 -20.859375 28.234375 -20.859375 C 26.484375 -20.859375 24.859375 -20.941406 23.359375 -21.109375 C 21.859375 -21.273438 20.441406 -21.609375 19.109375 -22.109375 C 18.773438 -21.691406 18.484375 -21.171875 18.234375 -20.546875 C 17.984375 -19.921875 17.859375 -19.273438 17.859375 -18.609375 C 17.859375 -16.859375 19.316406 -15.421875 22.234375 -14.296875 C 25.148438 -13.171875 30.226562 -12.609375 37.46875 -12.609375 C 41.21875 -12.609375 44.710938 -12.566406 47.953125 -12.484375 C 51.203125 -12.398438 53.953125 -12.003906 56.203125 -11.296875 C 58.453125 -10.597656 60.035156 -9.351562 60.953125 -7.5625 C 61.867188 -5.769531 61.828125 -3.125 60.828125 0.375 C 60.160156 2.957031 58.742188 5.640625 56.578125 8.421875 C 54.410156 11.210938 51.785156 13.816406 48.703125 16.234375 C 45.628906 18.648438 42.363281 20.609375 38.90625 22.109375 C 35.445312 23.609375 32.054688 24.359375 28.734375 24.359375 C 22.148438 24.359375 17.046875 23.484375 13.421875 21.734375 C 9.804688 19.984375 7.082031 17.859375 5.25 15.359375 L 19.359375 1.875 C 21.023438 4.789062 23.316406 7.035156 26.234375 8.609375 C 29.148438 10.191406 32.226562 11.234375 35.46875 11.734375 C 38.71875 12.234375 41.738281 12.191406 44.53125 11.609375 C 47.320312 11.023438 49.46875 10.03125 50.96875 8.625 C 51.789062 7.789062 52.078125 6.851562 51.828125 5.8125 C 51.585938 4.769531 50.488281 3.6875 48.53125 2.5625 C 46.570312 1.4375 43.46875 0.394531 39.21875 -0.5625 C 34.96875 -1.519531 29.265625 -2.332031 22.109375 -3 C 14.609375 -3.664062 9.378906 -4.832031 6.421875 -6.5 C 3.472656 -8.164062 2 -9.992188 2 -11.984375 C 2 -13.734375 2.769531 -15.378906 4.3125 -16.921875 C 5.851562 -18.460938 7.703125 -19.796875 9.859375 -20.921875 C 12.023438 -22.046875 14.023438 -22.859375 15.859375 -23.359375 C 12.203125 -25.109375 9.25 -27.707031 7 -31.15625 C 4.75 -34.613281 3.625 -38.632812 3.625 -43.21875 C 3.625 -46.800781 4.785156 -50.148438 7.109375 -53.265625 C 9.441406 -56.390625 12.566406 -58.953125 16.484375 -60.953125 C 20.398438 -62.953125 24.691406 -63.953125 29.359375 -63.953125 C 35.097656 -63.953125 40.050781 -62.492188 44.21875 -59.578125 C 44.96875 -61.078125 46.09375 -62.722656 47.59375 -64.515625 C 49.09375 -66.304688 50.984375 -67.804688 53.265625 -69.015625 C 55.554688 -70.222656 58.367188 -70.828125 61.703125 -70.828125 Z M 36.59375 -28.484375 C 39.757812 -28.484375 41.34375 -29.8125 41.34375 -32.46875 C 41.34375 -33.550781 41.175781 -34.820312 40.84375 -36.28125 C 40.507812 -37.738281 40.007812 -39.46875 39.34375 -41.46875 C 37.757812 -46.632812 35.695312 -50.335938 33.15625 -52.578125 C 30.625 -54.828125 27.109375 -55.953125 22.609375 -55.953125 C 18.359375 -55.953125 16.234375 -54.039062 16.234375 -50.21875 C 16.234375 -48.050781 16.859375 -45.007812 18.109375 -41.09375 C 19.773438 -36.007812 22.148438 -32.632812 25.234375 -30.96875 C 28.316406 -29.3125 32.101562 -28.484375 36.59375 -28.484375 Z M 36.59375 -28.484375 "/></g></g></g></g></g><g clip-path="url(#89cd830354)"><path fill="#004aad" d="M 243.960938 118.34375 C 243.960938 118.34375 265.964844 105.703125 266.984375 105.191406 C 268.003906 104.675781 269.550781 103.746094 272.058594 103.921875 C 274.570312 104.097656 274.054688 104.242188 275.609375 104.261719 C 277.164062 104.28125 279.613281 104.789062 280.257812 105.125 C 280.898438 105.457031 281.558594 106.199219 279 108.449219 C 276.441406 110.703125 272.828125 112.9375 269.71875 114.621094 C 266.609375 116.300781 256.101562 122.214844 255.398438 122.671875 C 255.398438 122.671875 254.796875 123.078125 254.238281 123.648438 C 253.675781 124.21875 252.875 125.253906 251.949219 126.085938 C 251.023438 126.921875 250.65625 127.226562 250.386719 127.464844 C 250.117188 127.707031 250.195312 127.902344 250.25 128.074219 C 250.308594 128.246094 250.910156 129.902344 250.910156 129.902344 C 250.910156 129.902344 251.199219 129.800781 251.734375 129.480469 C 252.273438 129.160156 254.605469 127.761719 255.910156 127.304688 C 257.21875 126.851562 258.097656 126.300781 259.484375 128.121094 C 260.871094 129.941406 260.3125 131.027344 259.367188 131.722656 C 258.421875 132.417969 257.007812 133.414062 255.28125 134.03125 C 253.558594 134.648438 252.710938 134.933594 252.441406 134.828125 C 252.167969 134.722656 252.757812 134.492188 252.4375 134.585938 C 252.117188 134.679688 252.207031 134.644531 252.207031 134.644531 L 254.195312 142.652344 C 254.195312 142.652344 254.179688 142.886719 253.9375 142.71875 C 253.695312 142.546875 253.480469 142.269531 253.039062 142.855469 C 252.597656 143.4375 251.761719 143.777344 251.214844 143.941406 C 250.667969 144.105469 250.320312 144.207031 250.023438 144.453125 C 249.726562 144.699219 249.597656 144.703125 249.625 144.410156 C 249.652344 144.117188 249.539062 143.886719 249.300781 143.675781 C 249.058594 143.460938 247.476562 141.890625 247.476562 141.890625 C 247.476562 141.890625 246.765625 142.65625 245.949219 143.121094 C 245.128906 143.582031 245.109375 143.214844 245.242188 142.878906 C 245.375 142.546875 245.929688 141.5625 245.863281 141.464844 C 245.796875 141.363281 244.226562 139.675781 244.191406 139.644531 C 244.152344 139.609375 243.691406 140.167969 243.109375 140.371094 C 242.527344 140.574219 242.6875 140.0625 242.902344 139.535156 C 243.113281 139.007812 243.191406 138.574219 243.191406 138.574219 L 242.066406 137.289062 C 242.066406 137.289062 241.066406 138.226562 240.613281 138.585938 C 240.15625 138.945312 240.117188 139.183594 239.785156 139.007812 C 239.453125 138.832031 239.773438 138.394531 239.808594 138.183594 C 239.84375 137.976562 240.03125 137.355469 239.8125 137.625 C 239.59375 137.894531 239.554688 137.917969 239.492188 137.546875 C 239.429688 137.175781 239.429688 137.289062 239.429688 137.289062 L 237.113281 136.578125 C 237.113281 136.578125 236.703125 137.125 236.476562 137.136719 C 236.25 137.152344 236.375 136.832031 236.578125 136.566406 C 236.785156 136.300781 236.941406 135.832031 236.941406 135.832031 C 236.941406 135.832031 234.359375 136.691406 230.738281 137.410156 C 227.113281 138.128906 226.871094 138.703125 225.699219 139.296875 C 224.527344 139.890625 220.089844 142.449219 214.777344 144.265625 C 209.464844 146.078125 205.589844 147.160156 205.523438 147.363281 C 205.460938 147.566406 205.761719 151.007812 205.785156 151.445312 C 205.808594 151.882812 206.109375 152.167969 205.285156 152.601562 C 204.460938 153.039062 204.019531 153.277344 203.894531 153.179688 C 203.769531 153.082031 198.960938 149.347656 198.960938 149.347656 C 198.960938 149.347656 196.179688 149.925781 195.046875 150.210938 C 193.914062 150.492188 193 150.390625 192.820312 150.191406 C 192.640625 149.996094 192.632812 149.621094 192.828125 149.488281 C 193.027344 149.351562 195.378906 147.34375 195.378906 147.34375 L 182.695312 142.507812 C 182.695312 142.507812 182.6875 142.425781 182.984375 142.292969 C 183.28125 142.160156 184.371094 141.402344 185.640625 141.613281 C 186.914062 141.828125 195.128906 142.847656 195.128906 142.847656 L 191.152344 135.132812 C 191.152344 135.132812 193.9375 133.417969 194.375 133.453125 C 194.816406 133.484375 201.394531 136.804688 202.234375 137.285156 C 203.070312 137.765625 204.480469 138.53125 204.703125 138.5625 C 204.925781 138.59375 209.339844 137.949219 209.339844 137.949219 L 225.640625 128.613281 C 225.640625 128.613281 225.773438 128.679688 225.449219 128.300781 C 225.125 127.921875 224.675781 127.503906 224.066406 127.300781 C 223.453125 127.09375 223.105469 126.894531 223.105469 126.894531 C 223.105469 126.894531 221.269531 128.214844 221.078125 128.144531 C 220.890625 128.078125 220.679688 127.699219 220.847656 127.445312 C 221.011719 127.1875 221.507812 126.246094 221.507812 126.246094 L 215.488281 123.917969 C 215.488281 123.917969 213.765625 125.167969 213.300781 125.3125 C 212.832031 125.457031 212.988281 124.875 213.09375 124.601562 C 213.199219 124.332031 213.871094 123.347656 213.871094 123.347656 L 213.804688 123.261719 L 211.046875 122.214844 L 211.519531 121.238281 C 211.519531 121.238281 203.988281 118.527344 203.378906 118.152344 C 202.765625 117.773438 199.957031 115.304688 199.582031 115.011719 C 199.207031 114.71875 199.121094 114.609375 199.414062 114.523438 C 199.710938 114.433594 199.992188 114.363281 200.726562 114.769531 C 201.457031 115.171875 202.921875 116.097656 203.734375 116.253906 C 204.550781 116.410156 206.328125 116.121094 206.910156 116.277344 C 207.496094 116.433594 227.84375 120.203125 228.390625 120.324219 C 228.9375 120.445312 234.671875 121.40625 234.898438 121.335938 C 235.125 121.265625 237.757812 119.976562 238.21875 119.703125 C 238.21875 119.703125 238.085938 119.453125 238.332031 119.289062 C 238.578125 119.128906 239.339844 118.734375 239.53125 118.746094 C 239.71875 118.757812 239.667969 119.011719 240.527344 118.597656 C 241.382812 118.183594 242.707031 117.277344 243.960938 118.34375 " fill-opacity="1" fill-rule="nonzero"/></g><g transform="matrix(1, 0, 0, 1, 90, 237)"><g clip-path="url(#8b30065e4b)"><g fill="#004aad" fill-opacity="1"><g transform="translate(0.149295, 16.866565)"><g><path d="M 3.890625 0 L 3.890625 -10.3125 L 0.46875 -10.3125 L 0.46875 -11.4375 L 8.671875 -11.4375 L 8.671875 -10.3125 L 5.265625 -10.3125 L 5.265625 0 Z M 3.890625 0 "/></g></g></g><g fill="#004aad" fill-opacity="1"><g transform="translate(9.298896, 16.866565)"><g><path d="M 4.828125 0.203125 C 4.054688 0.203125 3.363281 0.03125 2.75 -0.3125 C 2.144531 -0.664062 1.664062 -1.160156 1.3125 -1.796875 C 0.957031 -2.441406 0.78125 -3.191406 0.78125 -4.046875 C 0.78125 -4.910156 0.957031 -5.660156 1.3125 -6.296875 C 1.675781 -6.929688 2.164062 -7.421875 2.78125 -7.765625 C 3.394531 -8.117188 4.085938 -8.296875 4.859375 -8.296875 C 5.617188 -8.296875 6.300781 -8.117188 6.90625 -7.765625 C 7.519531 -7.421875 8.003906 -6.929688 8.359375 -6.296875 C 8.710938 -5.660156 8.890625 -4.910156 8.890625 -4.046875 C 8.890625 -3.191406 8.707031 -2.441406 8.34375 -1.796875 C 7.988281 -1.160156 7.503906 -0.664062 6.890625 -0.3125 C 6.273438 0.03125 5.585938 0.203125 4.828125 0.203125 Z M 4.828125 -0.984375 C 5.296875 -0.984375 5.726562 -1.097656 6.125 -1.328125 C 6.53125 -1.554688 6.859375 -1.898438 7.109375 -2.359375 C 7.359375 -2.816406 7.484375 -3.378906 7.484375 -4.046875 C 7.484375 -4.722656 7.359375 -5.289062 7.109375 -5.75 C 6.867188 -6.207031 6.546875 -6.550781 6.140625 -6.78125 C 5.742188 -7.007812 5.316406 -7.125 4.859375 -7.125 C 4.390625 -7.125 3.953125 -7.007812 3.546875 -6.78125 C 3.140625 -6.550781 2.8125 -6.207031 2.5625 -5.75 C 2.3125 -5.289062 2.1875 -4.722656 2.1875 -4.046875 C 2.1875 -3.378906 2.3125 -2.816406 2.5625 -2.359375 C 2.8125 -1.898438 3.132812 -1.554688 3.53125 -1.328125 C 3.9375 -1.097656 4.367188 -0.984375 4.828125 -0.984375 Z M 4.828125 -0.984375 "/></g></g></g><g fill="#004aad" fill-opacity="1"><g transform="translate(18.971331, 16.866565)"><g><path d="M 4.09375 0.203125 C 3.125 0.203125 2.359375 -0.0859375 1.796875 -0.671875 C 1.234375 -1.253906 0.953125 -2.148438 0.953125 -3.359375 L 0.953125 -8.109375 L 2.328125 -8.109375 L 2.328125 -3.515625 C 2.328125 -1.828125 3.015625 -0.984375 4.390625 -0.984375 C 5.097656 -0.984375 5.679688 -1.234375 6.140625 -1.734375 C 6.609375 -2.242188 6.84375 -2.96875 6.84375 -3.90625 L 6.84375 -8.109375 L 8.21875 -8.109375 L 8.21875 0 L 6.984375 0 L 6.875 -1.453125 C 6.625 -0.941406 6.25 -0.535156 5.75 -0.234375 C 5.257812 0.0546875 4.707031 0.203125 4.09375 0.203125 Z M 4.09375 0.203125 "/></g></g></g><g fill="#004aad" fill-opacity="1"><g transform="translate(28.316982, 16.866565)"><g><path d="M 1.125 0 L 1.125 -8.109375 L 2.375 -8.109375 L 2.484375 -6.546875 C 2.734375 -7.085938 3.113281 -7.515625 3.625 -7.828125 C 4.132812 -8.140625 4.769531 -8.296875 5.53125 -8.296875 L 5.53125 -6.859375 L 5.140625 -6.859375 C 4.660156 -6.859375 4.21875 -6.773438 3.8125 -6.609375 C 3.414062 -6.441406 3.097656 -6.15625 2.859375 -5.75 C 2.617188 -5.34375 2.5 -4.789062 2.5 -4.09375 L 2.5 0 Z M 1.125 0 "/></g></g></g><g fill="#004aad" fill-opacity="1"><g transform="translate(34.247877, 16.866565)"><g/></g></g><g fill="#004aad" fill-opacity="1"><g transform="translate(38.577597, 16.866565)"><g><path d="M 4.59375 0.203125 C 3.8125 0.203125 3.125 0.0546875 2.53125 -0.234375 C 1.9375 -0.523438 1.472656 -0.925781 1.140625 -1.4375 C 0.804688 -1.957031 0.640625 -2.570312 0.640625 -3.28125 C 0.640625 -4.0625 0.863281 -4.753906 1.3125 -5.359375 C 1.769531 -5.960938 2.425781 -6.4375 3.28125 -6.78125 C 2.914062 -7.1875 2.648438 -7.570312 2.484375 -7.9375 C 2.316406 -8.300781 2.234375 -8.695312 2.234375 -9.125 C 2.234375 -9.851562 2.492188 -10.453125 3.015625 -10.921875 C 3.535156 -11.398438 4.242188 -11.640625 5.140625 -11.640625 C 5.734375 -11.640625 6.25 -11.523438 6.6875 -11.296875 C 7.125 -11.078125 7.460938 -10.769531 7.703125 -10.375 C 7.941406 -9.988281 8.050781 -9.539062 8.03125 -9.03125 L 6.671875 -9.03125 C 6.679688 -9.53125 6.53125 -9.90625 6.21875 -10.15625 C 5.90625 -10.40625 5.546875 -10.53125 5.140625 -10.53125 C 4.648438 -10.53125 4.269531 -10.394531 4 -10.125 C 3.726562 -9.863281 3.59375 -9.535156 3.59375 -9.140625 C 3.59375 -8.785156 3.6875 -8.441406 3.875 -8.109375 C 4.070312 -7.785156 4.359375 -7.425781 4.734375 -7.03125 L 8.359375 -3.390625 C 8.671875 -3.835938 9.007812 -4.382812 9.375 -5.03125 L 9.890625 -5.921875 L 11.34375 -5.921875 L 10.625 -4.640625 C 10.144531 -3.773438 9.6875 -3.054688 9.25 -2.484375 L 11.71875 0 L 9.984375 0 L 8.46875 -1.53125 C 7.882812 -0.914062 7.28125 -0.472656 6.65625 -0.203125 C 6.039062 0.0664062 5.351562 0.203125 4.59375 0.203125 Z M 2.015625 -3.328125 C 2.015625 -2.660156 2.253906 -2.101562 2.734375 -1.65625 C 3.210938 -1.207031 3.835938 -0.984375 4.609375 -0.984375 C 5.179688 -0.984375 5.703125 -1.09375 6.171875 -1.3125 C 6.648438 -1.539062 7.117188 -1.910156 7.578125 -2.421875 L 4.125 -5.9375 C 3.40625 -5.65625 2.875 -5.296875 2.53125 -4.859375 C 2.1875 -4.421875 2.015625 -3.910156 2.015625 -3.328125 Z M 2.015625 -3.328125 "/></g></g></g><g fill="#004aad" fill-opacity="1"><g transform="translate(50.537418, 16.866565)"><g/></g></g><g fill="#004aad" fill-opacity="1"><g transform="translate(54.867138, 16.866565)"><g><path d="M 3.890625 0 L 3.890625 -10.3125 L 0.46875 -10.3125 L 0.46875 -11.4375 L 8.671875 -11.4375 L 8.671875 -10.3125 L 5.265625 -10.3125 L 5.265625 0 Z M 3.890625 0 "/></g></g></g><g fill="#004aad" fill-opacity="1"><g transform="translate(64.016738, 16.866565)"><g><path d="M 1.125 0 L 1.125 -8.109375 L 2.375 -8.109375 L 2.484375 -6.546875 C 2.734375 -7.085938 3.113281 -7.515625 3.625 -7.828125 C 4.132812 -8.140625 4.769531 -8.296875 5.53125 -8.296875 L 5.53125 -6.859375 L 5.140625 -6.859375 C 4.660156 -6.859375 4.21875 -6.773438 3.8125 -6.609375 C 3.414062 -6.441406 3.097656 -6.15625 2.859375 -5.75 C 2.617188 -5.34375 2.5 -4.789062 2.5 -4.09375 L 2.5 0 Z M 1.125 0 "/></g></g></g><g fill="#004aad" fill-opacity="1"><g transform="translate(69.947633, 16.866565)"><g><path d="M 3.828125 0.203125 C 3.148438 0.203125 2.585938 0.0859375 2.140625 -0.140625 C 1.691406 -0.367188 1.359375 -0.675781 1.140625 -1.0625 C 0.921875 -1.445312 0.8125 -1.859375 0.8125 -2.296875 C 0.8125 -3.128906 1.128906 -3.769531 1.765625 -4.21875 C 2.398438 -4.664062 3.257812 -4.890625 4.34375 -4.890625 L 6.53125 -4.890625 L 6.53125 -4.984375 C 6.53125 -5.691406 6.34375 -6.226562 5.96875 -6.59375 C 5.601562 -6.957031 5.113281 -7.140625 4.5 -7.140625 C 3.957031 -7.140625 3.492188 -7.003906 3.109375 -6.734375 C 2.722656 -6.472656 2.484375 -6.085938 2.390625 -5.578125 L 0.984375 -5.578125 C 1.035156 -6.160156 1.234375 -6.65625 1.578125 -7.0625 C 1.921875 -7.46875 2.347656 -7.773438 2.859375 -7.984375 C 3.367188 -8.191406 3.914062 -8.296875 4.5 -8.296875 C 5.625 -8.296875 6.472656 -7.992188 7.046875 -7.390625 C 7.617188 -6.785156 7.90625 -5.984375 7.90625 -4.984375 L 7.90625 0 L 6.6875 0 L 6.609375 -1.453125 C 6.378906 -0.992188 6.039062 -0.601562 5.59375 -0.28125 C 5.15625 0.0390625 4.566406 0.203125 3.828125 0.203125 Z M 4.03125 -0.96875 C 4.5625 -0.96875 5.015625 -1.101562 5.390625 -1.375 C 5.765625 -1.644531 6.046875 -2 6.234375 -2.4375 C 6.429688 -2.875 6.53125 -3.332031 6.53125 -3.8125 L 6.53125 -3.828125 L 4.46875 -3.828125 C 3.65625 -3.828125 3.082031 -3.6875 2.75 -3.40625 C 2.414062 -3.125 2.25 -2.78125 2.25 -2.375 C 2.25 -1.945312 2.40625 -1.601562 2.71875 -1.34375 C 3.03125 -1.09375 3.46875 -0.96875 4.03125 -0.96875 Z M 4.03125 -0.96875 "/></g></g></g><g fill="#004aad" fill-opacity="1"><g transform="translate(78.786794, 16.866565)"><g><path d="M 3.46875 0 L 0.390625 -8.109375 L 1.828125 -8.109375 L 4.265625 -1.328125 L 6.71875 -8.109375 L 8.125 -8.109375 L 5.046875 0 Z M 3.46875 0 "/></g></g></g><g fill="#004aad" fill-opacity="1"><g transform="translate(87.299185, 16.866565)"><g><path d="M 4.765625 0.203125 C 3.992188 0.203125 3.304688 0.0234375 2.703125 -0.328125 C 2.109375 -0.679688 1.640625 -1.175781 1.296875 -1.8125 C 0.953125 -2.445312 0.78125 -3.191406 0.78125 -4.046875 C 0.78125 -4.898438 0.945312 -5.644531 1.28125 -6.28125 C 1.625 -6.914062 2.097656 -7.410156 2.703125 -7.765625 C 3.304688 -8.117188 4.007812 -8.296875 4.8125 -8.296875 C 5.59375 -8.296875 6.269531 -8.117188 6.84375 -7.765625 C 7.414062 -7.410156 7.851562 -6.945312 8.15625 -6.375 C 8.457031 -5.800781 8.609375 -5.179688 8.609375 -4.515625 C 8.609375 -4.390625 8.601562 -4.265625 8.59375 -4.140625 C 8.59375 -4.023438 8.59375 -3.894531 8.59375 -3.75 L 2.140625 -3.75 C 2.171875 -3.125 2.3125 -2.601562 2.5625 -2.1875 C 2.820312 -1.78125 3.144531 -1.472656 3.53125 -1.265625 C 3.925781 -1.066406 4.335938 -0.96875 4.765625 -0.96875 C 5.335938 -0.96875 5.8125 -1.097656 6.1875 -1.359375 C 6.570312 -1.617188 6.851562 -1.972656 7.03125 -2.421875 L 8.390625 -2.421875 C 8.171875 -1.671875 7.75 -1.046875 7.125 -0.546875 C 6.507812 -0.046875 5.722656 0.203125 4.765625 0.203125 Z M 4.765625 -7.140625 C 4.117188 -7.140625 3.539062 -6.941406 3.03125 -6.546875 C 2.519531 -6.148438 2.226562 -5.570312 2.15625 -4.8125 L 7.25 -4.8125 C 7.21875 -5.539062 6.96875 -6.109375 6.5 -6.515625 C 6.03125 -6.929688 5.453125 -7.140625 4.765625 -7.140625 Z M 4.765625 -7.140625 "/></g></g></g><g fill="#004aad" fill-opacity="1"><g transform="translate(96.59582, 16.866565)"><g><path d="M 1.125 0 L 1.125 -11.765625 L 2.5 -11.765625 L 2.5 0 Z M 1.125 0 "/></g></g></g></g></g></svg>