<svg xmlns="http://www.w3.org/2000/svg" xmlns:xlink="http://www.w3.org/1999/xlink" width="500" zoomAndPan="magnify" viewBox="0 0 375 374.999991" height="500" preserveAspectRatio="xMidYMid meet" version="1.0"><defs><g/><clipPath id="af9ef6b290"><path d="M 132 84.617188 L 243 84.617188 L 243 149 L 132 149 Z M 132 84.617188 " clip-rule="nonzero"/></clipPath><clipPath id="2400f96d86"><path d="M 111.039062 149 L 264 149 L 264 220 L 111.039062 220 Z M 111.039062 149 " clip-rule="nonzero"/></clipPath><clipPath id="93cda9111e"><rect x="0" width="173" y="0" height="37"/></clipPath><clipPath id="8c697ff34d"><rect x="0" width="110" y="0" height="25"/></clipPath></defs><g clip-path="url(#af9ef6b290)"><path fill="#000000" d="M 242.457031 124.117188 L 242.457031 147.164062 C 239.617188 147.484375 236.9375 148.019531 234.417969 148.71875 L 234.417969 128.242188 L 187.472656 94.480469 L 140.519531 128.242188 L 140.519531 148.71875 C 138.003906 148.019531 135.324219 147.484375 132.480469 147.109375 L 132.480469 124.117188 L 187.472656 84.617188 Z M 242.457031 124.117188 " fill-opacity="1" fill-rule="nonzero"/></g><g clip-path="url(#2400f96d86)"><path fill="#7ac943" d="M 263.894531 149.878906 C 263.894531 149.878906 252.480469 221.484375 196.367188 218.964844 C 199.636719 213.820312 205.640625 204.546875 212.765625 194.6875 C 214.695312 192.007812 216.679688 189.328125 218.769531 186.648438 C 223.808594 180 229.167969 173.410156 234.417969 167.996094 C 236.726562 165.582031 239.027344 163.386719 241.28125 161.457031 C 240.796875 161.832031 238.222656 163.65625 234.417969 166.65625 C 228.738281 171.105469 220.164062 178.070312 211.105469 186.648438 C 208.425781 189.164062 205.640625 191.898438 202.960938 194.6875 C 197.386719 200.367188 191.917969 206.476562 187.042969 212.855469 C 181.949219 206.476562 176.109375 200.3125 170.210938 194.6875 C 167.265625 191.84375 164.265625 189.164062 161.371094 186.648438 C 153.117188 179.464844 145.453125 173.675781 140.519531 170.085938 C 137.734375 168.050781 135.804688 166.710938 135.054688 166.226562 C 136.824219 167.675781 138.644531 169.335938 140.519531 171.105469 C 145.238281 175.605469 150.0625 181.019531 154.671875 186.648438 C 156.921875 189.273438 159.066406 192.007812 161.101562 194.6875 C 169.300781 205.191406 176 215.050781 178.628906 218.964844 C 122.515625 221.484375 111.097656 149.878906 111.097656 149.878906 C 119.03125 149.128906 126.105469 149.292969 132.480469 150.148438 C 135.324219 150.523438 138.003906 151.058594 140.519531 151.757812 C 162.441406 157.382812 174.394531 172.335938 180.878906 186.648438 C 182.113281 189.378906 183.128906 192.058594 184.039062 194.6875 C 185.757812 199.777344 186.828125 204.492188 187.472656 208.351562 C 188.167969 204.492188 189.238281 199.777344 190.953125 194.6875 C 191.8125 192.058594 192.882812 189.378906 194.117188 186.648438 C 200.601562 172.335938 212.554688 157.382812 234.417969 151.757812 C 236.9375 151.058594 239.617188 150.523438 242.457031 150.203125 C 248.835938 149.292969 255.964844 149.128906 263.894531 149.878906 Z M 263.894531 149.878906 " fill-opacity="1" fill-rule="nonzero"/></g><path fill="#000000" d="M 177.949219 134.378906 L 185.988281 134.378906 L 185.988281 142.417969 L 177.949219 142.417969 Z M 177.949219 134.378906 " fill-opacity="1" fill-rule="nonzero"/><path fill="#000000" d="M 189.007812 134.378906 L 197.046875 134.378906 L 197.046875 142.417969 L 189.007812 142.417969 Z M 189.007812 134.378906 " fill-opacity="1" fill-rule="nonzero"/><path fill="#000000" d="M 177.949219 145.382812 L 185.988281 145.382812 L 185.988281 153.421875 L 177.949219 153.421875 Z M 177.949219 145.382812 " fill-opacity="1" fill-rule="nonzero"/><path fill="#000000" d="M 189.007812 145.382812 L 197.046875 145.382812 L 197.046875 153.421875 L 189.007812 153.421875 Z M 189.007812 145.382812 " fill-opacity="1" fill-rule="nonzero"/><g transform="matrix(1, 0, 0, 1, 101, 233)"><g clip-path="url(#93cda9111e)"><g fill="#000000" fill-opacity="1"><g transform="translate(0.784868, 28.900737)"><g><path d="M 2.234375 0 L 2.234375 -20.65625 L 5.984375 -20.65625 L 5.984375 -3.078125 L 15.640625 -3.078125 L 15.640625 0 Z M 2.234375 0 "/></g></g></g><g fill="#000000" fill-opacity="1"><g transform="translate(17.031588, 28.900737)"><g><path d="M 1.96875 0 L 1.96875 -14.65625 L 5.578125 -14.65625 L 5.578125 0 Z M 1.734375 -21.296875 L 5.765625 -21.296875 L 5.765625 -17.71875 L 1.734375 -17.71875 Z M 1.734375 -21.296875 "/></g></g></g><g fill="#000000" fill-opacity="1"><g transform="translate(24.603726, 28.900737)"><g><path d="M 8.625 0.234375 C 7.09375 0.234375 5.765625 -0.0703125 4.640625 -0.6875 C 3.515625 -1.3125 2.648438 -2.1875 2.046875 -3.3125 C 1.453125 -4.445312 1.15625 -5.78125 1.15625 -7.3125 C 1.15625 -8.84375 1.46875 -10.1875 2.09375 -11.34375 C 2.726562 -12.507812 3.617188 -13.414062 4.765625 -14.0625 C 5.921875 -14.707031 7.253906 -15.03125 8.765625 -15.03125 C 9.804688 -15.03125 10.816406 -14.863281 11.796875 -14.53125 C 12.773438 -14.207031 13.550781 -13.753906 14.125 -13.171875 L 13.109375 -10.625 C 12.492188 -11.125 11.835938 -11.503906 11.140625 -11.765625 C 10.441406 -12.023438 9.753906 -12.15625 9.078125 -12.15625 C 7.765625 -12.15625 6.738281 -11.742188 6 -10.921875 C 5.269531 -10.097656 4.90625 -8.914062 4.90625 -7.375 C 4.90625 -5.820312 5.265625 -4.640625 5.984375 -3.828125 C 6.710938 -3.015625 7.742188 -2.609375 9.078125 -2.609375 C 9.753906 -2.609375 10.441406 -2.742188 11.140625 -3.015625 C 11.835938 -3.285156 12.492188 -3.671875 13.109375 -4.171875 L 14.125 -1.625 C 13.507812 -1.039062 12.707031 -0.582031 11.71875 -0.25 C 10.738281 0.0703125 9.707031 0.234375 8.625 0.234375 Z M 8.625 0.234375 "/></g></g></g><g fill="#000000" fill-opacity="1"><g transform="translate(39.196767, 28.900737)"><g><path d="M 14.796875 -7.140625 L 4.703125 -7.140625 C 4.773438 -5.566406 5.164062 -4.40625 5.875 -3.65625 C 6.582031 -2.914062 7.632812 -2.546875 9.03125 -2.546875 C 10.632812 -2.546875 12.125 -3.070312 13.5 -4.125 L 14.53125 -1.625 C 13.84375 -1.0625 12.988281 -0.609375 11.96875 -0.265625 C 10.957031 0.0664062 9.925781 0.234375 8.875 0.234375 C 6.476562 0.234375 4.59375 -0.441406 3.21875 -1.796875 C 1.84375 -3.148438 1.15625 -5.007812 1.15625 -7.375 C 1.15625 -8.863281 1.453125 -10.1875 2.046875 -11.34375 C 2.648438 -12.507812 3.492188 -13.414062 4.578125 -14.0625 C 5.660156 -14.707031 6.890625 -15.03125 8.265625 -15.03125 C 10.273438 -15.03125 11.863281 -14.375 13.03125 -13.0625 C 14.207031 -11.757812 14.796875 -9.96875 14.796875 -7.6875 Z M 8.359375 -12.421875 C 7.390625 -12.421875 6.597656 -12.132812 5.984375 -11.5625 C 5.378906 -10.988281 4.988281 -10.160156 4.8125 -9.078125 L 11.640625 -9.078125 C 11.523438 -10.179688 11.191406 -11.015625 10.640625 -11.578125 C 10.085938 -12.140625 9.328125 -12.421875 8.359375 -12.421875 Z M 8.359375 -12.421875 "/></g></g></g><g fill="#000000" fill-opacity="1"><g transform="translate(55.095344, 28.900737)"><g><path d="M 9.859375 -15 C 10.421875 -15 10.90625 -14.921875 11.3125 -14.765625 L 11.28125 -11.46875 C 10.664062 -11.71875 10.03125 -11.84375 9.375 -11.84375 C 8.132812 -11.84375 7.191406 -11.484375 6.546875 -10.765625 C 5.898438 -10.046875 5.578125 -9.097656 5.578125 -7.921875 L 5.578125 0 L 1.96875 0 L 1.96875 -10.5 C 1.96875 -12.050781 1.890625 -13.4375 1.734375 -14.65625 L 5.140625 -14.65625 L 5.421875 -12.078125 C 5.796875 -13.023438 6.378906 -13.75 7.171875 -14.25 C 7.960938 -14.75 8.859375 -15 9.859375 -15 Z M 9.859375 -15 "/></g></g></g><g fill="#000000" fill-opacity="1"><g transform="translate(66.468046, 28.900737)"><g><path d="M 1.96875 0 L 1.96875 -14.65625 L 5.578125 -14.65625 L 5.578125 0 Z M 1.734375 -21.296875 L 5.765625 -21.296875 L 5.765625 -17.71875 L 1.734375 -17.71875 Z M 1.734375 -21.296875 "/></g></g></g><g fill="#000000" fill-opacity="1"><g transform="translate(74.040183, 28.900737)"><g><path d="M 15.984375 -14.65625 L 15.984375 0 L 12.421875 0 L 12.421875 -2.34375 C 11.972656 -1.53125 11.332031 -0.894531 10.5 -0.4375 C 9.664062 0.0078125 8.71875 0.234375 7.65625 0.234375 C 6.382812 0.234375 5.253906 -0.0703125 4.265625 -0.6875 C 3.273438 -1.3125 2.507812 -2.191406 1.96875 -3.328125 C 1.425781 -4.472656 1.15625 -5.800781 1.15625 -7.3125 C 1.15625 -8.820312 1.429688 -10.160156 1.984375 -11.328125 C 2.535156 -12.503906 3.304688 -13.414062 4.296875 -14.0625 C 5.285156 -14.707031 6.40625 -15.03125 7.65625 -15.03125 C 8.71875 -15.03125 9.664062 -14.800781 10.5 -14.34375 C 11.332031 -13.894531 11.972656 -13.265625 12.421875 -12.453125 L 12.421875 -14.65625 Z M 8.640625 -2.609375 C 9.847656 -2.609375 10.78125 -3.023438 11.4375 -3.859375 C 12.09375 -4.691406 12.421875 -5.863281 12.421875 -7.375 C 12.421875 -8.914062 12.09375 -10.101562 11.4375 -10.9375 C 10.78125 -11.769531 9.84375 -12.1875 8.625 -12.1875 C 7.414062 -12.1875 6.476562 -11.753906 5.8125 -10.890625 C 5.144531 -10.035156 4.8125 -8.84375 4.8125 -7.3125 C 4.8125 -5.800781 5.144531 -4.640625 5.8125 -3.828125 C 6.476562 -3.015625 7.421875 -2.609375 8.640625 -2.609375 Z M 8.640625 -2.609375 "/></g></g></g><g fill="#000000" fill-opacity="1"><g transform="translate(99.947912, 28.900737)"><g><path d="M 18.75 0.265625 C 17.082031 -0.316406 15.648438 -1.148438 14.453125 -2.234375 C 12.648438 -0.585938 10.578125 0.234375 8.234375 0.234375 C 6.847656 0.234375 5.617188 0 4.546875 -0.46875 C 3.472656 -0.945312 2.640625 -1.613281 2.046875 -2.46875 C 1.453125 -3.320312 1.15625 -4.296875 1.15625 -5.390625 C 1.15625 -6.648438 1.503906 -7.765625 2.203125 -8.734375 C 2.898438 -9.703125 4.015625 -10.613281 5.546875 -11.46875 C 4.765625 -12.3125 4.203125 -13.09375 3.859375 -13.8125 C 3.515625 -14.53125 3.34375 -15.265625 3.34375 -16.015625 C 3.34375 -17.460938 3.863281 -18.628906 4.90625 -19.515625 C 5.945312 -20.410156 7.3125 -20.859375 9 -20.859375 C 10.539062 -20.859375 11.773438 -20.453125 12.703125 -19.640625 C 13.628906 -18.828125 14.09375 -17.742188 14.09375 -16.390625 C 14.09375 -15.347656 13.789062 -14.398438 13.1875 -13.546875 C 12.582031 -12.703125 11.582031 -11.875 10.1875 -11.0625 L 14.28125 -6.8125 C 15.09375 -8.457031 15.535156 -10.328125 15.609375 -12.421875 L 18.6875 -12.421875 C 18.550781 -9.398438 17.796875 -6.796875 16.421875 -4.609375 C 17.566406 -3.546875 18.941406 -2.753906 20.546875 -2.234375 Z M 9.03125 -18.359375 C 8.3125 -18.359375 7.734375 -18.144531 7.296875 -17.71875 C 6.859375 -17.300781 6.640625 -16.734375 6.640625 -16.015625 C 6.640625 -15.566406 6.757812 -15.128906 7 -14.703125 C 7.25 -14.285156 7.703125 -13.707031 8.359375 -12.96875 C 9.378906 -13.570312 10.097656 -14.117188 10.515625 -14.609375 C 10.929688 -15.097656 11.140625 -15.644531 11.140625 -16.25 C 11.140625 -16.882812 10.945312 -17.394531 10.5625 -17.78125 C 10.175781 -18.164062 9.664062 -18.359375 9.03125 -18.359375 Z M 4.703125 -5.59375 C 4.703125 -4.664062 5.03125 -3.929688 5.6875 -3.390625 C 6.34375 -2.847656 7.234375 -2.578125 8.359375 -2.578125 C 9.867188 -2.578125 11.234375 -3.140625 12.453125 -4.265625 L 7.375 -9.515625 C 6.445312 -8.929688 5.769531 -8.332031 5.34375 -7.71875 C 4.914062 -7.101562 4.703125 -6.394531 4.703125 -5.59375 Z M 4.703125 -5.59375 "/></g></g></g><g fill="#000000" fill-opacity="1"><g transform="translate(119.908169, 28.900737)"><g/></g></g><g fill="#000000" fill-opacity="1"><g transform="translate(127.857462, 28.900737)"><g><path d="M 11.609375 0.265625 C 9.578125 0.265625 7.800781 -0.164062 6.28125 -1.03125 C 4.757812 -1.90625 3.59375 -3.140625 2.78125 -4.734375 C 1.96875 -6.335938 1.5625 -8.210938 1.5625 -10.359375 C 1.5625 -12.484375 1.96875 -14.34375 2.78125 -15.9375 C 3.59375 -17.539062 4.757812 -18.769531 6.28125 -19.625 C 7.800781 -20.488281 9.578125 -20.921875 11.609375 -20.921875 C 13.003906 -20.921875 14.3125 -20.703125 15.53125 -20.265625 C 16.757812 -19.828125 17.78125 -19.222656 18.59375 -18.453125 L 17.375 -15.71875 C 16.445312 -16.476562 15.523438 -17.023438 14.609375 -17.359375 C 13.691406 -17.703125 12.710938 -17.875 11.671875 -17.875 C 9.671875 -17.875 8.125 -17.222656 7.03125 -15.921875 C 5.9375 -14.628906 5.390625 -12.773438 5.390625 -10.359375 C 5.390625 -7.921875 5.929688 -6.046875 7.015625 -4.734375 C 8.097656 -3.429688 9.648438 -2.78125 11.671875 -2.78125 C 12.710938 -2.78125 13.691406 -2.945312 14.609375 -3.28125 C 15.523438 -3.625 16.445312 -4.175781 17.375 -4.9375 L 18.59375 -2.203125 C 17.78125 -1.429688 16.757812 -0.828125 15.53125 -0.390625 C 14.3125 0.046875 13.003906 0.265625 11.609375 0.265625 Z M 11.609375 0.265625 "/></g></g></g><g fill="#000000" fill-opacity="1"><g transform="translate(147.73068, 28.900737)"><g><path d="M 8.625 0.234375 C 7.132812 0.234375 5.820312 -0.0703125 4.6875 -0.6875 C 3.550781 -1.3125 2.675781 -2.195312 2.0625 -3.34375 C 1.457031 -4.5 1.15625 -5.851562 1.15625 -7.40625 C 1.15625 -8.945312 1.457031 -10.289062 2.0625 -11.4375 C 2.675781 -12.59375 3.550781 -13.476562 4.6875 -14.09375 C 5.820312 -14.71875 7.132812 -15.03125 8.625 -15.03125 C 10.09375 -15.03125 11.382812 -14.71875 12.5 -14.09375 C 13.625 -13.476562 14.488281 -12.59375 15.09375 -11.4375 C 15.707031 -10.289062 16.015625 -8.945312 16.015625 -7.40625 C 16.015625 -5.851562 15.707031 -4.5 15.09375 -3.34375 C 14.488281 -2.195312 13.625 -1.3125 12.5 -0.6875 C 11.382812 -0.0703125 10.09375 0.234375 8.625 0.234375 Z M 8.59375 -2.609375 C 9.832031 -2.609375 10.773438 -3.007812 11.421875 -3.8125 C 12.066406 -4.613281 12.390625 -5.8125 12.390625 -7.40625 C 12.390625 -8.96875 12.0625 -10.160156 11.40625 -10.984375 C 10.75 -11.804688 9.820312 -12.21875 8.625 -12.21875 C 7.40625 -12.21875 6.460938 -11.804688 5.796875 -10.984375 C 5.140625 -10.160156 4.8125 -8.96875 4.8125 -7.40625 C 4.8125 -5.8125 5.132812 -4.613281 5.78125 -3.8125 C 6.4375 -3.007812 7.375 -2.609375 8.59375 -2.609375 Z M 8.59375 -2.609375 "/></g></g></g><g fill="#000000" fill-opacity="1"><g transform="translate(164.90579, 28.900737)"><g><path d="M 1.59375 -4.0625 L 5.65625 -4.0625 L 5.65625 0 L 1.59375 0 Z M 1.59375 -4.0625 "/></g></g></g></g></g><g transform="matrix(1, 0, 0, 1, 134, 267)"><g clip-path="url(#8c697ff34d)"><g fill="#000000" fill-opacity="1"><g transform="translate(1.003282, 18.700929)"><g><path d="M 11.03125 -13.171875 L 12.546875 -13.171875 L 12.546875 0 L 11.03125 0 L 11.03125 -6.046875 L 3.125 -6.046875 L 3.125 0 L 1.625 0 L 1.625 -13.171875 L 3.125 -13.171875 L 3.125 -7.328125 L 11.03125 -7.328125 Z M 11.03125 -13.171875 "/></g></g></g><g fill="#000000" fill-opacity="1"><g transform="translate(17.64848, 18.700929)"><g><path d="M 5.296875 0.125 C 4.421875 0.125 3.648438 -0.0664062 2.984375 -0.453125 C 2.316406 -0.847656 1.800781 -1.410156 1.4375 -2.140625 C 1.070312 -2.867188 0.890625 -3.722656 0.890625 -4.703125 C 0.890625 -5.671875 1.070312 -6.519531 1.4375 -7.25 C 1.800781 -7.976562 2.316406 -8.539062 2.984375 -8.9375 C 3.648438 -9.332031 4.421875 -9.53125 5.296875 -9.53125 C 6.171875 -9.53125 6.941406 -9.332031 7.609375 -8.9375 C 8.273438 -8.539062 8.785156 -7.976562 9.140625 -7.25 C 9.503906 -6.519531 9.6875 -5.671875 9.6875 -4.703125 C 9.6875 -3.722656 9.503906 -2.867188 9.140625 -2.140625 C 8.785156 -1.410156 8.273438 -0.847656 7.609375 -0.453125 C 6.941406 -0.0664062 6.171875 0.125 5.296875 0.125 Z M 5.296875 -1.109375 C 6.210938 -1.109375 6.914062 -1.410156 7.40625 -2.015625 C 7.90625 -2.628906 8.15625 -3.523438 8.15625 -4.703125 C 8.15625 -5.835938 7.898438 -6.710938 7.390625 -7.328125 C 6.890625 -7.953125 6.191406 -8.265625 5.296875 -8.265625 C 4.378906 -8.265625 3.664062 -7.953125 3.15625 -7.328125 C 2.65625 -6.710938 2.40625 -5.835938 2.40625 -4.703125 C 2.40625 -3.523438 2.65625 -2.628906 3.15625 -2.015625 C 3.65625 -1.410156 4.367188 -1.109375 5.296875 -1.109375 Z M 5.296875 -1.109375 "/></g></g></g><g fill="#000000" fill-opacity="1"><g transform="translate(30.705992, 18.700929)"><g><path d="M 11.765625 -9.53125 C 13.828125 -9.53125 14.859375 -8.300781 14.859375 -5.84375 L 14.859375 0 L 13.359375 0 L 13.359375 -5.765625 C 13.359375 -6.640625 13.207031 -7.273438 12.90625 -7.671875 C 12.601562 -8.066406 12.113281 -8.265625 11.4375 -8.265625 C 10.644531 -8.265625 10.023438 -8 9.578125 -7.46875 C 9.140625 -6.9375 8.921875 -6.21875 8.921875 -5.3125 L 8.921875 0 L 7.421875 0 L 7.421875 -5.765625 C 7.421875 -6.628906 7.265625 -7.257812 6.953125 -7.65625 C 6.648438 -8.0625 6.15625 -8.265625 5.46875 -8.265625 C 4.6875 -8.265625 4.066406 -8 3.609375 -7.46875 C 3.160156 -6.9375 2.9375 -6.21875 2.9375 -5.3125 L 2.9375 0 L 1.4375 0 L 1.4375 -6.703125 C 1.4375 -7.660156 1.390625 -8.53125 1.296875 -9.3125 L 2.71875 -9.3125 L 2.875 -7.671875 C 3.125 -8.265625 3.503906 -8.722656 4.015625 -9.046875 C 4.535156 -9.367188 5.132812 -9.53125 5.8125 -9.53125 C 6.550781 -9.53125 7.15625 -9.378906 7.625 -9.078125 C 8.09375 -8.785156 8.4375 -8.332031 8.65625 -7.71875 C 8.9375 -8.269531 9.351562 -8.707031 9.90625 -9.03125 C 10.457031 -9.363281 11.078125 -9.53125 11.765625 -9.53125 Z M 11.765625 -9.53125 "/></g></g></g><g fill="#000000" fill-opacity="1"><g transform="translate(49.440927, 18.700929)"><g><path d="M 9.234375 -4.703125 L 2.40625 -4.703125 C 2.414062 -3.515625 2.6875 -2.617188 3.21875 -2.015625 C 3.757812 -1.410156 4.539062 -1.109375 5.5625 -1.109375 C 6.65625 -1.109375 7.65625 -1.472656 8.5625 -2.203125 L 9.0625 -1.109375 C 8.65625 -0.722656 8.132812 -0.421875 7.5 -0.203125 C 6.863281 0.015625 6.210938 0.125 5.546875 0.125 C 4.085938 0.125 2.945312 -0.300781 2.125 -1.15625 C 1.300781 -2.007812 0.890625 -3.1875 0.890625 -4.6875 C 0.890625 -5.632812 1.070312 -6.472656 1.4375 -7.203125 C 1.8125 -7.941406 2.332031 -8.515625 3 -8.921875 C 3.664062 -9.328125 4.421875 -9.53125 5.265625 -9.53125 C 6.503906 -9.53125 7.472656 -9.125 8.171875 -8.3125 C 8.878906 -7.507812 9.234375 -6.394531 9.234375 -4.96875 Z M 5.296875 -8.359375 C 4.515625 -8.359375 3.878906 -8.125 3.390625 -7.65625 C 2.898438 -7.1875 2.585938 -6.523438 2.453125 -5.671875 L 7.875 -5.671875 C 7.800781 -6.554688 7.546875 -7.222656 7.109375 -7.671875 C 6.671875 -8.128906 6.066406 -8.359375 5.296875 -8.359375 Z M 5.296875 -8.359375 "/></g></g></g><g fill="#000000" fill-opacity="1"><g transform="translate(61.980634, 18.700929)"><g><path d="M 4.59375 0.125 C 3.019531 0.125 1.78125 -0.273438 0.875 -1.078125 L 1.375 -2.1875 C 1.875 -1.789062 2.382812 -1.503906 2.90625 -1.328125 C 3.425781 -1.160156 4.003906 -1.078125 4.640625 -1.078125 C 5.347656 -1.078125 5.882812 -1.195312 6.25 -1.4375 C 6.613281 -1.675781 6.796875 -2.023438 6.796875 -2.484375 C 6.796875 -2.847656 6.671875 -3.140625 6.421875 -3.359375 C 6.171875 -3.585938 5.765625 -3.765625 5.203125 -3.890625 L 3.625 -4.25 C 2.84375 -4.425781 2.238281 -4.734375 1.8125 -5.171875 C 1.394531 -5.617188 1.1875 -6.148438 1.1875 -6.765625 C 1.1875 -7.578125 1.507812 -8.238281 2.15625 -8.75 C 2.8125 -9.269531 3.675781 -9.53125 4.75 -9.53125 C 5.40625 -9.53125 6.019531 -9.425781 6.59375 -9.21875 C 7.175781 -9.007812 7.664062 -8.707031 8.0625 -8.3125 L 7.5625 -7.21875 C 6.6875 -7.945312 5.75 -8.3125 4.75 -8.3125 C 4.082031 -8.3125 3.566406 -8.179688 3.203125 -7.921875 C 2.835938 -7.671875 2.65625 -7.316406 2.65625 -6.859375 C 2.65625 -6.484375 2.769531 -6.179688 3 -5.953125 C 3.226562 -5.734375 3.597656 -5.5625 4.109375 -5.4375 L 5.671875 -5.046875 C 6.535156 -4.847656 7.175781 -4.539062 7.59375 -4.125 C 8.019531 -3.71875 8.234375 -3.179688 8.234375 -2.515625 C 8.234375 -1.710938 7.90625 -1.070312 7.25 -0.59375 C 6.59375 -0.113281 5.707031 0.125 4.59375 0.125 Z M 4.59375 0.125 "/></g></g></g><g fill="#000000" fill-opacity="1"><g transform="translate(73.632659, 18.700929)"><g><path d="M 3.4375 -8.125 L 3.4375 -3.03125 C 3.4375 -2.34375 3.578125 -1.859375 3.859375 -1.578125 C 4.148438 -1.304688 4.550781 -1.171875 5.0625 -1.171875 C 5.414062 -1.171875 5.75 -1.222656 6.0625 -1.328125 L 6.0625 -0.0625 C 5.6875 0.0625 5.253906 0.125 4.765625 0.125 C 3.878906 0.125 3.1875 -0.125 2.6875 -0.625 C 2.1875 -1.125 1.9375 -1.859375 1.9375 -2.828125 L 1.9375 -8.125 L 0.125 -8.125 L 0.125 -9.3125 L 1.9375 -9.3125 L 1.9375 -11.6875 L 3.4375 -12.234375 L 3.4375 -9.3125 L 6.109375 -9.3125 L 6.109375 -8.125 Z M 3.4375 -8.125 "/></g></g></g><g fill="#000000" fill-opacity="1"><g transform="translate(82.58468, 18.700929)"><g><path d="M 9.640625 -9.3125 L 9.640625 0 L 8.15625 0 L 8.15625 -1.6875 C 7.882812 -1.101562 7.472656 -0.65625 6.921875 -0.34375 C 6.378906 -0.03125 5.742188 0.125 5.015625 0.125 C 4.191406 0.125 3.46875 -0.0664062 2.84375 -0.453125 C 2.21875 -0.847656 1.734375 -1.40625 1.390625 -2.125 C 1.054688 -2.851562 0.890625 -3.695312 0.890625 -4.65625 C 0.890625 -5.625 1.0625 -6.472656 1.40625 -7.203125 C 1.75 -7.941406 2.234375 -8.515625 2.859375 -8.921875 C 3.484375 -9.328125 4.203125 -9.53125 5.015625 -9.53125 C 5.742188 -9.53125 6.378906 -9.367188 6.921875 -9.046875 C 7.460938 -8.722656 7.875 -8.273438 8.15625 -7.703125 L 8.15625 -9.3125 Z M 5.3125 -1.109375 C 6.21875 -1.109375 6.914062 -1.421875 7.40625 -2.046875 C 7.90625 -2.671875 8.15625 -3.554688 8.15625 -4.703125 C 8.15625 -5.847656 7.90625 -6.726562 7.40625 -7.34375 C 6.914062 -7.957031 6.21875 -8.265625 5.3125 -8.265625 C 4.394531 -8.265625 3.679688 -7.945312 3.171875 -7.3125 C 2.660156 -6.675781 2.40625 -5.789062 2.40625 -4.65625 C 2.40625 -3.519531 2.65625 -2.644531 3.15625 -2.03125 C 3.664062 -1.414062 4.382812 -1.109375 5.3125 -1.109375 Z M 5.3125 -1.109375 "/></g></g></g><g fill="#000000" fill-opacity="1"><g transform="translate(96.160007, 18.700929)"><g><path d="M 9.625 -9.3125 L 5.265625 0.84375 C 4.816406 1.90625 4.242188 2.679688 3.546875 3.171875 C 2.859375 3.671875 2.007812 4.015625 1 4.203125 L 0.6875 3.03125 C 1.5625 2.832031 2.222656 2.566406 2.671875 2.234375 C 3.117188 1.910156 3.492188 1.410156 3.796875 0.734375 L 4.15625 -0.09375 L 0.21875 -9.3125 L 1.796875 -9.3125 L 4.9375 -1.625 L 8.125 -9.3125 Z M 9.625 -9.3125 "/></g></g></g></g></g></svg>