<svg xmlns="http://www.w3.org/2000/svg" xmlns:xlink="http://www.w3.org/1999/xlink" width="500" zoomAndPan="magnify" viewBox="0 0 375 374.999991" height="500" preserveAspectRatio="xMidYMid meet" version="1.0"><defs><g/><clipPath id="cf938c5579"><path d="M 222.265625 197.136719 L 239.515625 197.136719 L 239.515625 214.386719 L 222.265625 214.386719 Z M 222.265625 197.136719 " clip-rule="nonzero"/></clipPath><clipPath id="a7a6602235"><rect x="0" width="119" y="0" height="203"/></clipPath><clipPath id="d5df28ae3c"><rect x="0" width="86" y="0" height="203"/></clipPath><clipPath id="3dada385c9"><rect x="0" width="105" y="0" height="209"/></clipPath><clipPath id="9692882d39"><rect x="0" width="69" y="0" height="43"/></clipPath><clipPath id="fadea03a92"><rect x="0" width="48" y="0" height="30"/></clipPath></defs><g clip-path="url(#cf938c5579)"><path fill="#f6d636" d="M 222.28125 206.074219 C 222.453125 205.957031 222.664062 205.929688 222.859375 205.878906 C 223.242188 205.773438 223.640625 205.726562 224.019531 205.59375 C 224.609375 205.382812 225.214844 205.199219 225.78125 204.929688 C 226.410156 204.632812 227.011719 204.289062 227.585938 203.894531 C 227.839844 203.71875 228.082031 203.527344 228.304688 203.3125 C 228.730469 202.902344 229.082031 202.4375 229.363281 201.917969 C 229.65625 201.367188 229.832031 200.773438 230.019531 200.1875 C 230.234375 199.5 230.417969 198.804688 230.5625 198.101562 C 230.609375 197.871094 230.628906 197.632812 230.664062 197.402344 C 230.683594 197.308594 230.730469 197.234375 230.804688 197.175781 C 230.855469 197.132812 230.90625 197.164062 230.945312 197.25 C 231.042969 197.472656 231.121094 197.703125 231.179688 197.9375 C 231.351562 198.558594 231.542969 199.175781 231.761719 199.777344 C 231.933594 200.230469 232.136719 200.664062 232.367188 201.085938 C 232.492188 201.324219 233.253906 202.65625 233.417969 202.855469 C 233.808594 203.359375 234.292969 203.753906 234.859375 204.039062 C 235.148438 204.179688 235.449219 204.292969 235.757812 204.375 C 236.175781 204.492188 236.589844 204.644531 237.003906 204.769531 C 237.527344 204.929688 238.0625 205.050781 238.605469 205.128906 C 238.882812 205.179688 239.152344 205.246094 239.421875 205.328125 C 239.496094 205.351562 239.507812 205.40625 239.460938 205.46875 C 239.417969 205.507812 239.371094 205.535156 239.316406 205.550781 C 239.125 205.625 238.929688 205.683594 238.730469 205.726562 C 238.183594 205.875 237.652344 206.0625 237.132812 206.296875 C 236.421875 206.601562 235.761719 207 235.15625 207.492188 C 234.949219 207.664062 234.726562 207.824219 234.507812 207.988281 C 234.1875 208.230469 233.953125 208.550781 233.710938 208.871094 C 232.777344 210.0625 231.761719 213.867188 231.699219 214.179688 C 231.691406 214.210938 231.683594 214.242188 231.671875 214.273438 C 231.652344 214.316406 231.636719 214.378906 231.589844 214.378906 C 231.535156 214.367188 231.496094 214.335938 231.472656 214.28125 C 231.132812 213.601562 230.761719 212.9375 230.371094 212.289062 C 230.011719 211.691406 229.667969 211.085938 229.28125 210.503906 C 228.9375 209.980469 228.566406 209.476562 228.167969 208.992188 C 227.613281 208.339844 226.949219 207.824219 226.183594 207.453125 C 225.660156 207.199219 225.117188 206.992188 224.558594 206.835938 C 224.082031 206.703125 223.609375 206.539062 223.128906 206.402344 C 222.90625 206.339844 222.691406 206.242188 222.449219 206.246094 C 222.382812 206.25 222.332031 206.191406 222.28125 206.152344 Z M 222.28125 206.074219 " fill-opacity="1" fill-rule="nonzero"/></g><g transform="matrix(1, 0, 0, 1, 177, 92)"><g clip-path="url(#a7a6602235)"><g fill="#f93d3a" fill-opacity="1"><g transform="translate(1.979158, 161.18101)"><g><path d="M 5.890625 -68.1875 C 7.878906 -72.164062 10.125 -76.019531 12.625 -79.75 C 15.070312 -83.414062 17.929688 -86.859375 21.203125 -90.078125 C 22.628906 -91.503906 24.03125 -92.832031 25.40625 -94.0625 C 34.1875 -101.914062 44.1875 -107.347656 55.40625 -110.359375 C 65.050781 -112.960938 74.3125 -112.988281 83.1875 -110.4375 C 87.46875 -109.207031 91.703125 -106.9375 95.890625 -103.625 C 100.078125 -100.300781 103.238281 -96.648438 105.375 -92.671875 C 106.757812 -90.078125 107.78125 -87.300781 108.4375 -84.34375 C 109.050781 -81.375 109.515625 -78.4375 109.828125 -75.53125 C 110.640625 -65.476562 109.71875 -56.375 107.0625 -48.21875 C 105.425781 -43.320312 103.054688 -38.550781 99.953125 -33.90625 C 96.785156 -29.207031 93.519531 -25.023438 90.15625 -21.359375 C 85.101562 -15.847656 79.363281 -11.203125 72.9375 -7.421875 C 66.457031 -3.648438 59.46875 -1.378906 51.96875 -0.609375 C 44.414062 0.00390625 37.117188 -0.914062 30.078125 -3.375 C 24.722656 -5.207031 19.75 -7.804688 15.15625 -11.171875 C 10.507812 -14.484375 6.9375 -18.742188 4.4375 -23.953125 C 2.039062 -28.953125 0.6875 -34.820312 0.375 -41.5625 C 0.0195312 -51.300781 1.859375 -60.175781 5.890625 -68.1875 Z M 35.8125 -51.890625 C 35.8125 -46.941406 38.59375 -41.8125 44.15625 -36.5 C 49.664062 -31.195312 55.253906 -29.972656 60.921875 -32.828125 C 64.585938 -34.671875 66.804688 -37.195312 67.578125 -40.40625 C 68.335938 -43.625 68.1875 -46.992188 67.125 -50.515625 C 65.84375 -54.492188 63.492188 -57.78125 60.078125 -60.375 C 56.660156 -62.925781 53.164062 -64.429688 49.59375 -64.890625 C 45.96875 -65.359375 42.78125 -64.597656 40.03125 -62.609375 C 37.21875 -60.566406 35.8125 -56.992188 35.8125 -51.890625 Z M 35.8125 -51.890625 "/></g></g></g></g></g><g transform="matrix(1, 0, 0, 1, 118, 96)"><g clip-path="url(#d5df28ae3c)"><g fill="#31a768" fill-opacity="1"><g transform="translate(0.870885, 160.480351)"><g><path d="M 31.6875 -72.171875 C 34.4375 -72.734375 37.191406 -72.988281 39.953125 -72.9375 C 46.222656 -72.78125 51.960938 -71.070312 57.171875 -67.8125 C 62.679688 -64.34375 67.015625 -59.75 70.171875 -54.03125 C 73.335938 -48.257812 75.710938 -42.46875 77.296875 -36.65625 C 78.367188 -32.570312 79.441406 -26.910156 80.515625 -19.671875 C 81.535156 -12.421875 81.226562 -6.832031 79.59375 -2.90625 C 79.03125 -1.53125 78.0625 -0.710938 76.6875 -0.453125 C 74.289062 -0.046875 71.351562 -0.378906 67.875 -1.453125 C 64.363281 -2.523438 61.914062 -3.671875 60.53125 -4.890625 C 59.925781 -5.359375 59.492188 -5.921875 59.234375 -6.578125 C 58.722656 -7.492188 58.519531 -8.515625 58.625 -9.640625 C 58.675781 -10.765625 58.753906 -11.8125 58.859375 -12.78125 C 59.265625 -16.457031 59.160156 -20.359375 58.546875 -24.484375 C 57.929688 -28.566406 57.039062 -32.367188 55.875 -35.890625 C 55.050781 -38.285156 54.078125 -40.328125 52.953125 -42.015625 C 49.484375 -47.523438 45.757812 -50.078125 41.78125 -49.671875 C 37.800781 -49.210938 35.226562 -44.644531 34.0625 -35.96875 C 33.695312 -31.125 34.816406 -24.03125 37.421875 -14.6875 C 37.773438 -13.46875 38.160156 -12.195312 38.578125 -10.875 C 38.929688 -9.488281 39.160156 -8.160156 39.265625 -6.890625 C 39.316406 -4.492188 38.296875 -2.785156 36.203125 -1.765625 C 34.054688 -0.742188 31.582031 -0.15625 28.78125 0 C 25.96875 0.15625 23.1875 -0.0195312 20.4375 -0.53125 C 17.675781 -1.039062 15.738281 -1.65625 14.625 -2.375 C 12.53125 -3.644531 10.972656 -5.53125 9.953125 -8.03125 C 8.878906 -10.53125 8.035156 -12.976562 7.421875 -15.375 C 6.242188 -19.96875 5.328125 -25.8125 4.671875 -32.90625 C 4.003906 -39.945312 3.617188 -47.242188 3.515625 -54.796875 C 3.421875 -62.347656 3.578125 -69.617188 3.984375 -76.609375 C 4.390625 -83.546875 5.078125 -89.15625 6.046875 -93.4375 C 6.960938 -97.414062 8.007812 -100.53125 9.1875 -102.78125 C 10.207031 -104.613281 11.457031 -105.863281 12.9375 -106.53125 C 14.71875 -107.34375 16.804688 -107.828125 19.203125 -107.984375 C 21.554688 -108.140625 23.675781 -108.113281 25.5625 -107.90625 C 28.3125 -107.601562 30.476562 -106.8125 32.0625 -105.53125 C 33.644531 -104.257812 34.179688 -101.757812 33.671875 -98.03125 C 32.546875 -89.914062 31.882812 -81.296875 31.6875 -72.171875 Z M 31.6875 -72.171875 "/></g></g></g></g></g><g transform="matrix(1, 0, 0, 1, 251, 88)"><g clip-path="url(#3dada385c9)"><g fill="#e8678f" fill-opacity="1"><g transform="translate(13.447642, 167.386364)"><g><path d="M 30.453125 -34.0625 C 28.972656 -33.144531 28.378906 -32.335938 28.671875 -31.640625 C 31.785156 -27.035156 35.304688 -24.046875 39.234375 -22.671875 C 43.160156 -21.304688 47.65625 -21.039062 52.71875 -21.875 C 56.613281 -22.476562 61.140625 -24.769531 66.296875 -28.75 C 71.453125 -32.65625 76.046875 -32.800781 80.078125 -29.1875 C 84.097656 -25.519531 83.675781 -21.378906 78.8125 -16.765625 C 73.894531 -12.140625 70.003906 -9.097656 67.140625 -7.640625 C 64.222656 -6.160156 60.9375 -5.148438 57.28125 -4.609375 C 53.65625 -4.015625 50.046875 -3.78125 46.453125 -3.90625 C 41.597656 -3.988281 36.875 -4.769531 32.28125 -6.25 C 28.707031 -7.351562 25.25 -8.945312 21.90625 -11.03125 C 18.550781 -13.050781 15.539062 -15.613281 12.875 -18.71875 C 7.945312 -24.414062 4.476562 -30.882812 2.46875 -38.125 C 0.257812 -49.226562 2.414062 -58.882812 8.9375 -67.09375 C 12.757812 -71.175781 17.148438 -74.351562 22.109375 -76.625 C 27.023438 -78.820312 32.972656 -80.613281 39.953125 -82 C 46.910156 -83.382812 54.125 -82.457031 61.59375 -79.21875 C 69.070312 -75.914062 73.925781 -70.53125 76.15625 -63.0625 C 78.394531 -55.59375 79.039062 -50.421875 78.09375 -47.546875 C 77.15625 -44.617188 75.367188 -42.710938 72.734375 -41.828125 C 70.078125 -40.878906 55.984375 -38.289062 30.453125 -34.0625 Z M 45.328125 -62.953125 C 38.890625 -62.992188 34.351562 -61.617188 31.71875 -58.828125 C 29.039062 -56.003906 27.378906 -53.722656 26.734375 -51.984375 C 26.546875 -51.617188 26.753906 -51.117188 27.359375 -50.484375 C 27.960938 -49.867188 38.1875 -51.539062 58.03125 -55.5 C 55.957031 -60.375 51.722656 -62.859375 45.328125 -62.953125 Z M 52.90625 -113.6875 C 56.550781 -110.25 59.816406 -105.609375 62.703125 -99.765625 C 63.359375 -98.316406 62.773438 -97.097656 60.953125 -96.109375 C 57.304688 -94.035156 53.515625 -92.175781 49.578125 -90.53125 C 45.585938 -88.894531 41.601562 -87.226562 37.625 -85.53125 C 36.78125 -85.175781 35.441406 -85.414062 33.609375 -86.25 C 30.816406 -87.351562 28.378906 -89.421875 26.296875 -92.453125 C 25.671875 -93.378906 25.671875 -94.171875 26.296875 -94.828125 C 32.128906 -100.890625 39.257812 -107.085938 47.6875 -113.421875 C 49.789062 -114.941406 51.53125 -115.03125 52.90625 -113.6875 Z M 52.90625 -113.6875 "/></g></g></g></g></g><g transform="matrix(1, 0, 0, 1, 209, 236)"><g clip-path="url(#9692882d39)"><g fill="#25754a" fill-opacity="1"><g transform="translate(5.329873, 32.455702)"><g><path d="M 5.28125 -5.828125 C 5.53125 -5.765625 5.734375 -5.679688 5.890625 -5.578125 C 6.066406 -5.472656 6.148438 -5.347656 6.140625 -5.203125 C 6.128906 -5.023438 6.109375 -4.851562 6.078125 -4.6875 C 6.035156 -4.519531 5.972656 -4.359375 5.890625 -4.203125 C 5.753906 -3.992188 5.628906 -3.890625 5.515625 -3.890625 C 5.398438 -3.890625 5.296875 -3.914062 5.203125 -3.96875 C 5.097656 -4 5 -4.035156 4.90625 -4.078125 C 4.707031 -4.148438 4.429688 -4.191406 4.078125 -4.203125 C 3.722656 -4.191406 3.390625 -4.125 3.078125 -4 C 2.765625 -3.875 2.519531 -3.675781 2.34375 -3.40625 C 2.164062 -3.113281 2.15625 -2.726562 2.3125 -2.25 C 2.414062 -1.894531 2.65625 -1.632812 3.03125 -1.46875 C 3.394531 -1.289062 3.769531 -1.21875 4.15625 -1.25 C 4.46875 -1.269531 4.789062 -1.375 5.125 -1.5625 C 5.457031 -1.738281 5.785156 -1.648438 6.109375 -1.296875 C 6.285156 -1.097656 6.269531 -0.90625 6.0625 -0.71875 C 5.863281 -0.53125 5.6875 -0.390625 5.53125 -0.296875 C 5.425781 -0.222656 5.320312 -0.160156 5.21875 -0.109375 C 4.9375 0.0234375 4.65625 0.0976562 4.375 0.109375 C 4.09375 0.128906 3.816406 0.117188 3.546875 0.078125 C 3.171875 0.0234375 2.820312 -0.0703125 2.5 -0.21875 C 2.226562 -0.332031 1.976562 -0.484375 1.75 -0.671875 C 1.5 -0.847656 1.285156 -1.0625 1.109375 -1.3125 C 0.785156 -1.789062 0.570312 -2.3125 0.46875 -2.875 C 0.3125 -3.757812 0.554688 -4.484375 1.203125 -5.046875 C 1.515625 -5.316406 1.875 -5.519531 2.28125 -5.65625 C 2.664062 -5.789062 3.046875 -5.878906 3.421875 -5.921875 C 3.722656 -5.960938 4.035156 -5.976562 4.359375 -5.96875 C 4.671875 -5.957031 4.976562 -5.910156 5.28125 -5.828125 Z M 5.28125 -5.828125 "/></g></g></g><g fill="#25754a" fill-opacity="1"><g transform="translate(13.760785, 32.626016)"><g><path d="M 1.890625 -5.21875 C 2.328125 -5.53125 2.753906 -5.691406 3.171875 -5.703125 C 3.566406 -5.710938 3.867188 -5.625 4.078125 -5.4375 C 4.285156 -5.25 4.328125 -4.972656 4.203125 -4.609375 C 4.078125 -4.242188 3.875 -4.082031 3.59375 -4.125 C 3.3125 -4.164062 3.03125 -4.125 2.75 -4 C 2.457031 -3.863281 2.296875 -3.546875 2.265625 -3.046875 C 2.242188 -2.535156 2.351562 -1.941406 2.59375 -1.265625 C 2.625 -1.171875 2.660156 -1.078125 2.703125 -0.984375 C 2.722656 -0.878906 2.742188 -0.78125 2.765625 -0.6875 C 2.773438 -0.507812 2.707031 -0.375 2.5625 -0.28125 C 2.40625 -0.195312 2.222656 -0.144531 2.015625 -0.125 C 1.804688 -0.101562 1.601562 -0.109375 1.40625 -0.140625 C 1.195312 -0.148438 1.046875 -0.179688 0.953125 -0.234375 C 0.796875 -0.316406 0.675781 -0.453125 0.59375 -0.640625 C 0.488281 -0.816406 0.410156 -0.992188 0.359375 -1.171875 C 0.253906 -1.503906 0.160156 -1.929688 0.078125 -2.453125 C -0.00390625 -2.972656 -0.0546875 -3.425781 -0.078125 -3.8125 C -0.109375 -4.1875 -0.113281 -4.515625 -0.09375 -4.796875 C -0.09375 -5.085938 -0.0507812 -5.320312 0.03125 -5.5 C 0.09375 -5.632812 0.175781 -5.726562 0.28125 -5.78125 C 0.40625 -5.84375 0.554688 -5.882812 0.734375 -5.90625 C 0.910156 -5.9375 1.066406 -5.945312 1.203125 -5.9375 C 1.421875 -5.9375 1.585938 -5.890625 1.703125 -5.796875 C 1.828125 -5.710938 1.878906 -5.53125 1.859375 -5.25 Z M 1.890625 -5.21875 "/></g></g></g><g fill="#25754a" fill-opacity="1"><g transform="translate(20.345863, 32.158336)"><g><path d="M 2 -2.734375 C 1.894531 -2.660156 1.859375 -2.597656 1.890625 -2.546875 C 2.148438 -2.234375 2.425781 -2.039062 2.71875 -1.96875 C 3.019531 -1.894531 3.359375 -1.90625 3.734375 -2 C 4.003906 -2.082031 4.320312 -2.285156 4.6875 -2.609375 C 5.03125 -2.929688 5.363281 -2.972656 5.6875 -2.734375 C 6.007812 -2.492188 6.015625 -2.1875 5.703125 -1.8125 C 5.359375 -1.4375 5.09375 -1.179688 4.90625 -1.046875 C 4.695312 -0.921875 4.457031 -0.828125 4.1875 -0.765625 C 3.9375 -0.679688 3.671875 -0.632812 3.390625 -0.625 C 3.035156 -0.601562 2.6875 -0.628906 2.34375 -0.703125 C 2.0625 -0.753906 1.796875 -0.84375 1.546875 -0.96875 C 1.273438 -1.09375 1.03125 -1.265625 0.8125 -1.484375 C 0.414062 -1.867188 0.117188 -2.320312 -0.078125 -2.84375 C -0.335938 -3.632812 -0.257812 -4.359375 0.15625 -5.015625 C 0.414062 -5.335938 0.722656 -5.601562 1.078125 -5.8125 C 1.429688 -6.007812 1.851562 -6.1875 2.34375 -6.34375 C 2.84375 -6.5 3.382812 -6.484375 3.96875 -6.296875 C 4.539062 -6.109375 4.9375 -5.742188 5.15625 -5.203125 C 5.382812 -4.671875 5.472656 -4.296875 5.421875 -4.078125 C 5.367188 -3.867188 5.242188 -3.710938 5.046875 -3.609375 C 4.859375 -3.523438 3.84375 -3.234375 2 -2.734375 Z M 2.875 -4.96875 C 2.40625 -4.925781 2.085938 -4.796875 1.921875 -4.578125 C 1.734375 -4.347656 1.625 -4.164062 1.59375 -4.03125 C 1.582031 -4 1.597656 -3.96875 1.640625 -3.9375 C 1.691406 -3.882812 2.4375 -4.082031 3.875 -4.53125 C 3.6875 -4.863281 3.351562 -5.007812 2.875 -4.96875 Z M 2.875 -4.96875 "/></g></g></g><g fill="#25754a" fill-opacity="1"><g transform="translate(28.8062, 30.62382)"><g><path d="M 1.578125 -2.9375 C 1.523438 -2.6875 1.601562 -2.46875 1.8125 -2.28125 C 2.050781 -2.09375 2.332031 -2.101562 2.65625 -2.3125 C 2.863281 -2.4375 3.007812 -2.585938 3.09375 -2.765625 C 3.175781 -2.921875 3.207031 -3.082031 3.1875 -3.25 C 3.164062 -3.425781 3.085938 -3.554688 2.953125 -3.640625 C 2.796875 -3.734375 2.632812 -3.765625 2.46875 -3.734375 C 2.269531 -3.710938 2.085938 -3.632812 1.921875 -3.5 C 1.765625 -3.363281 1.648438 -3.175781 1.578125 -2.9375 Z M 2.125 -5.328125 C 1.726562 -5.304688 1.367188 -5.21875 1.046875 -5.0625 C 0.785156 -4.925781 0.585938 -4.769531 0.453125 -4.59375 C 0.304688 -4.382812 0.109375 -4.273438 -0.140625 -4.265625 C -0.410156 -4.242188 -0.625 -4.328125 -0.78125 -4.515625 C -0.945312 -4.722656 -0.972656 -4.925781 -0.859375 -5.125 C -0.765625 -5.332031 -0.664062 -5.492188 -0.5625 -5.609375 C -0.507812 -5.679688 -0.441406 -5.753906 -0.359375 -5.828125 C -0.160156 -6.023438 0.0546875 -6.175781 0.296875 -6.28125 C 0.535156 -6.394531 0.773438 -6.492188 1.015625 -6.578125 C 1.347656 -6.671875 1.6875 -6.726562 2.03125 -6.75 C 2.300781 -6.769531 2.566406 -6.765625 2.828125 -6.734375 C 3.097656 -6.703125 3.390625 -6.554688 3.703125 -6.296875 C 4.015625 -6.035156 4.21875 -5.679688 4.3125 -5.234375 C 4.414062 -4.785156 4.550781 -4.265625 4.71875 -3.671875 C 4.894531 -2.992188 5.113281 -2.519531 5.375 -2.25 C 5.40625 -2.207031 5.441406 -2.160156 5.484375 -2.109375 C 5.515625 -2.054688 5.535156 -1.992188 5.546875 -1.921875 C 5.578125 -1.828125 5.5625 -1.726562 5.5 -1.625 C 5.4375 -1.519531 5.320312 -1.425781 5.15625 -1.34375 C 5 -1.25 4.84375 -1.210938 4.6875 -1.234375 C 4.519531 -1.242188 4.398438 -1.253906 4.328125 -1.265625 C 4.203125 -1.296875 4.097656 -1.351562 4.015625 -1.4375 C 3.953125 -1.507812 3.890625 -1.582031 3.828125 -1.65625 C 3.691406 -1.445312 3.5625 -1.296875 3.4375 -1.203125 C 3.175781 -0.984375 2.878906 -0.820312 2.546875 -0.71875 C 2.191406 -0.613281 1.84375 -0.570312 1.5 -0.59375 C 1.238281 -0.601562 0.992188 -0.644531 0.765625 -0.71875 C 0.523438 -0.789062 0.328125 -0.914062 0.171875 -1.09375 C 0.00390625 -1.257812 -0.113281 -1.46875 -0.1875 -1.71875 C -0.289062 -2.070312 -0.273438 -2.425781 -0.140625 -2.78125 C -0.0976562 -2.957031 -0.046875 -3.117188 0.015625 -3.265625 C 0.0546875 -3.410156 0.195312 -3.628906 0.4375 -3.921875 C 0.664062 -4.210938 0.988281 -4.445312 1.40625 -4.625 C 1.820312 -4.789062 2.28125 -4.882812 2.78125 -4.90625 C 2.789062 -4.9375 2.757812 -5.007812 2.6875 -5.125 C 2.613281 -5.21875 2.425781 -5.285156 2.125 -5.328125 Z M 2.125 -5.328125 "/></g></g></g><g fill="#25754a" fill-opacity="1"><g transform="translate(36.5471, 28.303517)"><g><path d="M -0.703125 -6.015625 C -0.722656 -6.054688 -0.742188 -6.097656 -0.765625 -6.140625 C -0.898438 -6.546875 -0.988281 -6.863281 -1.03125 -7.09375 C -1.0625 -7.3125 -1.050781 -7.515625 -1 -7.703125 C -0.976562 -7.867188 -0.910156 -8.003906 -0.796875 -8.109375 C -0.679688 -8.210938 -0.5625 -8.300781 -0.4375 -8.375 C -0.300781 -8.4375 -0.160156 -8.492188 -0.015625 -8.546875 C 0.222656 -8.609375 0.421875 -8.617188 0.578125 -8.578125 C 0.742188 -8.546875 0.859375 -8.390625 0.921875 -8.109375 C 1.097656 -7.609375 1.238281 -7.191406 1.34375 -6.859375 C 1.4375 -6.878906 1.515625 -6.894531 1.578125 -6.90625 C 1.796875 -6.976562 2.003906 -7.035156 2.203125 -7.078125 C 2.328125 -7.066406 2.460938 -7.050781 2.609375 -7.03125 C 2.710938 -7 2.816406 -6.925781 2.921875 -6.8125 C 3.078125 -6.625 3.160156 -6.425781 3.171875 -6.21875 C 3.160156 -6 3.046875 -5.828125 2.828125 -5.703125 C 2.617188 -5.566406 2.332031 -5.441406 1.96875 -5.328125 L 1.984375 -5.296875 C 2.273438 -4.335938 2.550781 -3.734375 2.8125 -3.484375 C 3.050781 -3.234375 3.347656 -3.085938 3.703125 -3.046875 C 4.066406 -3.023438 4.269531 -2.8125 4.3125 -2.40625 C 4.382812 -1.988281 4.207031 -1.660156 3.78125 -1.421875 C 3.351562 -1.191406 2.867188 -1.160156 2.328125 -1.328125 C 1.773438 -1.492188 1.3125 -1.859375 0.9375 -2.421875 C 0.550781 -2.992188 0.203125 -3.644531 -0.109375 -4.375 L -0.171875 -4.515625 C -0.378906 -4.421875 -0.601562 -4.332031 -0.84375 -4.25 C -0.894531 -4.21875 -0.9375 -4.195312 -0.96875 -4.1875 C -1.007812 -4.164062 -1.050781 -4.15625 -1.09375 -4.15625 C -1.132812 -4.144531 -1.171875 -4.148438 -1.203125 -4.171875 C -1.242188 -4.191406 -1.285156 -4.226562 -1.328125 -4.28125 C -1.453125 -4.457031 -1.535156 -4.613281 -1.578125 -4.75 C -1.617188 -4.875 -1.648438 -5 -1.671875 -5.125 C -1.679688 -5.25 -1.613281 -5.367188 -1.46875 -5.484375 C -1.40625 -5.554688 -1.316406 -5.632812 -1.203125 -5.71875 C -1.128906 -5.757812 -1.015625 -5.820312 -0.859375 -5.90625 C -0.835938 -5.9375 -0.785156 -5.972656 -0.703125 -6.015625 Z M -0.703125 -6.015625 "/></g></g></g><g fill="#25754a" fill-opacity="1"><g transform="translate(43.430713, 25.400075)"><g><path d="M -1.71875 -5.4375 C -1.632812 -5.5 -1.539062 -5.554688 -1.4375 -5.609375 C -1.382812 -5.640625 -1.335938 -5.65625 -1.296875 -5.65625 C -1.078125 -5.757812 -0.914062 -5.820312 -0.8125 -5.84375 C -0.675781 -5.882812 -0.5625 -5.914062 -0.46875 -5.9375 C -0.445312 -5.945312 -0.421875 -5.945312 -0.390625 -5.9375 C -0.378906 -5.9375 -0.351562 -5.929688 -0.3125 -5.921875 L -0.21875 -5.90625 C -0.21875 -5.894531 -0.191406 -5.878906 -0.140625 -5.859375 C -0.117188 -5.835938 -0.09375 -5.820312 -0.0625 -5.8125 L 0.046875 -5.703125 C 0.0546875 -5.671875 0.078125 -5.628906 0.109375 -5.578125 C 0.109375 -5.566406 0.113281 -5.546875 0.125 -5.515625 C 0.257812 -5.253906 0.421875 -4.875 0.609375 -4.375 C 0.691406 -4.125 0.796875 -3.875 0.921875 -3.625 C 1.222656 -3.050781 1.582031 -2.46875 2 -1.875 C 2.039062 -1.769531 2.078125 -1.660156 2.109375 -1.546875 C 2.128906 -1.429688 2.140625 -1.351562 2.140625 -1.3125 C 2.128906 -1.21875 2.0625 -1.128906 1.9375 -1.046875 C 1.882812 -1.003906 1.820312 -0.960938 1.75 -0.921875 C 1.675781 -0.878906 1.597656 -0.84375 1.515625 -0.8125 C 1.378906 -0.75 1.222656 -0.6875 1.046875 -0.625 C 0.910156 -0.582031 0.789062 -0.554688 0.6875 -0.546875 L 0.625 -0.546875 C 0.601562 -0.535156 0.570312 -0.535156 0.53125 -0.546875 C 0.507812 -0.546875 0.484375 -0.554688 0.453125 -0.578125 C 0.453125 -0.578125 0.425781 -0.585938 0.375 -0.609375 C 0.34375 -0.617188 0.316406 -0.640625 0.296875 -0.671875 C 0.265625 -0.703125 0.234375 -0.738281 0.203125 -0.78125 C 0.160156 -0.851562 -0.175781 -1.410156 -0.8125 -2.453125 C -0.90625 -2.628906 -0.992188 -2.804688 -1.078125 -2.984375 L -1.09375 -3 L -1.125 -3.0625 C -1.132812 -3.070312 -1.140625 -3.082031 -1.140625 -3.09375 C -1.535156 -3.882812 -1.726562 -4.664062 -1.71875 -5.4375 Z M -1.375 -7.9375 C -1.09375 -7.851562 -0.894531 -7.695312 -0.78125 -7.46875 C -0.65625 -7.21875 -0.644531 -6.960938 -0.75 -6.703125 C -0.84375 -6.441406 -1.015625 -6.25 -1.265625 -6.125 C -1.515625 -6 -1.769531 -5.976562 -2.03125 -6.0625 C -2.300781 -6.132812 -2.5 -6.296875 -2.625 -6.546875 C -2.738281 -6.773438 -2.75 -7.023438 -2.65625 -7.296875 C -2.550781 -7.535156 -2.375 -7.71875 -2.125 -7.84375 C -1.875 -7.96875 -1.625 -8 -1.375 -7.9375 Z M -1.375 -7.9375 "/></g></g></g><g fill="#25754a" fill-opacity="1"><g transform="translate(47.803549, 23.196785)"><g><path d="M -1.375 -5.40625 C -0.894531 -5.050781 -0.359375 -4.71875 0.234375 -4.40625 C 0.835938 -4.101562 1.429688 -3.867188 2.015625 -3.703125 C 1.890625 -4.265625 1.734375 -4.84375 1.546875 -5.4375 C 1.328125 -6.03125 1.082031 -6.566406 0.8125 -7.046875 C 0.707031 -7.234375 0.691406 -7.367188 0.765625 -7.453125 C 0.828125 -7.554688 0.9375 -7.644531 1.09375 -7.71875 C 1.1875 -7.757812 1.300781 -7.804688 1.4375 -7.859375 C 1.570312 -7.890625 1.703125 -7.898438 1.828125 -7.890625 C 1.941406 -7.890625 2.035156 -7.851562 2.109375 -7.78125 C 2.222656 -7.675781 2.335938 -7.535156 2.453125 -7.359375 C 2.722656 -6.941406 3.015625 -6.285156 3.328125 -5.390625 C 3.628906 -4.484375 3.804688 -3.769531 3.859375 -3.25 C 3.859375 -3.113281 3.847656 -2.96875 3.828125 -2.8125 C 3.816406 -2.664062 3.765625 -2.539062 3.671875 -2.4375 C 3.515625 -2.25 3.253906 -2.09375 2.890625 -1.96875 C 2.535156 -1.863281 2.234375 -1.835938 1.984375 -1.890625 C 1.472656 -1.992188 0.796875 -2.253906 -0.046875 -2.671875 C -0.890625 -3.078125 -1.503906 -3.445312 -1.890625 -3.78125 C -2.066406 -3.9375 -2.1875 -4.066406 -2.25 -4.171875 C -2.320312 -4.265625 -2.347656 -4.367188 -2.328125 -4.484375 C -2.328125 -4.597656 -2.300781 -4.722656 -2.25 -4.859375 C -2.1875 -4.984375 -2.128906 -5.097656 -2.078125 -5.203125 C -1.984375 -5.347656 -1.882812 -5.445312 -1.78125 -5.5 C -1.6875 -5.539062 -1.550781 -5.507812 -1.375 -5.40625 Z M -1.375 -5.40625 "/></g></g></g><g fill="#25754a" fill-opacity="1"><g transform="translate(54.823067, 18.750318)"><g><path d="M 0.4375 -3.375 C 0.382812 -3.25 0.382812 -3.171875 0.4375 -3.140625 C 0.820312 -2.984375 1.160156 -2.945312 1.453125 -3.03125 C 1.742188 -3.113281 2.023438 -3.28125 2.296875 -3.53125 C 2.503906 -3.738281 2.6875 -4.070312 2.84375 -4.53125 C 3 -4.988281 3.273438 -5.1875 3.671875 -5.125 C 4.085938 -5.070312 4.238281 -4.804688 4.125 -4.328125 C 4.007812 -3.828125 3.898438 -3.472656 3.796875 -3.265625 C 3.671875 -3.066406 3.515625 -2.867188 3.328125 -2.671875 C 3.117188 -2.484375 2.90625 -2.316406 2.6875 -2.171875 C 2.382812 -1.984375 2.0625 -1.84375 1.71875 -1.75 C 1.445312 -1.65625 1.164062 -1.597656 0.875 -1.578125 C 0.582031 -1.566406 0.296875 -1.601562 0.015625 -1.6875 C -0.523438 -1.84375 -1.007812 -2.097656 -1.4375 -2.453125 C -2.039062 -3.035156 -2.3125 -3.710938 -2.25 -4.484375 C -2.195312 -4.890625 -2.0625 -5.269531 -1.84375 -5.625 C -1.632812 -5.957031 -1.347656 -6.316406 -0.984375 -6.703125 C -0.609375 -7.078125 -0.128906 -7.316406 0.453125 -7.421875 C 1.054688 -7.535156 1.578125 -7.410156 2.015625 -7.046875 C 2.472656 -6.691406 2.734375 -6.40625 2.796875 -6.1875 C 2.859375 -5.96875 2.828125 -5.769531 2.703125 -5.59375 C 2.578125 -5.4375 1.820312 -4.695312 0.4375 -3.375 Z M 0.140625 -5.734375 C -0.242188 -5.484375 -0.460938 -5.21875 -0.515625 -4.9375 C -0.566406 -4.644531 -0.570312 -4.429688 -0.53125 -4.296875 C -0.53125 -4.265625 -0.503906 -4.242188 -0.453125 -4.234375 C -0.378906 -4.222656 0.179688 -4.753906 1.234375 -5.828125 C 0.898438 -6.035156 0.535156 -6.003906 0.140625 -5.734375 Z M 0.140625 -5.734375 "/></g></g></g><g fill="#25754a" fill-opacity="1"><g transform="translate(61.410002, 13.368141)"><g/></g></g></g></g><g fill="#3d98d6" fill-opacity="1"><g transform="translate(18.939344, 237.344267)"><g><path d="M 91.453125 -114.71875 C 96.347656 -113.59375 100.226562 -112.191406 103.09375 -110.515625 C 106.457031 -108.472656 108.140625 -106.046875 108.140625 -103.234375 C 108.140625 -99.972656 107.859375 -96.707031 107.296875 -93.4375 C 106.734375 -90.175781 105.632812 -87.117188 104 -84.265625 C 101.65625 -80.128906 99.382812 -78.0625 97.1875 -78.0625 C 95.195312 -78.0625 93.257812 -78.394531 91.375 -79.0625 C 89.4375 -79.71875 87.550781 -80.351562 85.71875 -80.96875 C 81.882812 -82.238281 76.679688 -82.773438 70.109375 -82.578125 C 63.523438 -82.316406 57.347656 -80.890625 51.578125 -78.296875 C 45.765625 -75.691406 41.300781 -71.660156 38.1875 -66.203125 C 35.019531 -60.742188 35.019531 -53.445312 38.1875 -44.3125 C 40.476562 -37.625 45.171875 -32.828125 52.265625 -29.921875 C 59.359375 -26.960938 66.578125 -25.84375 73.921875 -26.5625 C 79.535156 -27.113281 85.429688 -29.28125 91.609375 -33.0625 C 97.773438 -36.832031 103.945312 -35.503906 110.125 -29.078125 C 113.695312 -25.304688 113.644531 -21.554688 109.96875 -17.828125 C 106.25 -14.109375 103.007812 -11.253906 100.25 -9.265625 C 98.3125 -7.878906 96.398438 -6.703125 94.515625 -5.734375 C 89.304688 -2.984375 84.078125 -1.378906 78.828125 -0.921875 C 73.566406 -0.460938 68.335938 -0.460938 63.140625 -0.921875 C 56.203125 -1.578125 49.539062 -3.179688 43.15625 -5.734375 C 38.113281 -7.722656 33.296875 -10.378906 28.703125 -13.703125 C 24.054688 -16.960938 19.972656 -20.992188 16.453125 -25.796875 C 9.921875 -34.566406 5.5625 -44.335938 3.375 -55.109375 C -0.144531 -71.734375 3.878906 -85.609375 15.453125 -96.734375 C 21.273438 -102.347656 27.859375 -106.554688 35.203125 -109.359375 C 42.492188 -112.171875 49.5625 -114.132812 56.40625 -115.25 C 62.113281 -116.164062 67.953125 -116.625 73.921875 -116.625 C 79.890625 -116.625 85.734375 -115.988281 91.453125 -114.71875 Z M 91.453125 -114.71875 "/></g></g></g><g transform="matrix(1, 0, 0, 1, 272, 243)"><g clip-path="url(#fadea03a92)"><g fill="#25754a" fill-opacity="1"><g transform="translate(2.938289, 10.96328)"><g><path d="M 5.125 -0.921875 L 5.328125 -0.4375 L 5.359375 -0.421875 C 5.523438 -0.0546875 5.597656 0.269531 5.578125 0.5625 C 5.546875 0.875 5.378906 1.144531 5.078125 1.375 C 4.785156 1.601562 4.4375 1.734375 4.03125 1.765625 C 3.75 1.773438 3.457031 1.734375 3.15625 1.640625 C 2.84375 1.523438 2.546875 1.375 2.265625 1.1875 L 2.25 1.203125 C 1.90625 0.960938 1.742188 0.832031 1.765625 0.8125 C 1.648438 0.695312 1.554688 0.597656 1.484375 0.515625 L 1.015625 -0.203125 C 0.929688 -0.347656 0.878906 -0.507812 0.859375 -0.6875 C 0.847656 -0.6875 0.84375 -0.6875 0.84375 -0.6875 C 0.84375 -0.695312 0.84375 -0.703125 0.84375 -0.703125 C 0.84375 -0.710938 0.835938 -0.722656 0.828125 -0.734375 C 0.816406 -0.828125 0.832031 -0.910156 0.875 -0.984375 L 0.890625 -1.015625 C 0.941406 -1.097656 1.007812 -1.203125 1.09375 -1.328125 C 1.164062 -1.453125 1.242188 -1.546875 1.328125 -1.609375 C 1.421875 -1.679688 1.488281 -1.675781 1.53125 -1.59375 C 1.582031 -1.507812 1.625 -1.429688 1.65625 -1.359375 C 1.664062 -1.335938 1.671875 -1.328125 1.671875 -1.328125 C 1.734375 -1.140625 1.816406 -0.960938 1.921875 -0.796875 C 2.171875 -0.421875 2.46875 -0.171875 2.8125 -0.046875 C 2.84375 -0.046875 2.878906 -0.046875 2.921875 -0.046875 C 3.078125 -0.046875 3.15625 -0.113281 3.15625 -0.25 C 3.144531 -0.269531 3.144531 -0.285156 3.15625 -0.296875 L 3.140625 -0.3125 C 3.128906 -0.363281 3.015625 -0.632812 2.796875 -1.125 C 2.492188 -1.8125 2.34375 -2.238281 2.34375 -2.40625 C 2.3125 -2.8125 2.425781 -3.128906 2.6875 -3.359375 C 2.9375 -3.597656 3.25 -3.742188 3.625 -3.796875 C 4.3125 -3.910156 5.125 -3.613281 6.0625 -2.90625 C 6.164062 -2.789062 6.253906 -2.6875 6.328125 -2.59375 C 6.347656 -2.550781 6.382812 -2.492188 6.4375 -2.421875 C 6.476562 -2.347656 6.523438 -2.265625 6.578125 -2.171875 L 6.640625 -1.921875 C 6.640625 -1.921875 6.640625 -1.90625 6.640625 -1.875 C 6.660156 -1.769531 6.644531 -1.632812 6.59375 -1.46875 C 6.539062 -1.3125 6.441406 -1.222656 6.296875 -1.203125 C 6.285156 -1.203125 6.28125 -1.203125 6.28125 -1.203125 C 6.164062 -1.179688 6.046875 -1.234375 5.921875 -1.359375 C 5.796875 -1.492188 5.664062 -1.617188 5.53125 -1.734375 L 5.328125 -1.9375 C 5.203125 -2.03125 5.070312 -2.117188 4.9375 -2.203125 C 4.582031 -2.285156 4.535156 -2.054688 4.796875 -1.515625 C 4.816406 -1.460938 4.925781 -1.265625 5.125 -0.921875 Z M 5.125 -0.921875 "/></g></g></g><g fill="#25754a" fill-opacity="1"><g transform="translate(9.322923, 14.692113)"><g><path d="M 3.921875 -4.609375 C 3.941406 -4.648438 3.960938 -4.691406 3.984375 -4.734375 C 4.191406 -5.117188 4.367188 -5.398438 4.515625 -5.578125 C 4.648438 -5.753906 4.800781 -5.890625 4.96875 -5.984375 C 5.101562 -6.078125 5.242188 -6.117188 5.390625 -6.109375 C 5.546875 -6.085938 5.691406 -6.054688 5.828125 -6.015625 C 5.960938 -5.953125 6.109375 -5.878906 6.265625 -5.796875 C 6.460938 -5.679688 6.601562 -5.550781 6.6875 -5.40625 C 6.769531 -5.257812 6.734375 -5.070312 6.578125 -4.84375 C 6.316406 -4.363281 6.109375 -3.972656 5.953125 -3.671875 C 6.023438 -3.617188 6.085938 -3.570312 6.140625 -3.53125 C 6.335938 -3.425781 6.519531 -3.3125 6.6875 -3.1875 C 6.757812 -3.101562 6.835938 -2.992188 6.921875 -2.859375 C 6.972656 -2.773438 6.992188 -2.648438 6.984375 -2.484375 C 6.941406 -2.234375 6.851562 -2.039062 6.71875 -1.90625 C 6.5625 -1.769531 6.359375 -1.734375 6.109375 -1.796875 C 5.859375 -1.859375 5.570312 -1.984375 5.25 -2.171875 L 5.234375 -2.140625 C 4.722656 -1.273438 4.46875 -0.664062 4.46875 -0.3125 C 4.457031 0.03125 4.554688 0.347656 4.765625 0.640625 C 4.984375 0.910156 4.960938 1.207031 4.703125 1.53125 C 4.441406 1.851562 4.082031 1.945312 3.625 1.8125 C 3.15625 1.65625 2.800781 1.316406 2.5625 0.796875 C 2.3125 0.285156 2.257812 -0.300781 2.40625 -0.96875 C 2.5625 -1.632812 2.804688 -2.332031 3.140625 -3.0625 L 3.21875 -3.203125 C 2.988281 -3.296875 2.769531 -3.398438 2.5625 -3.515625 C 2.488281 -3.535156 2.4375 -3.550781 2.40625 -3.5625 C 2.363281 -3.582031 2.332031 -3.601562 2.3125 -3.625 C 2.269531 -3.65625 2.242188 -3.6875 2.234375 -3.71875 C 2.234375 -3.757812 2.234375 -3.8125 2.234375 -3.875 C 2.273438 -4.09375 2.332031 -4.265625 2.40625 -4.390625 C 2.46875 -4.503906 2.539062 -4.609375 2.625 -4.703125 C 2.707031 -4.796875 2.835938 -4.832031 3.015625 -4.8125 C 3.117188 -4.8125 3.238281 -4.796875 3.375 -4.765625 C 3.457031 -4.753906 3.578125 -4.71875 3.734375 -4.65625 C 3.773438 -4.644531 3.835938 -4.628906 3.921875 -4.609375 Z M 3.921875 -4.609375 "/></g></g></g><g fill="#25754a" fill-opacity="1"><g transform="translate(16.195984, 17.838234)"><g><path d="M 3.46875 0.4375 C 3.125 0.582031 2.773438 0.582031 2.421875 0.4375 C 2.148438 0.34375 1.890625 0.125 1.640625 -0.21875 C 1.367188 -0.582031 1.21875 -0.992188 1.1875 -1.453125 C 1.164062 -1.910156 1.203125 -2.351562 1.296875 -2.78125 C 1.347656 -3.082031 1.460938 -3.484375 1.640625 -3.984375 C 1.828125 -4.503906 2.046875 -4.875 2.296875 -5.09375 C 2.378906 -5.15625 2.46875 -5.179688 2.5625 -5.171875 C 2.738281 -5.140625 2.9375 -5.050781 3.15625 -4.90625 C 3.363281 -4.738281 3.492188 -4.597656 3.546875 -4.484375 C 3.578125 -4.441406 3.59375 -4.394531 3.59375 -4.34375 C 3.601562 -4.269531 3.582031 -4.195312 3.53125 -4.125 C 3.488281 -4.050781 3.441406 -3.988281 3.390625 -3.9375 C 3.242188 -3.695312 3.117188 -3.4375 3.015625 -3.15625 C 2.910156 -2.851562 2.84375 -2.570312 2.8125 -2.3125 C 2.789062 -2.132812 2.789062 -1.972656 2.8125 -1.828125 C 2.894531 -1.441406 3.082031 -1.21875 3.375 -1.15625 C 3.664062 -1.082031 3.953125 -1.242188 4.234375 -1.640625 C 4.492188 -2.035156 4.691406 -2.578125 4.828125 -3.265625 C 4.847656 -3.359375 4.867188 -3.453125 4.890625 -3.546875 C 4.921875 -3.660156 4.945312 -3.757812 4.96875 -3.84375 C 5.050781 -4 5.1875 -4.082031 5.375 -4.09375 C 5.5625 -4.101562 5.753906 -4.078125 5.953125 -4.015625 C 6.148438 -3.972656 6.332031 -3.894531 6.5 -3.78125 C 6.675781 -3.6875 6.789062 -3.601562 6.84375 -3.53125 C 6.945312 -3.382812 7 -3.21875 7 -3.03125 C 6.988281 -2.84375 6.957031 -2.65625 6.90625 -2.46875 C 6.832031 -2.144531 6.703125 -1.742188 6.515625 -1.265625 C 6.304688 -0.773438 6.078125 -0.273438 5.828125 0.234375 C 5.585938 0.734375 5.425781 1.03125 5.34375 1.125 C 5.257812 1.207031 5.132812 1.3125 4.96875 1.4375 C 4.84375 1.53125 4.710938 1.582031 4.578125 1.59375 C 4.421875 1.601562 4.257812 1.585938 4.09375 1.546875 C 3.925781 1.492188 3.773438 1.429688 3.640625 1.359375 C 3.460938 1.273438 3.34375 1.171875 3.28125 1.046875 C 3.207031 0.921875 3.253906 0.742188 3.421875 0.515625 Z M 3.46875 0.4375 "/></g></g></g><g fill="#25754a" fill-opacity="1"><g transform="translate(23.824609, 20.410257)"><g><path d="M 2.703125 -2.15625 C 2.640625 -1.875 2.71875 -1.5625 2.9375 -1.21875 C 3.164062 -0.875 3.453125 -0.738281 3.796875 -0.8125 C 4.023438 -0.863281 4.175781 -0.972656 4.25 -1.140625 C 4.332031 -1.304688 4.363281 -1.492188 4.34375 -1.703125 C 4.320312 -1.921875 4.234375 -2.125 4.078125 -2.3125 C 3.929688 -2.5 3.765625 -2.625 3.578125 -2.6875 C 3.390625 -2.75 3.207031 -2.742188 3.03125 -2.671875 C 2.863281 -2.585938 2.753906 -2.414062 2.703125 -2.15625 Z M 4.453125 0.390625 C 4.296875 0.460938 4.144531 0.523438 4 0.578125 C 3.632812 0.679688 3.257812 0.710938 2.875 0.671875 C 2.488281 0.617188 2.140625 0.488281 1.828125 0.28125 C 1.585938 0.132812 1.367188 -0.0390625 1.171875 -0.25 C 0.984375 -0.488281 0.859375 -0.742188 0.796875 -1.015625 C 0.722656 -1.296875 0.71875 -1.601562 0.78125 -1.9375 C 0.875 -2.414062 1.070312 -2.832031 1.375 -3.1875 C 1.507812 -3.363281 1.65625 -3.53125 1.8125 -3.6875 C 1.976562 -3.84375 2.164062 -3.984375 2.375 -4.109375 C 2.457031 -4.160156 2.539062 -4.207031 2.625 -4.25 C 3.144531 -4.53125 3.695312 -4.679688 4.28125 -4.703125 C 4.75 -4.734375 5.171875 -4.65625 5.546875 -4.46875 C 5.773438 -5.726562 5.914062 -6.390625 5.96875 -6.453125 C 6.050781 -6.535156 6.148438 -6.582031 6.265625 -6.59375 C 6.367188 -6.625 6.5 -6.625 6.65625 -6.59375 C 6.8125 -6.570312 6.941406 -6.539062 7.046875 -6.5 C 7.222656 -6.445312 7.351562 -6.375 7.4375 -6.28125 C 7.507812 -6.175781 7.429688 -5.742188 7.203125 -4.984375 C 6.890625 -3.648438 6.648438 -2.546875 6.484375 -1.671875 C 6.316406 -0.773438 6.257812 0.0234375 6.3125 0.734375 C 6.3125 0.816406 6.320312 0.894531 6.34375 0.96875 C 6.34375 1.050781 6.335938 1.128906 6.328125 1.203125 C 6.296875 1.335938 6.207031 1.421875 6.0625 1.453125 C 5.914062 1.472656 5.757812 1.46875 5.59375 1.4375 C 5.40625 1.40625 5.234375 1.359375 5.078125 1.296875 C 4.910156 1.222656 4.796875 1.15625 4.734375 1.09375 C 4.609375 0.988281 4.53125 0.863281 4.5 0.71875 C 4.488281 0.601562 4.472656 0.492188 4.453125 0.390625 Z M 4.453125 0.390625 "/></g></g></g><g fill="#25754a" fill-opacity="1"><g transform="translate(32.262846, 22.163651)"><g><path d="M 1.625 -5.453125 C 1.726562 -5.460938 1.835938 -5.460938 1.953125 -5.453125 C 2.015625 -5.441406 2.066406 -5.425781 2.109375 -5.40625 C 2.347656 -5.363281 2.519531 -5.328125 2.625 -5.296875 C 2.757812 -5.253906 2.867188 -5.210938 2.953125 -5.171875 C 2.972656 -5.171875 3 -5.15625 3.03125 -5.125 C 3.039062 -5.113281 3.0625 -5.097656 3.09375 -5.078125 L 3.140625 -5 C 3.148438 -4.988281 3.164062 -4.960938 3.1875 -4.921875 C 3.195312 -4.890625 3.207031 -4.859375 3.21875 -4.828125 L 3.25 -4.6875 C 3.238281 -4.65625 3.234375 -4.609375 3.234375 -4.546875 C 3.234375 -4.535156 3.234375 -4.515625 3.234375 -4.484375 C 3.179688 -4.191406 3.09375 -3.789062 2.96875 -3.28125 C 2.90625 -3.019531 2.851562 -2.75 2.8125 -2.46875 C 2.738281 -1.832031 2.703125 -1.15625 2.703125 -0.4375 C 2.671875 -0.320312 2.644531 -0.207031 2.625 -0.09375 C 2.570312 0.0195312 2.535156 0.09375 2.515625 0.125 C 2.453125 0.1875 2.347656 0.222656 2.203125 0.234375 C 2.117188 0.234375 2.035156 0.226562 1.953125 0.21875 C 1.867188 0.21875 1.785156 0.207031 1.703125 0.1875 C 1.546875 0.164062 1.382812 0.125 1.21875 0.0625 C 1.082031 0.03125 0.96875 -0.0078125 0.875 -0.0625 L 0.828125 -0.09375 C 0.804688 -0.09375 0.78125 -0.113281 0.75 -0.15625 C 0.738281 -0.164062 0.722656 -0.1875 0.703125 -0.21875 C 0.703125 -0.21875 0.6875 -0.25 0.65625 -0.3125 C 0.632812 -0.320312 0.625 -0.347656 0.625 -0.390625 C 0.625 -0.429688 0.617188 -0.476562 0.609375 -0.53125 C 0.609375 -0.625 0.644531 -1.273438 0.71875 -2.484375 C 0.738281 -2.679688 0.757812 -2.878906 0.78125 -3.078125 L 0.78125 -3.109375 L 0.796875 -3.140625 L 0.796875 -3.171875 C 0.796875 -3.179688 0.796875 -3.191406 0.796875 -3.203125 C 0.910156 -4.078125 1.1875 -4.828125 1.625 -5.453125 Z M 3.34375 -7.328125 C 3.507812 -7.097656 3.578125 -6.851562 3.546875 -6.59375 C 3.515625 -6.320312 3.382812 -6.109375 3.15625 -5.953125 C 2.9375 -5.804688 2.6875 -5.75 2.40625 -5.78125 C 2.125 -5.820312 1.894531 -5.941406 1.71875 -6.140625 C 1.550781 -6.359375 1.484375 -6.601562 1.515625 -6.875 C 1.546875 -7.132812 1.675781 -7.347656 1.90625 -7.515625 C 2.125 -7.660156 2.375 -7.710938 2.65625 -7.671875 C 2.9375 -7.640625 3.164062 -7.523438 3.34375 -7.328125 Z M 3.34375 -7.328125 "/></g></g></g><g fill="#25754a" fill-opacity="1"><g transform="translate(37.108072, 22.798665)"><g><path d="M 0.625 -3.28125 C 0.875 -3.707031 1.144531 -4.046875 1.4375 -4.296875 C 1.550781 -4.398438 1.625 -4.46875 1.65625 -4.5 C 2.101562 -4.851562 2.609375 -5.085938 3.171875 -5.203125 C 3.640625 -5.304688 4.097656 -5.289062 4.546875 -5.15625 C 4.742188 -5.082031 4.945312 -4.960938 5.15625 -4.796875 C 5.351562 -4.617188 5.5 -4.425781 5.59375 -4.21875 C 5.695312 -4 5.753906 -3.722656 5.765625 -3.390625 C 5.785156 -2.890625 5.71875 -2.445312 5.5625 -2.0625 C 5.46875 -1.820312 5.34375 -1.597656 5.1875 -1.390625 C 5.019531 -1.171875 4.847656 -0.976562 4.671875 -0.8125 C 4.410156 -0.5625 4.113281 -0.347656 3.78125 -0.171875 C 3.457031 -0.00390625 3.109375 0.0859375 2.734375 0.109375 C 2.359375 0.117188 2 0.0546875 1.65625 -0.078125 C 1.40625 -0.179688 1.171875 -0.320312 0.953125 -0.5 C 0.722656 -0.664062 0.5625 -0.878906 0.46875 -1.140625 C 0.351562 -1.390625 0.296875 -1.675781 0.296875 -2 C 0.296875 -2.46875 0.40625 -2.894531 0.625 -3.28125 Z M 2.0625 -2.421875 C 2.050781 -2.179688 2.175781 -1.925781 2.4375 -1.65625 C 2.695312 -1.382812 2.96875 -1.3125 3.25 -1.4375 C 3.4375 -1.507812 3.554688 -1.625 3.609375 -1.78125 C 3.648438 -1.9375 3.648438 -2.101562 3.609375 -2.28125 C 3.492188 -2.675781 3.21875 -2.921875 2.78125 -3.015625 C 2.320312 -3.117188 2.082031 -2.921875 2.0625 -2.421875 Z M 2.0625 -2.421875 "/></g></g></g></g></g></svg>