<svg xmlns="http://www.w3.org/2000/svg" xmlns:xlink="http://www.w3.org/1999/xlink" width="259" zoomAndPan="magnify" viewBox="0 0 194.25 142.499995" height="190" preserveAspectRatio="xMidYMid meet" version="1.0"><defs><clipPath id="6248228373"><path d="M 53 72 L 145 72 L 145 141.976562 L 53 141.976562 Z M 53 72 " clip-rule="nonzero"/></clipPath><clipPath id="a84b4c82c5"><path d="M 43 0.0234375 L 138 0.0234375 L 138 65 L 43 65 Z M 43 0.0234375 " clip-rule="nonzero"/></clipPath><clipPath id="7050e5549e"><path d="M 43 109 L 89 109 L 89 141.976562 L 43 141.976562 Z M 43 109 " clip-rule="nonzero"/></clipPath><clipPath id="5fa2ba2e24"><path d="M 101 0.0234375 L 146 0.0234375 L 146 30 L 101 30 Z M 101 0.0234375 " clip-rule="nonzero"/></clipPath><clipPath id="d95ac15d1f"><path d="M 47.152344 66.621094 L 48.59375 66.621094 L 48.59375 67.894531 L 47.152344 67.894531 Z M 47.152344 66.621094 " clip-rule="nonzero"/></clipPath><clipPath id="2bcf7e6d39"><path d="M 48.566406 67.070312 C 47.894531 68.113281 47.296875 67.890625 47.222656 67.742188 C 47.074219 67.515625 47.222656 66.917969 47.371094 66.695312 C 47.597656 66.546875 48.34375 66.769531 48.34375 66.769531 " clip-rule="nonzero"/></clipPath><clipPath id="8fdd9eebe4"><path d="M 0.152344 0.621094 L 1.59375 0.621094 L 1.59375 1.894531 L 0.152344 1.894531 Z M 0.152344 0.621094 " clip-rule="nonzero"/></clipPath><clipPath id="5e9ae6d040"><path d="M 1.566406 1.070312 C 0.894531 2.113281 0.296875 1.890625 0.222656 1.742188 C 0.0742188 1.515625 0.222656 0.917969 0.371094 0.695312 C 0.597656 0.546875 1.34375 0.769531 1.34375 0.769531 " clip-rule="nonzero"/></clipPath><clipPath id="4656af0de3"><rect x="0" width="2" y="0" height="2"/></clipPath></defs><g clip-path="url(#6248228373)"><path fill="#fec32d" d="M 144.089844 129.914062 C 143.140625 133.957031 142.65625 136.414062 140.648438 139.128906 C 139.304688 140.941406 137.105469 141.976562 134.867188 141.714844 C 132.917969 141.488281 131.03125 140.65625 129.136719 139.925781 C 107.230469 131.503906 89.546875 116.671875 71.675781 102.113281 C 67.417969 98.648438 58.433594 90.613281 53.328125 86.394531 C 65.753906 77.621094 70.898438 72.195312 70.898438 72.195312 C 90.921875 89.554688 114.261719 109.878906 138.625 120.039062 C 142.503906 121.660156 146.136719 121.132812 144.089844 129.914062 " fill-opacity="1" fill-rule="nonzero"/></g><g clip-path="url(#a84b4c82c5)"><path fill="#fec32d" d="M 119.324219 64.667969 C 113.691406 60.21875 103.832031 52.835938 98.265625 48.546875 C 84.125 37.652344 69.039062 28.558594 51.734375 23.378906 C 42.363281 20.570312 41.132812 11.164062 48.21875 2.851562 C 49.507812 1.34375 51.519531 0.351562 53.464844 0.757812 C 85.6875 7.496094 110.082031 27.214844 137.238281 52.109375 C 128.050781 56.957031 119.328125 64.667969 119.328125 64.667969 " fill-opacity="1" fill-rule="nonzero"/></g><path fill="#2c6db0" d="M 99.910156 88.027344 C 120.03125 67.6875 159.097656 43.109375 178.808594 42.207031 C 181.109375 42.101562 183.292969 43.25 184.507812 45.210938 C 186.445312 48.355469 187.074219 52.121094 187.65625 55.820312 C 188.210938 59.398438 186.347656 62.449219 182.949219 63.402344 C 159.414062 69.984375 136.546875 86 117.996094 101.28125 C 111.753906 98.339844 99.910156 88.027344 99.910156 88.027344 " fill-opacity="1" fill-rule="nonzero"/><path fill="#2c6db0" d="M 88.925781 49.511719 C 65.8125 68.789062 40.730469 91.785156 13.613281 100.019531 C 11.324219 100.71875 8.796875 100.144531 7.152344 98.40625 C 4.9375 96.078125 4.089844 93.675781 3.191406 91.339844 C 0.0507812 83.175781 0.941406 80.789062 9.0625 77.664062 C 28.128906 70.335938 43.992188 58.15625 59.339844 45.136719 C 61.664062 43.164062 66.273438 39.378906 68.816406 37.289062 C 77.226562 39.542969 88.925781 49.511719 88.925781 49.511719 " fill-opacity="1" fill-rule="nonzero"/><g clip-path="url(#7050e5549e)"><path fill="#2c6db0" d="M 47.28125 120.636719 C 53.910156 117.242188 64.117188 113.242188 70.769531 109.507812 C 76.144531 114.242188 88.589844 123.664062 88.589844 123.664062 C 79.5625 129.695312 65.175781 138.664062 55.15625 141.246094 C 52.734375 141.875 50.164062 140.933594 48.632812 138.957031 C 45.703125 135.167969 44.007812 131.152344 43.863281 126.375 C 43.789062 123.972656 45.144531 121.730469 47.28125 120.636719 " fill-opacity="1" fill-rule="nonzero"/></g><g clip-path="url(#5fa2ba2e24)"><path fill="#2c6db0" d="M 101.035156 15.035156 C 112.878906 7.878906 126.207031 2.503906 135.34375 0.550781 C 137.847656 0.015625 140.480469 1.109375 141.851562 3.277344 C 144.476562 7.390625 145.566406 11.527344 145.296875 16.050781 C 145.164062 18.285156 143.929688 20.308594 141.964844 21.378906 C 136.234375 24.503906 126.023438 26.941406 120.164062 29.5 C 120.164062 29.5 109.816406 20.785156 101.035156 15.035156 " fill-opacity="1" fill-rule="nonzero"/></g><path fill="#fec32d" d="M 171.507812 74.152344 C 187.503906 80.363281 193.40625 82.464844 181.730469 98.566406 C 180.363281 100.457031 178.195312 100.472656 175.921875 99.929688 C 168.644531 98.214844 155.722656 90.78125 148.570312 86.625 C 161.75 77.519531 171.507812 74.152344 171.507812 74.152344 " fill-opacity="1" fill-rule="nonzero"/><path fill="#fec32d" d="M 19.929688 66.941406 C 15.976562 65.8125 8.460938 64.621094 5.019531 62.527344 C 3.460938 61.582031 2.414062 59.933594 2.191406 58.128906 C 1.625 53.5625 2.800781 49.449219 5.03125 45.3125 C 6.25 43.050781 8.734375 41.742188 11.289062 42.027344 C 18.960938 42.878906 32.828125 48.667969 40.335938 52.097656 C 29.464844 62.09375 19.929688 66.941406 19.929688 66.941406 " fill-opacity="1" fill-rule="nonzero"/><g clip-path="url(#d95ac15d1f)"><g clip-path="url(#2bcf7e6d39)"><g transform="matrix(1, 0, 0, 1, 47, 66)"><g clip-path="url(#4656af0de3)"><g clip-path="url(#8fdd9eebe4)"><g clip-path="url(#5e9ae6d040)"><rect x="-89.735" width="279.72" fill="#0571d3" height="205.199993" y="-97.349999" fill-opacity="1"/></g></g></g></g></g></g></svg>