<svg xmlns="http://www.w3.org/2000/svg" xmlns:xlink="http://www.w3.org/1999/xlink" width="477" zoomAndPan="magnify" viewBox="0 0 357.75 100.499997" height="134" preserveAspectRatio="xMidYMid meet" version="1.0"><defs><g/></defs><path fill="#fec32d" d="M 101.898438 91.503906 C 101.234375 94.351562 100.894531 96.085938 99.484375 97.996094 C 98.539062 99.273438 96.996094 100.003906 95.425781 99.816406 C 94.058594 99.65625 92.734375 99.070312 91.40625 98.558594 C 76.027344 92.625 63.617188 82.175781 51.074219 71.917969 C 48.085938 69.476562 41.777344 63.816406 38.195312 60.84375 C 46.917969 54.664062 50.527344 50.839844 50.527344 50.839844 C 64.582031 63.070312 80.960938 77.390625 98.0625 84.546875 C 100.789062 85.6875 103.335938 85.316406 101.898438 91.503906 " fill-opacity="1" fill-rule="nonzero"/><path fill="#fec32d" d="M 84.515625 45.539062 C 80.5625 42.40625 73.644531 37.203125 69.734375 34.183594 C 59.808594 26.507812 49.222656 20.101562 37.078125 16.453125 C 30.5 14.472656 29.632812 7.847656 34.605469 1.992188 C 35.511719 0.929688 36.925781 0.230469 38.289062 0.515625 C 60.90625 5.261719 78.027344 19.15625 97.089844 36.691406 C 90.644531 40.105469 84.519531 45.539062 84.519531 45.539062 " fill-opacity="1" fill-rule="nonzero"/><path fill="#2c6db0" d="M 70.890625 61.996094 C 85.015625 47.667969 112.4375 30.351562 126.269531 29.714844 C 127.882812 29.640625 129.417969 30.453125 130.269531 31.832031 C 131.628906 34.046875 132.070312 36.699219 132.480469 39.308594 C 132.871094 41.828125 131.5625 43.976562 129.175781 44.648438 C 112.65625 49.285156 96.605469 60.566406 83.582031 71.332031 C 79.203125 69.261719 70.890625 61.996094 70.890625 61.996094 " fill-opacity="1" fill-rule="nonzero"/><path fill="#2c6db0" d="M 63.179688 34.863281 C 46.957031 48.441406 29.351562 64.644531 10.320312 70.445312 C 8.710938 70.9375 6.9375 70.53125 5.78125 69.308594 C 4.226562 67.667969 3.632812 65.976562 3 64.332031 C 0.800781 58.578125 1.425781 56.894531 7.125 54.695312 C 20.507812 49.535156 31.640625 40.953125 42.414062 31.78125 C 44.046875 30.390625 47.28125 27.722656 49.066406 26.253906 C 54.96875 27.839844 63.179688 34.863281 63.179688 34.863281 " fill-opacity="1" fill-rule="nonzero"/><path fill="#2c6db0" d="M 33.949219 84.96875 C 38.601562 82.578125 45.765625 79.761719 50.4375 77.128906 C 54.207031 80.464844 62.945312 87.101562 62.945312 87.101562 C 56.609375 91.347656 46.507812 97.667969 39.476562 99.488281 C 37.777344 99.929688 35.972656 99.265625 34.898438 97.875 C 32.84375 95.207031 31.652344 92.378906 31.550781 89.011719 C 31.5 87.316406 32.449219 85.738281 33.949219 84.96875 " fill-opacity="1" fill-rule="nonzero"/><path fill="#2c6db0" d="M 71.679688 10.574219 C 79.992188 5.53125 89.347656 1.746094 95.761719 0.371094 C 97.519531 -0.0078125 99.367188 0.765625 100.332031 2.289062 C 102.171875 5.1875 102.9375 8.101562 102.746094 11.289062 C 102.652344 12.863281 101.789062 14.289062 100.40625 15.042969 C 96.386719 17.246094 89.222656 18.960938 85.105469 20.761719 C 85.105469 20.761719 77.84375 14.625 71.679688 10.574219 " fill-opacity="1" fill-rule="nonzero"/><path fill="#fec32d" d="M 121.144531 52.222656 C 132.371094 56.597656 136.515625 58.078125 128.320312 69.421875 C 127.363281 70.753906 125.839844 70.761719 124.242188 70.382812 C 119.132812 69.175781 110.066406 63.933594 105.042969 61.007812 C 114.296875 54.59375 121.144531 52.222656 121.144531 52.222656 " fill-opacity="1" fill-rule="nonzero"/><path fill="#fec32d" d="M 14.75 47.140625 C 11.976562 46.347656 6.703125 45.507812 4.285156 44.03125 C 3.191406 43.367188 2.457031 42.207031 2.300781 40.933594 C 1.902344 37.714844 2.726562 34.820312 4.292969 31.902344 C 5.148438 30.3125 6.894531 29.390625 8.6875 29.589844 C 14.074219 30.1875 23.804688 34.269531 29.074219 36.683594 C 21.445312 43.726562 14.75 47.140625 14.75 47.140625 " fill-opacity="1" fill-rule="nonzero"/><g fill="#2c6db0" fill-opacity="1"><g transform="translate(140.264849, 50.547674)"><g><path d="M 2.4375 -22.59375 L 9.6875 -22.59375 L 9.6875 -5.78125 L 21.28125 -5.78125 L 21.28125 0 L 2.4375 0 Z M 2.4375 -22.59375 "/></g></g></g><g fill="#2c6db0" fill-opacity="1"><g transform="translate(165.089303, 50.547674)"><g><path d="M 2.765625 0 L 2.765625 -22.59375 L 10.015625 -22.59375 L 10.015625 0 Z M 2.765625 0 "/></g></g></g><g fill="#2c6db0" fill-opacity="1"><g transform="translate(180.785188, 50.547674)"><g><path d="M 2.4375 -22.59375 L 21.96875 -22.59375 L 21.96875 -17.171875 L 9.6875 -17.171875 L 9.6875 -14.0625 L 20.203125 -14.0625 L 20.203125 -8.875 L 9.6875 -8.875 L 9.6875 -5.421875 L 22.203125 -5.421875 L 22.203125 0 L 2.4375 0 Z M 2.4375 -22.59375 "/></g></g></g><g fill="#2c6db0" fill-opacity="1"><g transform="translate(207.415643, 50.547674)"><g><path d="M 18.59375 0 L 9.09375 -10.96875 L 9.09375 0 L 2.4375 0 L 2.4375 -22.59375 L 8.765625 -22.59375 L 18.265625 -11.46875 L 18.265625 -22.59375 L 24.921875 -22.59375 L 24.921875 0 Z M 18.59375 0 "/></g></g></g><g fill="#2c6db0" fill-opacity="1"><g transform="translate(237.690966, 50.547674)"><g/></g></g><g fill="#2c6db0" fill-opacity="1"><g transform="translate(251.548008, 50.547674)"><g><path d="M 8.578125 0 L 0.5625 -22.59375 L 8.3125 -22.59375 L 12.84375 -7.484375 L 12.96875 -7.484375 L 17.53125 -22.59375 L 24.96875 -22.59375 L 16.984375 0 Z M 8.578125 0 "/></g></g></g><g fill="#2c6db0" fill-opacity="1"><g transform="translate(280.017318, 50.547674)"><g><path d="M 2.765625 0 L 2.765625 -22.59375 L 10.015625 -22.59375 L 10.015625 0 Z M 2.765625 0 "/></g></g></g><g fill="#2c6db0" fill-opacity="1"><g transform="translate(295.713204, 50.547674)"><g><path d="M 2.4375 -22.59375 L 21.96875 -22.59375 L 21.96875 -17.171875 L 9.6875 -17.171875 L 9.6875 -14.0625 L 20.203125 -14.0625 L 20.203125 -8.875 L 9.6875 -8.875 L 9.6875 -5.421875 L 22.203125 -5.421875 L 22.203125 0 L 2.4375 0 Z M 2.4375 -22.59375 "/></g></g></g><g fill="#2c6db0" fill-opacity="1"><g transform="translate(322.343659, 50.547674)"><g><path d="M 15.4375 -16.8125 L 15.4375 0 L 8.171875 0 L 8.171875 -16.8125 L 0.75 -16.8125 L 0.75 -22.59375 L 22.828125 -22.59375 L 22.828125 -16.8125 Z M 15.4375 -16.8125 "/></g></g></g><g fill="#fec32d" fill-opacity="1"><g transform="translate(163.4726, 73.41492)"><g><path d="M 10.734375 -13.6875 L 16.1875 -13.6875 L 11.28125 -8.0625 L 16.296875 0 L 11.09375 0 L 8.25 -5.015625 L 5.875 -3.0625 L 5.875 0 L 1.46875 0 L 1.46875 -13.6875 L 5.875 -13.6875 L 5.875 -7.84375 Z M 10.734375 -13.6875 "/></g></g></g><g fill="#fec32d" fill-opacity="1"><g transform="translate(187.028834, 73.41492)"><g><path d="M 11.265625 0 L 5.515625 -6.640625 L 5.515625 0 L 1.46875 0 L 1.46875 -13.6875 L 5.3125 -13.6875 L 11.0625 -6.9375 L 11.0625 -13.6875 L 15.09375 -13.6875 L 15.09375 0 Z M 11.265625 0 "/></g></g></g><g fill="#fec32d" fill-opacity="1"><g transform="translate(210.585069, 73.41492)"><g><path d="M 1.671875 0 L 1.671875 -13.6875 L 6.0625 -13.6875 L 6.0625 0 Z M 1.671875 0 "/></g></g></g><g fill="#fec32d" fill-opacity="1"><g transform="translate(225.308751, 73.41492)"><g><path d="M 9.34375 -10.1875 L 9.34375 0 L 4.953125 0 L 4.953125 -10.1875 L 0.453125 -10.1875 L 0.453125 -13.6875 L 13.828125 -13.6875 L 13.828125 -10.1875 Z M 9.34375 -10.1875 "/></g></g></g><g fill="#fec32d" fill-opacity="1"><g transform="translate(246.656848, 73.41492)"><g><path d="M 9.34375 -10.1875 L 9.34375 0 L 4.953125 0 L 4.953125 -10.1875 L 0.453125 -10.1875 L 0.453125 -13.6875 L 13.828125 -13.6875 L 13.828125 -10.1875 Z M 9.34375 -10.1875 "/></g></g></g><g fill="#fec32d" fill-opacity="1"><g transform="translate(268.004944, 73.41492)"><g><path d="M 1.671875 0 L 1.671875 -13.6875 L 6.0625 -13.6875 L 6.0625 0 Z M 1.671875 0 "/></g></g></g><g fill="#fec32d" fill-opacity="1"><g transform="translate(282.728627, 73.41492)"><g><path d="M 11.265625 0 L 5.515625 -6.640625 L 5.515625 0 L 1.46875 0 L 1.46875 -13.6875 L 5.3125 -13.6875 L 11.0625 -6.9375 L 11.0625 -13.6875 L 15.09375 -13.6875 L 15.09375 0 Z M 11.265625 0 "/></g></g></g><g fill="#fec32d" fill-opacity="1"><g transform="translate(306.284861, 73.41492)"><g><path d="M 8.359375 -13.921875 C 9.671875 -13.921875 10.847656 -13.722656 11.890625 -13.328125 C 12.941406 -12.929688 13.773438 -12.34375 14.390625 -11.5625 C 15.003906 -10.789062 15.3125 -9.847656 15.3125 -8.734375 L 11.125 -8.734375 C 11.125 -9.304688 10.867188 -9.765625 10.359375 -10.109375 C 9.859375 -10.460938 9.25 -10.640625 8.53125 -10.640625 C 7.5 -10.640625 6.71875 -10.363281 6.1875 -9.8125 C 5.65625 -9.257812 5.390625 -8.484375 5.390625 -7.484375 L 5.390625 -6.203125 C 5.390625 -5.191406 5.65625 -4.410156 6.1875 -3.859375 C 6.71875 -3.316406 7.5 -3.046875 8.53125 -3.046875 C 9.25 -3.046875 9.859375 -3.210938 10.359375 -3.546875 C 10.867188 -3.890625 11.125 -4.328125 11.125 -4.859375 L 8.015625 -4.859375 L 8.015625 -7.640625 L 15.3125 -7.640625 L 15.3125 0 L 13.046875 0 L 12.609375 -1.359375 C 11.359375 -0.296875 9.726562 0.234375 7.71875 0.234375 C 5.445312 0.234375 3.738281 -0.359375 2.59375 -1.546875 C 1.457031 -2.734375 0.890625 -4.5 0.890625 -6.84375 C 0.890625 -9.164062 1.535156 -10.925781 2.828125 -12.125 C 4.128906 -13.320312 5.972656 -13.921875 8.359375 -13.921875 Z M 8.359375 -13.921875 "/></g></g></g></svg>