<svg xmlns="http://www.w3.org/2000/svg" xmlns:xlink="http://www.w3.org/1999/xlink" width="374" zoomAndPan="magnify" viewBox="0 0 280.5 214.499994" height="286" preserveAspectRatio="xMidYMid meet" version="1.0"><defs><g/><clipPath id="fc5af0f8ce"><rect x="0" width="257" y="0" height="45"/></clipPath><clipPath id="b39210f521"><rect x="0" width="135" y="0" height="18"/></clipPath></defs><path fill="#fec32d" d="M 187.488281 130.085938 C 186.539062 134.136719 186.054688 136.597656 184.042969 139.316406 C 182.695312 141.128906 180.492188 142.167969 178.253906 141.90625 C 176.296875 141.679688 174.410156 140.84375 172.515625 140.113281 C 150.574219 131.679688 132.863281 116.828125 114.964844 102.246094 C 110.703125 98.773438 101.703125 90.726562 96.589844 86.5 C 109.035156 77.714844 114.183594 72.277344 114.183594 72.277344 C 134.238281 89.664062 157.613281 110.023438 182.015625 120.195312 C 185.902344 121.820312 189.539062 121.292969 187.488281 130.085938 " fill-opacity="1" fill-rule="nonzero"/><path fill="#fec32d" d="M 162.6875 64.742188 C 157.042969 60.285156 147.171875 52.890625 141.59375 48.597656 C 127.433594 37.683594 112.324219 28.578125 94.992188 23.386719 C 85.609375 20.578125 84.375 11.15625 91.472656 2.832031 C 92.761719 1.320312 94.777344 0.324219 96.726562 0.734375 C 128.996094 7.480469 153.425781 27.234375 180.625 52.164062 C 171.425781 57.019531 162.6875 64.742188 162.6875 64.742188 " fill-opacity="1" fill-rule="nonzero"/><path fill="#2c6db0" d="M 143.238281 88.136719 C 163.394531 67.765625 202.519531 43.152344 222.261719 42.246094 C 224.566406 42.140625 226.753906 43.292969 227.96875 45.253906 C 229.90625 48.402344 230.539062 52.175781 231.121094 55.882812 C 231.679688 59.464844 229.8125 62.519531 226.410156 63.472656 C 202.835938 70.066406 179.9375 86.105469 161.355469 101.410156 C 155.105469 98.464844 143.238281 88.136719 143.238281 88.136719 " fill-opacity="1" fill-rule="nonzero"/><path fill="#2c6db0" d="M 132.238281 49.5625 C 109.089844 68.867188 83.972656 91.902344 56.8125 100.148438 C 54.523438 100.847656 51.988281 100.269531 50.339844 98.53125 C 48.121094 96.199219 47.273438 93.792969 46.375 91.457031 C 43.230469 83.277344 44.121094 80.886719 52.257812 77.757812 C 71.351562 70.417969 87.238281 58.21875 102.609375 45.179688 C 104.9375 43.207031 109.554688 39.414062 112.101562 37.324219 C 120.523438 39.578125 132.238281 49.5625 132.238281 49.5625 " fill-opacity="1" fill-rule="nonzero"/><path fill="#2c6db0" d="M 90.535156 120.796875 C 97.171875 117.398438 107.394531 113.390625 114.058594 109.648438 C 119.441406 114.394531 131.902344 123.828125 131.902344 123.828125 C 122.863281 129.867188 108.453125 138.851562 98.417969 141.4375 C 95.992188 142.066406 93.417969 141.125 91.886719 139.140625 C 88.953125 135.347656 87.257812 131.328125 87.109375 126.539062 C 87.035156 124.136719 88.390625 121.890625 90.535156 120.796875 " fill-opacity="1" fill-rule="nonzero"/><path fill="#2c6db0" d="M 144.367188 15.03125 C 156.230469 7.863281 169.578125 2.480469 178.726562 0.527344 C 181.238281 -0.0078125 183.875 1.085938 185.25 3.253906 C 187.875 7.378906 188.96875 11.519531 188.695312 16.050781 C 188.566406 18.285156 187.328125 20.316406 185.359375 21.386719 C 179.621094 24.515625 169.398438 26.957031 163.527344 29.519531 C 163.527344 29.519531 153.164062 20.792969 144.367188 15.03125 " fill-opacity="1" fill-rule="nonzero"/><path fill="#fec32d" d="M 214.949219 74.242188 C 230.96875 80.460938 236.882812 82.566406 225.1875 98.691406 C 223.820312 100.585938 221.644531 100.601562 219.367188 100.058594 C 212.078125 98.339844 199.140625 90.894531 191.976562 86.734375 C 205.179688 77.613281 214.949219 74.242188 214.949219 74.242188 " fill-opacity="1" fill-rule="nonzero"/><path fill="#fec32d" d="M 63.140625 67.019531 C 59.179688 65.890625 51.652344 64.695312 48.203125 62.597656 C 46.648438 61.652344 45.597656 60 45.375 58.191406 C 44.808594 53.617188 45.984375 49.5 48.21875 45.355469 C 49.4375 43.09375 51.929688 41.78125 54.488281 42.066406 C 62.171875 42.917969 76.058594 48.71875 83.574219 52.152344 C 72.6875 62.164062 63.140625 67.019531 63.140625 67.019531 " fill-opacity="1" fill-rule="nonzero"/><g transform="matrix(1, 0, 0, 1, 13, 148)"><g clip-path="url(#fc5af0f8ce)"><g fill="#2c6db0" fill-opacity="1"><g transform="translate(1.153201, 36.127536)"><g><path d="M 2.96875 -27.625 L 11.84375 -27.625 L 11.84375 -7.0625 L 26.015625 -7.0625 L 26.015625 0 L 2.96875 0 Z M 2.96875 -27.625 "/></g></g></g><g fill="#2c6db0" fill-opacity="1"><g transform="translate(31.498223, 36.127536)"><g><path d="M 3.375 0 L 3.375 -27.625 L 12.25 -27.625 L 12.25 0 Z M 3.375 0 "/></g></g></g><g fill="#2c6db0" fill-opacity="1"><g transform="translate(50.685037, 36.127536)"><g><path d="M 2.96875 -27.625 L 26.859375 -27.625 L 26.859375 -21 L 11.84375 -21 L 11.84375 -17.1875 L 24.703125 -17.1875 L 24.703125 -10.84375 L 11.84375 -10.84375 L 11.84375 -6.625 L 27.140625 -6.625 L 27.140625 0 L 2.96875 0 Z M 2.96875 -27.625 "/></g></g></g><g fill="#2c6db0" fill-opacity="1"><g transform="translate(83.237612, 36.127536)"><g><path d="M 22.734375 0 L 11.125 -13.40625 L 11.125 0 L 2.96875 0 L 2.96875 -27.625 L 10.71875 -27.625 L 22.328125 -14.015625 L 22.328125 -27.625 L 30.484375 -27.625 L 30.484375 0 Z M 22.734375 0 "/></g></g></g><g fill="#2c6db0" fill-opacity="1"><g transform="translate(120.24544, 36.127536)"><g/></g></g><g fill="#2c6db0" fill-opacity="1"><g transform="translate(137.184564, 36.127536)"><g><path d="M 10.484375 0 L 0.6875 -27.625 L 10.15625 -27.625 L 15.703125 -9.15625 L 15.859375 -9.15625 L 21.4375 -27.625 L 30.515625 -27.625 L 20.765625 0 Z M 10.484375 0 "/></g></g></g><g fill="#2c6db0" fill-opacity="1"><g transform="translate(171.98484, 36.127536)"><g><path d="M 3.375 0 L 3.375 -27.625 L 12.25 -27.625 L 12.25 0 Z M 3.375 0 "/></g></g></g><g fill="#2c6db0" fill-opacity="1"><g transform="translate(191.171654, 36.127536)"><g><path d="M 2.96875 -27.625 L 26.859375 -27.625 L 26.859375 -21 L 11.84375 -21 L 11.84375 -17.1875 L 24.703125 -17.1875 L 24.703125 -10.84375 L 11.84375 -10.84375 L 11.84375 -6.625 L 27.140625 -6.625 L 27.140625 0 L 2.96875 0 Z M 2.96875 -27.625 "/></g></g></g><g fill="#2c6db0" fill-opacity="1"><g transform="translate(223.724228, 36.127536)"><g><path d="M 18.875 -20.5625 L 18.875 0 L 10 0 L 10 -20.5625 L 0.921875 -20.5625 L 0.921875 -27.625 L 27.90625 -27.625 L 27.90625 -20.5625 Z M 18.875 -20.5625 "/></g></g></g></g></g><g transform="matrix(1, 0, 0, 1, 75, 192)"><g clip-path="url(#b39210f521)"><g fill="#fec32d" fill-opacity="1"><g transform="translate(1.531192, 13.73208)"><g><path d="M 8.546875 -10.890625 L 12.890625 -10.890625 L 8.96875 -6.40625 L 12.96875 0 L 8.828125 0 L 6.5625 -3.984375 L 4.671875 -2.4375 L 4.671875 0 L 1.171875 0 L 1.171875 -10.890625 L 4.671875 -10.890625 L 4.671875 -6.234375 Z M 8.546875 -10.890625 "/></g></g></g><g fill="#fec32d" fill-opacity="1"><g transform="translate(20.269441, 13.73208)"><g><path d="M 8.953125 0 L 4.390625 -5.28125 L 4.390625 0 L 1.171875 0 L 1.171875 -10.890625 L 4.21875 -10.890625 L 8.796875 -5.53125 L 8.796875 -10.890625 L 12.015625 -10.890625 L 12.015625 0 Z M 8.953125 0 "/></g></g></g><g fill="#fec32d" fill-opacity="1"><g transform="translate(39.007689, 13.73208)"><g><path d="M 1.328125 0 L 1.328125 -10.890625 L 4.828125 -10.890625 L 4.828125 0 Z M 1.328125 0 "/></g></g></g><g fill="#fec32d" fill-opacity="1"><g transform="translate(50.72115, 13.73208)"><g><path d="M 7.4375 -8.109375 L 7.4375 0 L 3.9375 0 L 3.9375 -8.109375 L 0.359375 -8.109375 L 0.359375 -10.890625 L 11 -10.890625 L 11 -8.109375 Z M 7.4375 -8.109375 "/></g></g></g><g fill="#fec32d" fill-opacity="1"><g transform="translate(67.703195, 13.73208)"><g><path d="M 7.4375 -8.109375 L 7.4375 0 L 3.9375 0 L 3.9375 -8.109375 L 0.359375 -8.109375 L 0.359375 -10.890625 L 11 -10.890625 L 11 -8.109375 Z M 7.4375 -8.109375 "/></g></g></g><g fill="#fec32d" fill-opacity="1"><g transform="translate(84.685241, 13.73208)"><g><path d="M 1.328125 0 L 1.328125 -10.890625 L 4.828125 -10.890625 L 4.828125 0 Z M 1.328125 0 "/></g></g></g><g fill="#fec32d" fill-opacity="1"><g transform="translate(96.398701, 13.73208)"><g><path d="M 8.953125 0 L 4.390625 -5.28125 L 4.390625 0 L 1.171875 0 L 1.171875 -10.890625 L 4.21875 -10.890625 L 8.796875 -5.53125 L 8.796875 -10.890625 L 12.015625 -10.890625 L 12.015625 0 Z M 8.953125 0 "/></g></g></g><g fill="#fec32d" fill-opacity="1"><g transform="translate(115.136949, 13.73208)"><g><path d="M 6.640625 -11.078125 C 7.691406 -11.078125 8.632812 -10.914062 9.46875 -10.59375 C 10.300781 -10.28125 10.960938 -9.816406 11.453125 -9.203125 C 11.941406 -8.585938 12.1875 -7.835938 12.1875 -6.953125 L 8.84375 -6.953125 C 8.84375 -7.398438 8.640625 -7.765625 8.234375 -8.046875 C 7.835938 -8.328125 7.359375 -8.46875 6.796875 -8.46875 C 5.972656 -8.46875 5.347656 -8.25 4.921875 -7.8125 C 4.503906 -7.375 4.296875 -6.753906 4.296875 -5.953125 L 4.296875 -4.9375 C 4.296875 -4.132812 4.503906 -3.515625 4.921875 -3.078125 C 5.347656 -2.640625 5.972656 -2.421875 6.796875 -2.421875 C 7.359375 -2.421875 7.835938 -2.554688 8.234375 -2.828125 C 8.640625 -3.097656 8.84375 -3.441406 8.84375 -3.859375 L 6.375 -3.859375 L 6.375 -6.078125 L 12.1875 -6.078125 L 12.1875 0 L 10.390625 0 L 10.03125 -1.078125 C 9.039062 -0.234375 7.742188 0.1875 6.140625 0.1875 C 4.335938 0.1875 2.984375 -0.28125 2.078125 -1.21875 C 1.171875 -2.164062 0.71875 -3.570312 0.71875 -5.4375 C 0.71875 -7.289062 1.226562 -8.691406 2.25 -9.640625 C 3.28125 -10.597656 4.742188 -11.078125 6.640625 -11.078125 Z M 6.640625 -11.078125 "/></g></g></g></g></g></svg>